<svg width="18" height="18" viewBox="0 0 18 18" fill="none" xmlns="http://www.w3.org/2000/svg">
<g clip-path="url(#clip0_652_4928)">
<path fill-rule="evenodd" clip-rule="evenodd" d="M9.46804 4.56289C9.36372 4.4064 9.18809 4.31241 9.00001 4.31241C8.81194 4.31241 8.63631 4.4064 8.53198 4.56289L7.77761 5.69445L6.23859 6.0792C6.04198 6.12835 5.88702 6.27946 5.83292 6.47476C5.77883 6.67006 5.83397 6.87936 5.97727 7.02266L7.06456 8.10995L6.70431 9.55098C6.65273 9.75731 6.72193 9.97509 6.88315 10.1138C7.04437 10.2525 7.27004 10.2884 7.46636 10.2066L9.00001 9.56762L10.5337 10.2066C10.73 10.2884 10.9557 10.2525 11.1169 10.1138C11.2781 9.97509 11.3473 9.75731 11.2957 9.55098L10.9355 8.10995L12.0228 7.02266C12.1661 6.87936 12.2212 6.67006 12.1671 6.47476C12.113 6.27946 11.958 6.12835 11.7614 6.0792L10.2224 5.69445L9.46804 4.56289ZM8.59304 6.49943L9.00001 5.88897L9.40698 6.49943C9.4846 6.61586 9.60283 6.69918 9.73859 6.73311L10.5248 6.92966L9.91477 7.53966C9.77505 7.67937 9.71889 7.88215 9.76681 8.07383L9.93272 8.7375L9.21636 8.43901C9.0779 8.38132 8.92213 8.38132 8.78367 8.43901L8.0673 8.7375L8.23322 8.07383C8.28114 7.88215 8.22497 7.67937 8.08526 7.53966L7.47526 6.92966L8.26144 6.73311C8.39719 6.69918 8.51542 6.61586 8.59304 6.49943Z" fill="#4F008C"/>
<path fill-rule="evenodd" clip-rule="evenodd" d="M7.6819 1.32609C8.48483 0.809923 9.51517 0.809922 10.3181 1.32609L13.6931 3.49573C14.3908 3.94424 14.8125 4.71671 14.8125 5.54611V9.40129C14.8125 10.2307 14.3908 11.0032 13.6931 11.4517L13.3125 11.6963L13.3125 15.827C13.3125 15.9545 13.3126 16.085 13.3027 16.1946C13.2921 16.3118 13.2655 16.4795 13.1613 16.6399C13.0289 16.8437 12.8226 16.9882 12.5859 17.0428C12.3994 17.0859 12.2328 17.0535 12.119 17.0234C12.0127 16.9952 11.8901 16.9505 11.7703 16.9069L9 15.8985L6.22982 16.9069C6.11 16.9505 5.98733 16.9952 5.88101 17.0234C5.76722 17.0535 5.60058 17.0859 5.41413 17.0428C5.17738 16.9882 4.97109 16.8437 4.83875 16.6399C4.73454 16.4795 4.70794 16.3118 4.69735 16.1946C4.68745 16.085 4.68748 15.9545 4.6875 15.827L4.6875 11.6963L4.3069 11.4517C3.60924 11.0032 3.1875 10.2307 3.1875 9.40129V5.54611C3.1875 4.71671 3.60924 3.94424 4.3069 3.49573L7.6819 1.32609ZM10.3181 13.6213L12.1875 12.4195L12.1875 15.8615L9.19241 14.7713C9.06813 14.7261 8.93188 14.7261 8.8076 14.7713L5.81252 15.8615L5.8125 12.4195L7.6819 13.6213C8.48484 14.1375 9.51517 14.1375 10.3181 13.6213ZM9.70974 2.27242C9.2774 1.99448 8.7226 1.99448 8.29026 2.27242L4.91526 4.44206C4.53959 4.68356 4.3125 5.09951 4.3125 5.54611V9.40129C4.3125 9.84788 4.53959 10.2638 4.91526 10.5053L8.29026 12.675C8.7226 12.9529 9.2774 12.9529 9.70975 12.675L13.0847 10.5053C13.4604 10.2638 13.6875 9.84788 13.6875 9.40129V5.54611C13.6875 5.09951 13.4604 4.68356 13.0847 4.44206L9.70974 2.27242Z" fill="#4F008C"/>
</g>
<defs>
<clipPath id="clip0_652_4928">
<rect width="18" height="18" fill="white"/>
</clipPath>
</defs>
</svg>
