<svg width="403" height="312" viewBox="0 0 403 312" fill="none" xmlns="http://www.w3.org/2000/svg">
<path d="M0 72.0381C1 68.1481 2 64.2381 3 60.3481C3.53 58.3481 4.16 56.3481 4.82 54.3481C5.14574 53.0997 5.8933 52.0024 6.93586 51.2423C7.97842 50.4823 9.2518 50.1063 10.54 50.1781C13.64 50.2681 16.73 50.6881 19.83 50.9281C21.4858 51.161 23.1592 51.2446 24.83 51.1781C26.0637 51.1142 27.2386 50.6309 28.16 49.8081C31.41 46.1781 34.5 42.4081 37.55 38.5981C38.0599 37.8914 38.3862 37.0691 38.4997 36.2051C38.6132 35.3411 38.5102 34.4624 38.2 33.6481C37.12 29.9981 35.93 26.3881 34.87 22.7281C34.4091 21.319 34.1565 19.8502 34.12 18.3681C34.1206 17.8235 34.2287 17.2843 34.4381 16.7815C34.6474 16.2787 34.9539 15.8222 35.34 15.4381C40.7096 11.3074 46.6695 8.0072 53.02 5.64807C53.956 5.26169 54.9936 5.19637 55.9706 5.46234C56.9477 5.72832 57.809 6.31058 58.42 7.11808C61.02 10.1181 63.73 13.1181 66.24 16.1981C67.0629 17.3816 68.211 18.3014 69.5455 18.8463C70.8801 19.3911 72.3439 19.5376 73.76 19.2681C77.76 18.6481 81.87 18.2681 85.92 17.7381C86.6621 17.6356 87.3683 17.3546 87.9779 16.9192C88.5875 16.4837 89.0824 15.9069 89.42 15.2381C90.7 12.9781 91.89 10.6681 93.14 8.38807C94.21 6.38807 95.26 4.46807 96.42 2.55807C96.9118 1.59122 97.7243 0.825248 98.7184 0.391124C99.7125 -0.0429986 100.827 -0.11831 101.87 0.178074C107.66 1.67807 113.44 3.17807 119.17 4.91807C120.258 5.24924 121.198 5.94536 121.831 6.889C122.465 7.83265 122.755 8.96607 122.65 10.0981C122.59 13.2381 122.13 16.3781 121.88 19.5281C121.76 21.0081 121.66 22.5281 121.66 23.9781C121.622 24.9328 121.81 25.8831 122.207 26.7518C122.605 27.6205 123.202 28.3832 123.95 28.9781C127.13 31.5381 130.36 34.0581 133.45 36.7381C134.345 37.5547 135.445 38.1119 136.632 38.3498C137.82 38.5877 139.05 38.4972 140.19 38.0881C144.14 36.8881 148.07 35.5981 152.02 34.4081C155.14 33.4681 157.39 34.2681 159.02 37.0781C161.687 41.6847 164.28 46.3514 166.8 51.0781C168.62 54.4981 168.24 56.5981 165.36 59.2681C163.43 61.0681 161.36 62.6681 159.36 64.4081C157.92 65.6614 156.53 66.9614 155.19 68.3081C154.616 68.8637 154.178 69.5446 153.911 70.2975C153.644 71.0504 153.555 71.8549 153.65 72.6481C154.08 76.8581 154.48 81.0681 155.01 85.2581C155.131 86.4011 155.547 87.4933 156.216 88.4275C156.886 89.3618 157.786 90.1063 158.83 90.5881C161.24 91.7781 163.68 92.9181 166.08 94.1381C167.577 94.8775 169.033 95.6987 170.44 96.5981C171.45 97.1563 172.236 98.0469 172.664 99.1187C173.093 100.19 173.137 101.377 172.79 102.478C171.337 107.705 169.847 112.921 168.32 118.128C168.048 118.917 167.686 119.672 167.24 120.378C166.848 121.232 166.199 121.942 165.383 122.409C164.566 122.875 163.625 123.074 162.69 122.978C158.99 122.668 155.3 122.338 151.6 121.978C151.32 121.978 151.04 121.978 150.77 121.918C147.29 121.398 144.69 122.648 142.63 125.518C140.76 128.118 138.63 130.518 136.57 132.988C135.618 134.079 134.983 135.41 134.737 136.837C134.49 138.264 134.64 139.731 135.17 141.078C136.34 144.548 137.5 148.078 138.51 151.558C139.58 155.278 138.97 156.978 135.64 158.918C130.87 161.688 126.02 164.328 121.14 166.918C118.47 168.308 116.4 167.918 114.33 165.698C112.26 163.478 110.18 160.938 108.15 158.518C103.79 153.318 102.77 152.898 96.03 153.778C93.4 154.128 90.78 154.508 88.16 154.858C86.902 154.972 85.6951 155.411 84.6574 156.132C83.6198 156.852 82.7868 157.829 82.24 158.968C80.85 161.748 79.53 164.568 78.06 167.308C77.273 168.724 76.3557 170.063 75.32 171.308C74.8687 171.941 74.231 172.417 73.4959 172.67C72.7608 172.923 71.9651 172.94 71.22 172.718C65.74 171.158 60.22 169.618 54.78 168.028C54.037 167.77 53.3231 167.435 52.65 167.028C51.7946 166.642 51.0818 165.997 50.6118 165.184C50.1419 164.372 49.9384 163.432 50.03 162.498C50.32 158.838 50.65 155.188 50.93 151.498C51.01 150.388 51.02 149.268 50.99 148.158C51.021 147.25 50.8369 146.347 50.4529 145.523C50.0688 144.7 49.4956 143.978 48.78 143.418C45.66 140.998 42.58 138.518 39.5 136.058C38.6206 135.33 37.5609 134.852 36.4326 134.676C35.3043 134.5 34.1495 134.632 33.09 135.058C29.61 136.208 26.09 137.268 22.61 138.368L22.21 138.508C17.62 139.728 16.06 139.238 13.7 135.118C11.08 130.528 8.7 125.828 6.28 121.118C4.83 118.228 5.21 116.488 7.67 114.298C10.34 111.918 13.07 109.598 15.91 107.428C17.3008 106.482 18.3833 105.149 19.0233 103.593C19.6633 102.038 19.8325 100.329 19.51 98.6781C18.95 94.9181 18.51 91.1281 18.05 87.3481C17.978 86.5554 17.7087 85.7934 17.2668 85.1314C16.8249 84.4695 16.2244 83.9286 15.52 83.5581C12.2 81.7881 8.86 80.0681 5.52 78.2781C3.35 77.1081 1.16 75.9381 0.120003 73.4781L0 72.0381ZM122.34 83.6481C120.76 63.5681 103.46 48.9681 83.21 50.4781C66.58 51.7181 48.89 67.7881 50.61 89.3781C51.4116 98.8402 55.9051 107.607 63.119 113.782C70.3329 119.957 79.6874 123.045 89.16 122.378C112.3 120.648 124.65 99.4581 122.34 83.6481Z" fill="#4F008C"/>
<path d="M370.65 84.5H87.94C80.5173 84.5 74.5 90.5173 74.5 97.94V252.54C74.5 259.963 80.5173 265.98 87.94 265.98H370.65C378.073 265.98 384.09 259.963 384.09 252.54V97.94C384.09 90.5173 378.073 84.5 370.65 84.5Z" fill="white"/>
<path d="M370.65 266.48H87.95C84.256 266.467 80.7169 264.994 78.1039 262.383C75.4909 259.772 74.0158 256.234 74 252.54V97.94C74.0158 94.246 75.4909 90.708 78.1039 88.0969C80.7169 85.4857 84.256 84.0132 87.95 84H370.65C374.344 84.0132 377.883 85.4857 380.496 88.0969C383.109 90.708 384.584 94.246 384.6 97.94V252.54C384.584 256.234 383.109 259.772 380.496 262.383C377.883 264.994 374.344 266.467 370.65 266.48ZM87.95 85C84.5212 85.0132 81.2365 86.3804 78.811 88.804C76.3856 91.2276 75.0158 94.5112 75 97.94V252.54C75.0158 255.969 76.3856 259.252 78.811 261.676C81.2365 264.1 84.5212 265.467 87.95 265.48H370.65C374.079 265.467 377.363 264.1 379.789 261.676C382.214 259.252 383.584 255.969 383.6 252.54V97.94C383.584 94.5112 382.214 91.2276 379.789 88.804C377.363 86.3804 374.079 85.0132 370.65 85H87.95Z" fill="#3A0066"/>
<path d="M206.59 121.64H104.97V244.35H206.59V121.64Z" fill="white"/>
<path d="M206.58 121.64V244.35H104.97V121.64H206.58ZM206.58 120.64H104.97C104.705 120.64 104.45 120.745 104.263 120.933C104.075 121.12 103.97 121.375 103.97 121.64V244.35C103.97 244.615 104.075 244.87 104.263 245.057C104.45 245.245 104.705 245.35 104.97 245.35H206.58C206.845 245.35 207.099 245.245 207.287 245.057C207.474 244.87 207.58 244.615 207.58 244.35V121.64C207.58 121.375 207.474 121.12 207.287 120.933C207.099 120.745 206.845 120.64 206.58 120.64Z" fill="#3A0066"/>
<path d="M122.58 175.4C119.74 179.96 119.02 185.45 118.64 190.85H195.54C195.615 190.542 195.652 190.227 195.65 189.91C195.65 184.34 186.78 182.76 185.55 177.61C184.82 174.61 186.8 171.61 187.22 168.48C187.91 163.25 184.22 158.62 181.84 153.9C178.96 148.09 180.43 140.73 176.7 135.64C171.76 128.89 163.76 127.51 155.77 127.51C151.3 127.453 146.869 128.346 142.77 130.13C138.95 131.76 137.23 135.5 136.32 139.53C134.79 138.86 133 139.53 131.62 140.53C125.48 144.71 123.81 152.93 125.02 159.86C125.6 163.18 126.82 166.61 125.82 169.86C125.2 171.89 123.72 173.56 122.58 175.4Z" fill="white"/>
<path d="M168.51 190.85L143.449 201.31C143.325 201.306 173.31 199.36 143.109 201.18C143.018 201.071 169.81 196.94 142.979 200.79C143.339 195.74 143.979 189.94 146.979 185.09C147.319 184.56 147.679 184.03 148.039 183.51C148.953 182.343 149.678 181.041 150.189 179.65C150.939 177.26 150.379 174.65 125.02 162.2C124.86 161.46 124.7 160.72 124.57 159.98C123.48 153.72 124.57 144.76 131.39 140.13C132.033 139.618 132.776 139.243 133.571 139.03C134.365 138.816 135.196 138.769 136.01 138.89C137.19 134.1 139.36 131.08 142.62 129.68C146.779 127.882 151.269 126.976 155.8 127.02C162.9 127.02 171.73 128.02 177.15 135.36C179.27 138.25 179.77 141.87 180.26 145.36C180.498 148.233 181.197 151.049 182.33 153.7C182.87 154.78 183.5 155.89 184.1 156.96C186.17 160.61 188.31 164.39 187.76 168.57C187.563 169.765 187.258 170.94 186.85 172.08C186.23 173.96 158.62 175.23 159.05 177C159.58 179.22 161.67 180.74 163.88 182.35C166.47 184.23 169.15 186.19 169.16 189.42C169.167 189.78 169.127 190.14 169.04 190.49C169.004 190.601 168.933 190.696 168.837 190.761C168.741 190.827 168.625 190.858 168.51 190.85ZM144.009 200.31L168.08 189.85C168.089 189.71 168.089 189.57 168.08 189.43C168.08 186.71 165.72 185 163.22 183.18C160.96 181.53 158.62 179.83 158 177.24C157.5 175.18 185.19 173.7 185.82 171.76C186.204 170.68 186.495 169.57 186.69 168.44C187.2 164.6 185.14 160.97 183.16 157.44C182.54 156.36 181.91 155.24 181.36 154.13C180.173 151.38 179.44 148.455 179.19 145.47C178.69 141.95 178.19 138.62 176.27 135.94C171.12 128.94 162.6 128.03 155.75 128.03C151.36 127.98 147.008 128.856 142.98 130.6C139.88 131.93 137.92 134.81 136.83 139.6C136.813 139.674 136.78 139.743 136.733 139.803C136.686 139.862 136.626 139.91 136.558 139.944C136.49 139.978 136.415 139.995 136.339 139.996C136.264 139.998 136.189 139.982 136.12 139.95C134.64 139.3 132.85 140.27 131.92 140.9C125.54 145.25 124.5 153.76 125.54 159.72C125.67 160.45 125.82 161.18 125.98 161.91C151.359 174.5 151.949 177.23 151.129 179.85C150.583 181.342 149.81 182.742 148.839 184C148.489 184.51 148.129 185 147.839 185.54C145.039 190.09 144.359 195.48 144.009 200.28V200.31Z" fill="#3A0066"/>
<path d="M206.58 208.9V244.35H104.97V208.92C115.23 199.18 129.97 195.84 142.55 194.74C147.41 194.31 151.94 194.21 155.78 194.21H156.68C160.26 194.21 164.4 194.33 168.79 194.72C168.863 194.711 168.937 194.711 169.01 194.72C181.61 195.84 196.3 199.18 206.58 208.9Z" fill="#A733FF"/>
<path d="M169.3 201.53L159.73 234.65L156.92 244.32H154.64L151.83 234.61L142.28 201.61C142.285 201.583 142.285 201.556 142.28 201.53C148.73 199.61 162.83 199.61 169.3 201.53Z" fill="#3A0066"/>
<path d="M142.3 201.54C142.3 201.54 145.67 208.89 155.52 208.89C158.255 208.954 160.96 208.311 163.374 207.024C165.788 205.736 167.829 203.847 169.3 201.54L167.98 172.66H143.56L142.3 201.54Z" fill="white"/>
<path d="M155.47 209.41C145.41 209.41 141.81 201.83 141.78 201.76C141.761 201.681 141.761 201.599 141.78 201.52L143.1 172.63C143.107 172.499 143.164 172.376 143.259 172.285C143.353 172.194 143.479 172.142 143.61 172.14H168C168.133 172.14 168.26 172.19 168.357 172.282C168.454 172.373 168.512 172.497 168.52 172.63L169.83 201.52C169.834 201.614 169.813 201.707 169.77 201.79C168.238 204.178 166.118 206.133 163.615 207.467C161.111 208.801 158.306 209.47 155.47 209.41ZM142.77 201.41C143.23 202.34 146.62 208.36 155.47 208.36C158.101 208.42 160.705 207.808 163.035 206.584C165.366 205.359 167.346 203.561 168.79 201.36L167.51 173.12H144.06L142.77 201.41Z" fill="#3A0066"/>
<path d="M143.56 185.02C145.449 187.756 147.989 189.979 150.95 191.49C155.79 194.17 163.03 197.18 168.9 196.28L167.9 184.07C163.585 184.611 159.221 184.637 154.9 184.15C151.11 183.82 147.2 183.46 143.72 181.99C143.2 181.72 142.81 183.84 143.56 185.02Z" fill="#3A0066"/>
<path d="M166.66 196.94C160.74 196.94 154.28 193.94 150.66 191.94C147.615 190.399 145.01 188.111 143.09 185.29C142.784 184.756 142.623 184.151 142.623 183.535C142.623 182.919 142.784 182.314 143.09 181.78C143.193 181.644 143.339 181.547 143.505 181.505C143.67 181.463 143.845 181.479 144 181.55C147.46 183 151.48 183.36 155 183.67C159.268 184.152 163.578 184.125 167.84 183.59C167.978 183.572 168.118 183.608 168.23 183.69C168.332 183.78 168.396 183.905 168.41 184.04L169.41 196.25C169.42 196.376 169.382 196.501 169.304 196.601C169.227 196.701 169.115 196.768 168.99 196.79C168.218 196.896 167.439 196.946 166.66 196.94ZM143.78 182.52C143.662 182.886 143.619 183.272 143.653 183.655C143.687 184.039 143.799 184.411 143.98 184.75C145.816 187.423 148.295 189.59 151.19 191.05C155.02 193.17 162.27 196.56 168.37 195.84L167.48 184.63C163.31 185.099 159.1 185.099 154.93 184.63C151.38 184.34 147.35 183.99 143.78 182.52Z" fill="#3A0066"/>
<path d="M155.78 216.52L151.14 212.94L155.78 209.35L160.43 212.94L155.78 216.52Z" fill="white"/>
<path d="M159.73 234.68L156.92 244.35H154.64L151.83 234.64L154.13 215.25V215.24L154.22 214.57L154.27 214.16H157.3L157.35 214.59L157.43 215.24V215.25L159.73 234.68Z" fill="white"/>
<path d="M121.42 244.86C121.294 244.859 121.173 244.813 121.077 244.731C120.982 244.648 120.919 244.535 120.9 244.41L116.95 214.64C116.951 214.517 116.995 214.399 117.076 214.306C117.157 214.214 117.268 214.153 117.389 214.136C117.511 214.119 117.635 214.147 117.738 214.214C117.841 214.28 117.916 214.382 117.95 214.5L121.95 244.28C121.967 244.417 121.929 244.554 121.845 244.663C121.761 244.772 121.637 244.843 121.5 244.86H121.42Z" fill="#3A0066"/>
<path d="M190.15 244.86H190.08C189.945 244.84 189.824 244.768 189.741 244.66C189.659 244.551 189.623 244.415 189.64 244.28L193.59 214.5C193.633 214.392 193.711 214.302 193.812 214.243C193.912 214.185 194.03 214.162 194.145 214.178C194.26 214.194 194.366 214.249 194.447 214.332C194.528 214.416 194.578 214.524 194.59 214.64L190.59 244.41C190.576 244.523 190.525 244.628 190.446 244.709C190.366 244.79 190.262 244.843 190.15 244.86Z" fill="#3A0066"/>
<path d="M171.18 166.02C171.99 159.24 180.37 157.57 179.96 165.56C179.932 168.218 179.156 170.814 177.72 173.05C176.29 175.05 173.97 175.94 172.1 174.82" fill="white"/>
<path d="M173.85 175.82C173.145 175.819 172.453 175.625 171.85 175.26C171.734 175.188 171.651 175.073 171.619 174.94C171.588 174.807 171.609 174.667 171.68 174.55C171.75 174.435 171.864 174.352 171.995 174.32C172.126 174.288 172.265 174.31 172.38 174.38C173.92 175.3 175.95 174.63 177.33 172.75C178.703 170.591 179.441 168.089 179.46 165.53C179.61 162.7 178.6 160.91 176.75 160.75C174.63 160.55 172.12 162.67 171.75 166.08C171.707 166.188 171.63 166.278 171.53 166.337C171.431 166.396 171.314 166.419 171.199 166.405C171.085 166.39 170.978 166.337 170.897 166.254C170.815 166.172 170.764 166.065 170.75 165.95C171.25 161.82 174.33 159.5 176.91 159.72C178.82 159.89 180.78 161.51 180.56 165.58C180.527 168.34 179.719 171.036 178.23 173.36C177.748 174.088 177.099 174.691 176.337 175.119C175.576 175.547 174.723 175.787 173.85 175.82Z" fill="#3A0066"/>
<path d="M139.58 166.02C138.77 159.24 130.39 157.57 130.8 165.56C130.827 168.218 131.603 170.814 133.04 173.05C134.47 175.05 136.79 175.94 138.66 174.82" fill="white"/>
<path d="M136.9 175.82C136.045 175.772 135.212 175.524 134.469 175.097C133.726 174.67 133.093 174.075 132.62 173.36C131.13 171.036 130.322 168.34 130.29 165.58C130.07 161.51 132.03 159.89 133.94 159.72C136.51 159.5 139.6 161.82 140.09 165.95C140.1 166.018 140.096 166.087 140.079 166.153C140.061 166.219 140.031 166.281 139.989 166.336C139.947 166.39 139.894 166.435 139.834 166.468C139.774 166.502 139.709 166.523 139.64 166.53C139.505 166.544 139.37 166.505 139.264 166.421C139.157 166.337 139.088 166.215 139.07 166.08C138.66 162.67 136.13 160.55 134.07 160.75C132.23 160.91 131.22 162.75 131.37 165.53C131.389 168.089 132.127 170.591 133.5 172.75C134.88 174.63 136.91 175.3 138.45 174.38C138.566 174.31 138.704 174.288 138.836 174.32C138.967 174.352 139.08 174.435 139.15 174.55C139.221 174.667 139.243 174.807 139.211 174.94C139.179 175.073 139.096 175.188 138.98 175.26C138.354 175.639 137.633 175.833 136.9 175.82Z" fill="#3A0066"/>
<path d="M173.84 151.14V170.78C173.84 173.021 173.399 175.24 172.541 177.311C171.683 179.381 170.425 181.263 168.84 182.847C167.255 184.431 165.373 185.688 163.302 186.544C161.231 187.401 159.011 187.841 156.77 187.84H154.77C152.529 187.841 150.31 187.401 148.239 186.544C146.168 185.688 144.286 184.431 142.7 182.847C141.115 181.263 139.858 179.381 139 177.311C138.142 175.24 137.7 173.021 137.7 170.78V152.15L148.44 151.26L149.67 142.74L152.36 152.38L159.99 151.38C160.77 147.97 159.99 140.61 159.87 140.28L165.37 150.59L173.84 151.14Z" fill="white"/>
<path d="M156.77 188.36H154.77C150.108 188.355 145.638 186.501 142.341 183.206C139.044 179.91 137.188 175.442 137.18 170.78V152.15C137.182 152.022 137.231 151.899 137.317 151.805C137.404 151.711 137.522 151.652 137.65 151.64L147.99 150.78L149.16 142.66C149.179 142.544 149.237 142.437 149.324 142.358C149.411 142.278 149.522 142.229 149.64 142.22C149.759 142.209 149.878 142.242 149.975 142.312C150.072 142.381 150.141 142.484 150.17 142.6L152.74 151.81L159.56 150.91C160.18 147.51 159.44 140.74 159.37 140.38C159.323 140.247 159.331 140.102 159.392 139.975C159.453 139.849 159.562 139.751 159.695 139.705C159.827 139.659 159.973 139.667 160.099 139.728C160.226 139.789 160.323 139.897 160.37 140.03L165.73 150.09L173.9 150.63C174.03 150.638 174.152 150.695 174.241 150.79C174.33 150.884 174.38 151.01 174.38 151.14V170.78C174.374 175.446 172.516 179.919 169.214 183.216C165.912 186.512 161.436 188.363 156.77 188.36ZM138.22 152.63V170.78C138.228 175.169 139.975 179.375 143.079 182.477C146.184 185.58 150.391 187.325 154.78 187.33H156.78C161.162 187.317 165.361 185.568 168.457 182.466C171.553 179.364 173.294 175.162 173.3 170.78V151.63L165.3 151.1C165.213 151.091 165.13 151.062 165.057 151.015C164.984 150.968 164.923 150.905 164.88 150.83L160.62 142.83C160.925 145.712 160.871 148.621 160.46 151.49C160.437 151.592 160.383 151.685 160.307 151.756C160.23 151.828 160.133 151.874 160.03 151.89L152.4 152.89C152.278 152.904 152.155 152.875 152.052 152.807C151.949 152.74 151.874 152.638 151.84 152.52L149.84 145.23L148.96 151.33C148.944 151.446 148.889 151.553 148.803 151.634C148.717 151.714 148.607 151.762 148.49 151.77L138.22 152.63Z" fill="#3A0066"/>
<path d="M187.9 225H171.18V229.45H187.9V225Z" fill="white"/>
<path d="M156.05 172.89C155.228 172.89 154.406 172.844 153.59 172.75C153.412 172.725 153.242 172.66 153.093 172.56C152.944 172.459 152.82 172.326 152.73 172.17C151.45 170.04 154.79 161.07 155.48 159.3C155.528 159.167 155.626 159.059 155.754 158.999C155.881 158.939 156.027 158.932 156.16 158.98C156.292 159.028 156.401 159.126 156.461 159.254C156.521 159.381 156.528 159.527 156.48 159.66C154.97 163.6 152.87 170.33 153.65 171.66C153.65 171.74 153.73 171.74 153.76 171.74C155.362 171.919 156.978 171.919 158.58 171.74C158.716 171.723 158.854 171.761 158.963 171.845C159.072 171.93 159.142 172.054 159.16 172.19C159.174 172.326 159.135 172.462 159.052 172.571C158.968 172.679 158.845 172.75 158.71 172.77C157.826 172.861 156.938 172.901 156.05 172.89Z" fill="#3A0066"/>
<path d="M384.1 104.24H74.5C74.3674 104.24 74.2402 104.187 74.1464 104.094C74.0527 104 74 103.873 74 103.74C74.0026 103.608 74.0561 103.482 74.1493 103.389C74.2425 103.296 74.3682 103.243 74.5 103.24H384.1C384.232 103.243 384.357 103.296 384.451 103.389C384.544 103.482 384.597 103.608 384.6 103.74C384.6 103.873 384.547 104 384.454 104.094C384.36 104.187 384.233 104.24 384.1 104.24Z" fill="#3A0066"/>
<path d="M354.87 131.73H270.85C269.673 131.73 268.72 132.681 268.72 133.855C268.72 135.029 269.673 135.98 270.85 135.98H354.87C356.046 135.98 357 135.029 357 133.855C357 132.681 356.046 131.73 354.87 131.73Z" fill="#E9CCFF"/>
<path d="M320.31 165.64H270.85C269.673 165.64 268.72 166.591 268.72 167.765C268.72 168.939 269.673 169.89 270.85 169.89H320.31C321.486 169.89 322.44 168.939 322.44 167.765C322.44 166.591 321.486 165.64 320.31 165.64Z" fill="#E9CCFF"/>
<path d="M344.5 197.96H270.85C269.673 197.96 268.72 198.911 268.72 200.085C268.72 201.259 269.673 202.21 270.85 202.21H344.5C345.676 202.21 346.63 201.259 346.63 200.085C346.63 198.911 345.676 197.96 344.5 197.96Z" fill="#E9CCFF"/>
<path d="M334.76 230.28H270.85C269.673 230.28 268.72 231.231 268.72 232.405C268.72 233.579 269.673 234.53 270.85 234.53H334.76C335.936 234.53 336.89 233.579 336.89 232.405C336.89 231.231 335.936 230.28 334.76 230.28Z" fill="#E9CCFF"/>
<path d="M246.52 142.58V139.82C246.52 138.229 245.887 136.703 244.762 135.577C243.637 134.452 242.111 133.82 240.52 133.82C238.928 133.82 237.402 134.452 236.277 135.577C235.152 136.703 234.52 138.229 234.52 139.82V142.58H246.52Z" fill="white"/>
<path d="M246.52 143.08H234.59C234.457 143.08 234.33 143.027 234.236 142.934C234.143 142.84 234.09 142.713 234.09 142.58V139.82C234.056 138.95 234.198 138.081 234.507 137.267C234.817 136.453 235.287 135.709 235.891 135.082C236.495 134.454 237.219 133.954 238.02 133.613C238.822 133.272 239.684 133.096 240.555 133.096C241.426 133.096 242.288 133.272 243.09 133.613C243.891 133.954 244.615 134.454 245.219 135.082C245.823 135.709 246.293 136.453 246.603 137.267C246.912 138.081 247.054 138.95 247.02 139.82V142.58C247.02 142.713 246.967 142.84 246.874 142.934C246.78 143.027 246.653 143.08 246.52 143.08ZM235.09 142.08H246.02V139.82C246.052 139.083 245.934 138.347 245.673 137.656C245.413 136.965 245.015 136.335 244.505 135.802C243.994 135.269 243.381 134.845 242.702 134.555C242.023 134.266 241.293 134.116 240.555 134.116C239.817 134.116 239.087 134.266 238.408 134.555C237.729 134.845 237.116 135.269 236.605 135.802C236.095 136.335 235.697 136.965 235.437 137.656C235.176 138.347 235.058 139.083 235.09 139.82V142.08Z" fill="#E9CCFF"/>
<path d="M240.55 133.85C242.897 133.85 244.8 131.947 244.8 129.6C244.8 127.253 242.897 125.35 240.55 125.35C238.203 125.35 236.3 127.253 236.3 129.6C236.3 131.947 238.203 133.85 240.55 133.85Z" fill="white"/>
<path d="M240.55 134.35C239.608 134.35 238.687 134.071 237.904 133.547C237.121 133.024 236.511 132.28 236.151 131.409C235.791 130.539 235.698 129.581 235.882 128.658C236.067 127.734 236.521 126.886 237.188 126.221C237.854 125.555 238.704 125.103 239.628 124.92C240.552 124.738 241.509 124.833 242.379 125.195C243.248 125.557 243.991 126.169 244.513 126.953C245.035 127.737 245.312 128.658 245.31 129.6C245.31 130.225 245.187 130.843 244.948 131.42C244.708 131.997 244.357 132.521 243.915 132.962C243.473 133.404 242.948 133.753 242.371 133.991C241.793 134.229 241.175 134.351 240.55 134.35ZM240.55 125.84C239.806 125.84 239.079 126.061 238.461 126.474C237.843 126.887 237.361 127.474 237.076 128.161C236.792 128.848 236.717 129.604 236.862 130.334C237.007 131.063 237.365 131.733 237.891 132.259C238.417 132.785 239.087 133.143 239.816 133.288C240.546 133.433 241.302 133.358 241.989 133.074C242.676 132.789 243.263 132.307 243.676 131.689C244.09 131.071 244.31 130.344 244.31 129.6C244.31 129.106 244.213 128.617 244.024 128.161C243.835 127.705 243.558 127.29 243.209 126.941C242.86 126.592 242.445 126.315 241.989 126.126C241.533 125.937 241.044 125.84 240.55 125.84Z" fill="#E9CCFF"/>
<path d="M247.36 174.71H232.28V163.89L239.82 159.55L247.36 163.89V174.71Z" fill="white"/>
<path d="M247.36 175.24H232.3C232.167 175.24 232.04 175.187 231.946 175.094C231.852 175 231.8 174.873 231.8 174.74V163.89C231.8 163.803 231.824 163.717 231.868 163.642C231.911 163.566 231.974 163.504 232.05 163.46L239.59 159.12C239.666 159.076 239.752 159.053 239.84 159.053C239.928 159.053 240.014 159.076 240.09 159.12L247.63 163.46C247.707 163.502 247.771 163.564 247.815 163.64C247.859 163.716 247.881 163.802 247.88 163.89V174.7C247.886 174.771 247.876 174.842 247.852 174.909C247.829 174.975 247.791 175.036 247.742 175.087C247.692 175.138 247.633 175.178 247.567 175.205C247.501 175.231 247.431 175.243 247.36 175.24ZM232.78 174.24H246.86V164.24L239.86 160.19L232.86 164.24L232.78 174.24Z" fill="#E9CCFF"/>
<path d="M242.45 167.13H237.2V174.71H242.45V167.13Z" fill="white"/>
<path d="M242.45 175.24H237.2C237.068 175.24 236.94 175.187 236.847 175.094C236.753 175 236.7 174.873 236.7 174.74V167.17C236.7 167.037 236.753 166.91 236.847 166.816C236.94 166.723 237.068 166.67 237.2 166.67H242.45C242.583 166.67 242.71 166.723 242.804 166.816C242.898 166.91 242.95 167.037 242.95 167.17V174.74C242.95 174.873 242.898 175 242.804 175.094C242.71 175.187 242.583 175.24 242.45 175.24ZM237.7 174.24H241.95V167.67H237.7V174.24Z" fill="#E9CCFF"/>
<path d="M229.95 165.16L239.82 159.55L249.62 165.16" fill="white"/>
<path d="M249.62 165.66C249.537 165.66 249.454 165.64 249.38 165.6L239.82 160.13L230.2 165.6C230.085 165.665 229.949 165.681 229.821 165.646C229.694 165.61 229.586 165.525 229.52 165.41C229.487 165.354 229.464 165.291 229.455 165.226C229.446 165.161 229.45 165.095 229.467 165.032C229.483 164.968 229.513 164.909 229.553 164.857C229.593 164.805 229.643 164.762 229.7 164.73L239.58 159.12C239.655 159.076 239.739 159.053 239.825 159.053C239.912 159.053 239.996 159.076 240.07 159.12L249.87 164.73C249.964 164.786 250.037 164.871 250.078 164.972C250.12 165.073 250.126 165.184 250.098 165.29C250.07 165.395 250.008 165.488 249.922 165.555C249.835 165.622 249.73 165.659 249.62 165.66Z" fill="#E9CCFF"/>
<path d="M247.41 196.94H232.4C231.61 196.94 230.97 197.58 230.97 198.37V205.39C230.97 206.18 231.61 206.82 232.4 206.82H247.41C248.199 206.82 248.84 206.18 248.84 205.39V198.37C248.84 197.58 248.199 196.94 247.41 196.94Z" fill="white"/>
<path d="M238.07 194.24H242.12C242.577 194.24 243.014 194.421 243.337 194.744C243.659 195.066 243.84 195.504 243.84 195.96V196.96H236.36V195.96C236.36 195.506 236.54 195.07 236.861 194.747C237.181 194.425 237.616 194.243 238.07 194.24Z" fill="white"/>
<path d="M247.81 225.55H234.95V240.52H247.81V225.55Z" fill="white"/>
<path d="M247.81 241.03H234.95C234.818 241.03 234.69 240.977 234.597 240.884C234.503 240.79 234.45 240.663 234.45 240.53V225.53C234.45 225.397 234.503 225.27 234.597 225.176C234.69 225.083 234.818 225.03 234.95 225.03H247.81C247.943 225.03 248.07 225.083 248.164 225.176C248.258 225.27 248.31 225.397 248.31 225.53V240.53C248.31 240.663 248.258 240.79 248.164 240.884C248.07 240.977 247.943 241.03 247.81 241.03ZM235.45 240.03H247.3V226.03H235.45V240.03Z" fill="#E9CCFF"/>
<path d="M244.63 223.36H231.77V238.33H244.63V223.36Z" fill="white"/>
<path d="M244.63 238.83H231.77C231.637 238.83 231.51 238.777 231.416 238.684C231.322 238.59 231.27 238.463 231.27 238.33V223.33C231.27 223.197 231.322 223.07 231.416 222.976C231.51 222.883 231.637 222.83 231.77 222.83H244.63C244.762 222.83 244.889 222.883 244.983 222.976C245.077 223.07 245.13 223.197 245.13 223.33V238.33C245.13 238.463 245.077 238.59 244.983 238.684C244.889 238.777 244.762 238.83 244.63 238.83ZM232.27 237.83H244.13V223.83H232.3L232.27 237.83Z" fill="#E9CCFF"/>
<path d="M241.38 227.68H234.48C234.348 227.68 234.221 227.627 234.127 227.534C234.033 227.44 233.98 227.313 233.98 227.18C233.98 227.047 234.033 226.92 234.127 226.826C234.221 226.733 234.348 226.68 234.48 226.68H241.38C241.513 226.68 241.64 226.733 241.734 226.826C241.828 226.92 241.88 227.047 241.88 227.18C241.878 227.312 241.824 227.437 241.731 227.531C241.638 227.624 241.512 227.677 241.38 227.68Z" fill="#E9CCFF"/>
<path d="M241.38 230.24H234.48C234.348 230.24 234.221 230.187 234.127 230.094C234.033 230 233.98 229.873 233.98 229.74C233.98 229.607 234.033 229.48 234.127 229.386C234.221 229.293 234.348 229.24 234.48 229.24H241.38C241.513 229.24 241.64 229.293 241.734 229.386C241.828 229.48 241.88 229.607 241.88 229.74C241.88 229.873 241.828 230 241.734 230.094C241.64 230.187 241.513 230.24 241.38 230.24Z" fill="#E9CCFF"/>
<path d="M241.38 232.7H234.48C234.348 232.7 234.221 232.647 234.127 232.554C234.033 232.46 233.98 232.333 233.98 232.2C233.98 232.067 234.033 231.94 234.127 231.846C234.221 231.753 234.348 231.7 234.48 231.7H241.38C241.512 231.703 241.638 231.756 241.731 231.849C241.824 231.943 241.878 232.068 241.88 232.2C241.88 232.333 241.828 232.46 241.734 232.554C241.64 232.647 241.513 232.7 241.38 232.7Z" fill="#E9CCFF"/>
<path d="M241.38 235.24H234.48C234.348 235.24 234.221 235.187 234.127 235.094C234.033 235 233.98 234.873 233.98 234.74C233.98 234.607 234.033 234.48 234.127 234.386C234.221 234.293 234.348 234.24 234.48 234.24H241.38C241.513 234.24 241.64 234.293 241.734 234.386C241.828 234.48 241.88 234.607 241.88 234.74C241.878 234.872 241.824 234.997 241.731 235.091C241.638 235.184 241.512 235.237 241.38 235.24Z" fill="#E9CCFF"/>
<path d="M340.968 312H335.328C333.462 311.756 333.029 310.3 332.865 309.226C332.709 308.066 332.464 306.92 332.132 305.799C331.962 305.277 331.614 304.834 331.149 304.547C329.689 303.837 328.189 303.214 326.656 302.682C326.313 302.602 325.954 302.653 325.647 302.827C324.92 303.242 324.193 303.723 323.499 304.184L322.464 304.843C320.557 306.062 319.614 305.977 318.068 304.448C317.322 303.703 316.614 302.906 315.933 302.128C315.488 301.621 315.036 301.107 314.571 300.612C314.26 300.319 314.069 299.92 314.033 299.494C313.996 299.067 314.118 298.642 314.374 298.299L314.806 297.588C315.24 296.836 315.713 296.108 316.221 295.406C316.713 294.823 317.018 294.103 317.096 293.343C317.174 292.582 317.022 291.815 316.66 291.142C316.483 290.754 316.326 290.398 316.188 290.081C315.036 287.445 315.036 287.445 312.37 286.997L311.302 286.8C308.682 286.292 308.119 285.949 308.027 283.116C307.961 281.501 308.027 279.821 308.105 278.298C308.075 277.769 308.245 277.248 308.582 276.841C308.919 276.433 309.397 276.17 309.92 276.104C310.942 275.86 311.99 275.682 313.005 275.511L313.424 275.438C313.974 275.369 314.496 275.153 314.935 274.812C315.374 274.471 315.714 274.019 315.92 273.501L316.077 273.138C316.424 272.321 316.778 271.497 317.112 270.674C317.292 270.248 317.362 269.783 317.317 269.322C317.271 268.861 317.11 268.42 316.85 268.038C316.405 267.319 315.972 266.588 315.54 265.856C315.219 265.309 314.885 264.756 314.564 264.215C314.314 263.862 314.203 263.428 314.253 262.997C314.302 262.566 314.509 262.169 314.833 261.883C316.267 260.472 317.937 258.831 319.64 257.309C319.884 257.147 320.164 257.046 320.455 257.017C320.746 256.987 321.039 257.028 321.311 257.138C321.917 257.413 322.496 257.747 323.04 258.133L323.505 258.436C323.806 258.627 324.095 258.831 324.389 259.029C324.684 259.227 324.953 259.424 325.247 259.609C325.61 259.856 326.026 260.011 326.46 260.061C326.894 260.112 327.335 260.056 327.743 259.899C328.968 259.438 330.167 258.917 331.582 258.278C331.924 258.115 332.219 257.866 332.438 257.554C332.656 257.242 332.79 256.878 332.826 256.499C333.003 255.523 333.239 254.521 333.481 253.605C333.579 253.197 333.678 252.788 333.769 252.38C333.829 252.005 334.023 251.665 334.313 251.423C334.603 251.18 334.971 251.052 335.348 251.062C336.972 251.029 338.623 251.016 340.221 251.002H341.872C342.344 250.978 342.807 251.138 343.164 251.449C343.522 251.759 343.746 252.197 343.791 252.67C343.863 252.986 343.935 253.329 344.014 253.632C344.224 254.561 344.446 255.523 344.604 256.485C344.642 256.969 344.818 257.431 345.109 257.817C345.4 258.204 345.795 258.499 346.248 258.667C346.785 258.884 347.322 259.121 347.859 259.326C348.612 259.649 349.398 259.985 350.178 260.275C350.513 260.368 350.871 260.33 351.18 260.169C351.881 259.767 352.582 259.319 353.256 258.851C353.813 258.495 354.37 258.133 354.94 257.797C356.597 256.808 356.984 256.848 358.379 258.113C359.603 259.228 360.77 260.405 361.877 261.639C362.984 262.878 363.056 263.846 362.158 265.342C361.503 266.43 360.809 267.504 360.128 268.545L359.853 268.973C359.71 269.159 359.622 269.38 359.596 269.612C359.571 269.845 359.61 270.08 359.708 270.292C359.898 270.733 360.082 271.168 360.259 271.61C360.678 272.618 361.11 273.666 361.569 274.648C361.81 275.041 362.184 275.334 362.623 275.471C363.443 275.701 364.274 275.888 365.112 276.031L365.977 276.196C368.178 276.631 368.905 277.475 368.971 279.676C369.01 281.079 369.01 282.556 368.971 284.084C368.912 285.844 368.316 286.562 366.54 286.931C365.584 287.136 364.575 287.314 363.658 287.478L363.285 287.551C362.8 287.604 362.338 287.788 361.947 288.082C361.556 288.377 361.252 288.771 361.064 289.225C360.449 290.675 359.905 291.993 359.446 293.337C359.368 293.709 359.424 294.097 359.604 294.431C359.964 295.09 360.37 295.69 360.763 296.302C361.156 296.915 361.484 297.423 361.824 298.003C362.754 299.604 362.702 300.125 361.49 301.476C360.365 302.728 359.176 303.92 357.927 305.047C356.617 306.214 356.139 306.26 354.606 305.351C353.571 304.731 352.542 304.033 351.54 303.374C351.146 303.05 350.666 302.849 350.16 302.795C349.654 302.742 349.144 302.837 348.691 303.07C348.239 303.281 347.794 303.479 347.342 303.677C346.89 303.874 346.326 304.125 345.822 304.336C345.361 304.539 344.961 304.859 344.661 305.265C344.36 305.67 344.169 306.147 344.106 306.649C344.047 306.992 343.994 307.308 343.935 307.684C343.876 308.059 343.824 308.382 343.765 308.731C343.49 310.227 343.169 312 340.968 312ZM335.394 311.341H340.857C342.527 311.4 342.822 310.359 343.104 308.705C343.162 308.356 343.221 308.006 343.274 307.664C343.326 307.321 343.385 306.965 343.444 306.616C343.529 306.01 343.765 305.436 344.13 304.947C344.496 304.459 344.979 304.071 345.534 303.822C346.038 303.584 346.549 303.36 347.06 303.163L348.37 302.563C348.927 302.28 349.553 302.164 350.174 302.227C350.795 302.29 351.385 302.53 351.874 302.919C352.857 303.624 353.872 304.29 354.894 304.896C356.204 305.66 356.368 305.641 357.449 304.665C358.679 303.554 359.85 302.379 360.96 301.146C361.981 300.006 362.001 299.828 361.215 298.444C360.887 297.877 360.521 297.317 360.167 296.77C359.813 296.223 359.361 295.518 358.994 294.866C358.717 294.371 358.642 293.787 358.785 293.238C359.243 291.867 359.794 290.543 360.416 289.08C360.645 288.526 361.017 288.043 361.492 287.681C361.967 287.319 362.529 287.09 363.121 287.017L363.495 286.945C364.438 286.78 365.414 286.608 366.364 286.404C367.811 286.094 368.224 285.613 368.27 284.17C368.316 282.727 368.329 281.191 368.27 279.808C368.217 277.916 367.706 277.33 365.807 276.947L364.949 276.789C364.085 276.643 363.23 276.45 362.388 276.209C361.776 276.025 361.258 275.613 360.94 275.056C360.442 274.048 360.003 272.993 359.584 271.972L359.034 270.654C358.894 270.345 358.839 270.004 358.872 269.666C358.905 269.328 359.027 269.005 359.224 268.73L359.505 268.295C360.16 267.26 360.874 266.192 361.523 265.118C362.276 263.866 362.224 263.214 361.313 262.186C360.222 260.97 359.07 259.81 357.861 258.713C356.682 257.639 356.604 257.632 355.195 258.476C354.632 258.812 354.082 259.135 353.532 259.517C352.844 259.958 352.136 260.406 351.422 260.835C350.946 261.086 350.392 261.14 349.876 260.986C349.077 260.696 348.285 260.327 347.525 260.018C346.994 259.787 346.464 259.556 345.927 259.359C345.371 259.149 344.884 258.786 344.523 258.312C344.161 257.838 343.94 257.271 343.883 256.676C343.726 255.734 343.51 254.779 343.3 253.856C343.221 253.533 343.149 253.197 343.077 252.887C342.9 252.096 342.514 251.74 341.82 251.74H340.169C338.551 251.74 336.927 251.74 335.309 251.8C335.079 251.784 334.853 251.856 334.674 252.002C334.496 252.147 334.378 252.355 334.346 252.584C334.254 252.993 334.156 253.401 334.058 253.81C333.835 254.746 333.606 255.714 333.403 256.676C333.347 257.161 333.168 257.623 332.884 258.017C332.599 258.412 332.218 258.726 331.778 258.93C330.35 259.589 329.158 260.097 327.9 260.565C327.398 260.758 326.857 260.827 326.322 260.767C325.787 260.706 325.275 260.517 324.828 260.215C324.534 260.024 324.245 259.826 323.957 259.622C323.669 259.418 323.381 259.227 323.086 259.042L322.621 258.733C322.107 258.372 321.564 258.057 320.996 257.79C320.837 257.733 320.668 257.709 320.499 257.719C320.33 257.729 320.165 257.774 320.014 257.849C318.317 259.365 316.647 261 315.219 262.403C315.003 262.588 314.866 262.848 314.836 263.132C314.805 263.415 314.884 263.699 315.055 263.926C315.389 264.472 315.71 265.026 316.038 265.573C316.464 266.305 316.889 267.029 317.348 267.748C317.666 268.217 317.861 268.76 317.916 269.325C317.971 269.891 317.884 270.461 317.662 270.983C317.328 271.814 317.007 272.638 316.621 273.461L316.464 273.824C316.215 274.443 315.808 274.985 315.283 275.393C314.758 275.802 314.135 276.063 313.477 276.15L313.064 276.223C312.055 276.394 311.02 276.572 310.018 276.809C309.828 276.826 309.643 276.88 309.474 276.969C309.305 277.058 309.155 277.18 309.033 277.328C308.911 277.475 308.82 277.646 308.764 277.83C308.708 278.013 308.689 278.206 308.708 278.397C308.629 279.999 308.564 281.567 308.629 283.155C308.728 285.627 308.996 285.791 311.394 286.22L312.461 286.417C315.409 286.951 315.488 287.01 316.758 289.884L317.23 290.938C317.641 291.718 317.812 292.604 317.72 293.482C317.627 294.361 317.277 295.191 316.712 295.868C316.215 296.527 315.769 297.278 315.337 297.99L314.905 298.708C314.738 298.934 314.663 299.215 314.696 299.495C314.729 299.774 314.867 300.03 315.081 300.21C315.547 300.711 316.005 301.225 316.457 301.739C317.112 302.504 317.826 303.301 318.56 304.026C319.87 305.344 320.525 305.397 322.149 304.336C322.49 304.12 322.83 303.901 323.171 303.677C323.878 303.215 324.612 302.728 325.359 302.299C325.832 302.035 326.389 301.967 326.911 302.108C328.474 302.654 330.005 303.287 331.496 304.006C332.118 304.37 332.585 304.952 332.806 305.641C333.149 306.796 333.401 307.977 333.56 309.173C333.724 310.55 334.274 311.196 335.387 311.348L335.394 311.341ZM339.586 293.989H338.767C333.278 294.273 329.42 291.874 326.643 286.424C326.259 285.607 326.022 284.728 325.942 283.827C325.392 279.004 326.42 275.405 329.184 272.512C330.565 271.039 332.276 269.918 334.174 269.244C336.072 268.57 338.103 268.362 340.097 268.637C342.122 268.919 344.051 269.685 345.722 270.87C347.392 272.056 348.756 273.627 349.7 275.452C352.975 281.633 350.702 289.093 344.381 292.797C342.92 293.625 341.263 294.039 339.586 293.996V293.989ZM338.767 293.33C340.584 293.504 342.411 293.121 344.007 292.23C350.021 288.704 352.202 281.626 349.084 275.755C348.189 274.022 346.893 272.53 345.307 271.404C343.721 270.278 341.889 269.551 339.966 269.283C338.073 269.021 336.146 269.218 334.344 269.858C332.543 270.497 330.92 271.561 329.61 272.96C326.99 275.702 326.02 279.129 326.544 283.748C326.62 284.572 326.841 285.376 327.199 286.121C329.82 291.314 333.507 293.607 338.721 293.324L338.767 293.33Z" fill="#3A0066"/>
<path d="M197.281 44.936H196.991C195.991 44.826 194.991 44.646 194.081 44.466L192.861 44.246C192.473 44.1817 192.121 43.9813 191.868 43.6806C191.615 43.38 191.478 42.9989 191.481 42.606C191.481 42.216 191.421 41.826 191.391 41.436L191.321 40.316C191.314 40.0572 191.284 39.7996 191.231 39.546C190.778 38.605 190.01 37.8515 189.061 37.4152C188.112 36.979 187.04 36.8873 186.031 37.156L185.291 37.536C184.833 37.7992 184.359 38.0329 183.871 38.236C183.626 38.3327 183.362 38.3704 183.099 38.3461C182.837 38.3218 182.584 38.2361 182.361 38.096C180.899 36.9178 179.751 35.3958 179.021 33.666C178.979 33.5451 178.946 33.4215 178.921 33.296V33.136C178.891 33.0383 178.891 32.9338 178.921 32.836C178.921 32.776 178.921 32.706 178.991 32.636C179.054 32.4074 179.148 32.1886 179.271 31.986C179.567 31.5343 179.901 31.1093 180.271 30.716C180.995 30.1106 181.469 29.2594 181.604 28.3257C181.739 27.3919 181.524 26.4413 181.001 25.656C180.556 25.0668 179.981 24.5878 179.321 24.256C178.838 23.9806 178.333 23.7465 177.811 23.556L177.021 23.226C176.679 23.0932 176.393 22.8469 176.211 22.5283C176.029 22.2097 175.962 21.8382 176.021 21.476L176.141 20.676C176.301 19.466 176.481 18.226 176.721 17.006C176.812 16.7282 176.97 16.477 177.181 16.2747C177.392 16.0724 177.65 15.9252 177.931 15.846C178.63 15.6914 179.345 15.6176 180.061 15.626C180.691 15.626 181.309 15.4594 181.853 15.1433C182.398 14.8272 182.849 14.3727 183.161 13.826C184.281 12.196 184.371 11.076 183.481 9.54603C182.051 7.10603 182.341 6.59603 184.571 4.85603C185.001 4.51603 185.441 4.20603 185.891 3.85603L186.891 3.15603C187.153 2.93745 187.488 2.82538 187.829 2.84205C188.169 2.85872 188.492 3.00291 188.731 3.24603C189.171 3.62603 189.611 3.98603 190.061 4.35603L191.141 5.25604C191.38 5.47609 191.668 5.63478 191.982 5.71841C192.295 5.80203 192.625 5.80808 192.941 5.73603L193.791 5.54603C194.061 5.48603 194.321 5.41604 194.591 5.36604C195.176 5.27055 195.718 4.99789 196.144 4.58485C196.569 4.1718 196.858 3.63822 196.971 3.05602C197.871 -0.103977 198.641 -0.243976 200.801 0.166024L201.441 0.276025C201.921 0.356025 202.441 0.466033 202.861 0.566033C203.281 0.666033 203.531 0.726034 203.861 0.786034C204.254 0.824892 204.619 1.00586 204.888 1.29496C205.157 1.58406 205.311 1.96138 205.321 2.35603C205.321 2.80603 205.411 3.24602 205.471 3.69602C205.541 4.32602 205.611 4.94603 205.651 5.57603C205.651 5.78151 205.706 5.98321 205.812 6.15942C205.918 6.33562 206.07 6.47965 206.251 6.57603L206.831 6.93603C209.271 8.48603 209.271 8.48603 211.891 7.24603L212.241 7.07603C213.691 6.39603 214.331 6.52604 215.351 7.72604C215.921 8.39604 216.441 9.10603 216.941 9.78603C217.151 10.086 217.361 10.376 217.581 10.666C217.851 10.9776 217.996 11.3785 217.986 11.7907C217.977 12.2029 217.815 12.5969 217.531 12.896L217.411 13.036C216.661 13.956 215.881 14.896 215.161 15.866C215.037 16.0551 214.98 16.2807 215.001 16.506C215.131 17.166 215.321 17.846 215.511 18.506L215.701 19.186C215.784 19.5503 215.968 19.8839 216.232 20.149C216.495 20.4141 216.827 20.6002 217.191 20.686C218.093 20.9545 218.962 21.3235 219.781 21.786C220.068 21.9633 220.308 22.2064 220.482 22.4951C220.656 22.7838 220.758 23.1098 220.781 23.446C220.721 24.806 220.531 26.146 220.321 27.636C220.27 28.1239 220.035 28.574 219.663 28.8939C219.291 29.2137 218.811 29.3791 218.321 29.356H218.121C217.975 29.3661 217.828 29.3661 217.681 29.356C215.571 29.196 214.111 30.156 213.021 32.356C212.833 32.6702 212.723 33.0248 212.701 33.3902C212.678 33.7556 212.743 34.1211 212.891 34.456L213.161 35.106C213.401 35.636 213.631 36.176 213.871 36.716C214.111 37.1527 214.18 37.6634 214.063 38.1481C213.947 38.6327 213.654 39.0564 213.241 39.336C212.188 40.1094 211.148 40.8894 210.121 41.676C209.796 41.9604 209.373 42.107 208.942 42.0846C208.51 42.0622 208.105 41.8726 207.811 41.556L206.941 40.806C206.511 40.446 206.091 40.086 205.681 39.706C205.472 39.4847 205.209 39.3214 204.918 39.232C204.627 39.1427 204.318 39.1303 204.021 39.196L203.591 39.286C202.843 39.4282 202.108 39.6288 201.391 39.886C201.023 40.0636 200.722 40.3545 200.531 40.716C200.202 41.3966 199.947 42.1107 199.771 42.846C199.696 43.4442 199.398 43.992 198.936 44.3796C198.474 44.7672 197.883 44.9659 197.281 44.936ZM187.031 35.936C187.858 35.9537 188.672 36.1444 189.421 36.496C190.051 36.7388 190.621 37.1147 191.092 37.5979C191.563 38.0812 191.924 38.6604 192.151 39.296C192.223 39.6248 192.263 39.9596 192.271 40.296L192.341 41.406C192.341 41.786 192.341 42.166 192.431 42.546C192.521 42.926 192.701 43.226 193.031 43.286L194.261 43.506C195.191 43.676 196.151 43.856 197.101 43.956C198.051 44.056 198.451 43.336 198.621 42.716C198.826 41.9179 199.114 41.1436 199.481 40.406C199.782 39.8267 200.273 39.368 200.871 39.106C201.634 38.8254 202.421 38.6113 203.221 38.466L203.651 38.366C204.106 38.2647 204.579 38.2813 205.025 38.4143C205.471 38.5474 205.876 38.7924 206.201 39.126L207.421 40.196C207.721 40.446 208.021 40.696 208.311 40.956C208.601 41.216 208.971 41.326 209.311 41.036C210.311 40.236 211.391 39.446 212.451 38.676C212.565 38.6058 212.663 38.5134 212.741 38.4044C212.818 38.2954 212.873 38.172 212.902 38.0415C212.931 37.911 212.933 37.776 212.909 37.6445C212.885 37.513 212.834 37.3877 212.761 37.276C212.511 36.736 212.281 36.196 212.051 35.646L211.771 35.006C211.561 34.5288 211.465 34.0091 211.491 33.4883C211.517 32.9675 211.664 32.4599 211.921 32.006C213.201 29.436 215.051 28.276 217.561 28.466C217.654 28.476 217.748 28.476 217.841 28.466H218.101C218.228 28.4827 218.358 28.4731 218.482 28.4378C218.605 28.4024 218.72 28.3421 218.819 28.2606C218.919 28.179 219 28.078 219.059 27.9637C219.118 27.8494 219.153 27.7243 219.161 27.596C219.371 26.146 219.551 24.826 219.611 23.516C219.59 23.3648 219.538 23.2196 219.459 23.0889C219.38 22.9583 219.275 22.8451 219.151 22.756C218.393 22.3365 217.592 22.0012 216.761 21.756C216.24 21.6192 215.765 21.3446 215.387 20.961C215.009 20.5774 214.741 20.099 214.611 19.576L214.421 18.896C214.231 18.226 214.041 17.526 213.901 16.816C213.823 16.3164 213.945 15.8061 214.241 15.396C214.971 14.396 215.761 13.456 216.521 12.536L216.641 12.386C216.71 12.3223 216.765 12.245 216.803 12.159C216.841 12.0729 216.86 11.98 216.86 11.886C216.86 11.7921 216.841 11.6991 216.803 11.6131C216.765 11.527 216.71 11.4497 216.641 11.386C216.421 11.096 216.201 10.796 215.991 10.496C215.501 9.82603 214.991 9.13603 214.451 8.49603C213.731 7.64603 213.571 7.60603 212.531 8.10603L212.181 8.26603C209.181 9.70603 208.981 9.69603 206.181 7.90603L205.601 7.53603C205.28 7.3521 205.014 7.08715 204.828 6.76774C204.642 6.44833 204.543 6.08566 204.541 5.71603C204.541 5.09603 204.431 4.49603 204.361 3.88603C204.361 3.42603 204.261 2.96604 204.221 2.50604C204.181 2.04604 204.011 1.92602 203.561 1.83602C203.111 1.74602 202.861 1.69604 202.561 1.61604C202.261 1.53604 201.661 1.40602 201.201 1.33602L200.541 1.21603C198.801 0.896027 198.541 0.856035 197.861 3.39603C197.693 4.15046 197.305 4.83809 196.746 5.37205C196.187 5.90601 195.482 6.26235 194.721 6.39603L193.941 6.57603L193.061 6.77602C192.598 6.87791 192.117 6.8685 191.658 6.74856C191.199 6.62861 190.775 6.40155 190.421 6.08602L189.351 5.18603C188.891 4.81603 188.441 4.44603 188.001 4.06603C187.741 3.84603 187.631 3.85603 187.411 4.06603L186.411 4.77602C185.981 5.07602 185.551 5.37602 185.141 5.69602C183.191 7.21602 183.191 7.21603 184.291 9.10603C184.819 9.91573 185.07 10.8748 185.007 11.8393C184.944 12.8039 184.57 13.722 183.941 14.456C183.537 15.1336 182.965 15.695 182.28 16.0858C181.594 16.4766 180.82 16.6834 180.031 16.686C179.392 16.6733 178.754 16.7371 178.131 16.876C177.929 16.9437 177.759 17.0822 177.651 17.266C177.411 18.446 177.241 19.676 177.081 20.866L176.971 21.676C176.937 21.8244 176.962 21.98 177.04 22.1104C177.119 22.2408 177.244 22.336 177.391 22.376L178.151 22.686C178.711 22.8941 179.253 23.1483 179.771 23.446C180.592 23.8594 181.299 24.467 181.831 25.216C182.456 26.1908 182.711 27.3574 182.55 28.5042C182.388 29.651 181.821 30.7018 180.951 31.466C180.623 31.8208 180.326 32.2021 180.061 32.606C179.993 32.7332 179.94 32.8673 179.901 33.006V33.106C179.915 33.1711 179.935 33.2347 179.961 33.296C180.615 34.871 181.645 36.2616 182.961 37.346C183.127 37.4002 183.305 37.4002 183.471 37.346C183.922 37.1517 184.362 36.9347 184.791 36.696L185.561 36.296C186.018 36.0683 186.521 35.9485 187.031 35.946V35.936ZM198.581 31.936C196.163 31.8173 193.881 30.7821 192.2 29.0409C190.518 27.2996 189.563 24.9832 189.529 22.5628C189.494 20.1423 190.383 17.7997 192.015 16.0113C193.646 14.223 195.898 13.1234 198.311 12.936H198.401C200.944 12.9651 203.371 13.9996 205.154 15.8136C206.936 17.6275 207.927 20.0732 207.911 22.616C207.908 25.0943 206.926 27.4711 205.178 29.2282C203.431 30.9853 201.059 31.9802 198.581 31.996V31.936ZM198.271 13.936C197.106 13.8777 195.941 14.0592 194.849 14.4693C193.757 14.8795 192.761 15.5096 191.922 16.3205C191.084 17.1314 190.42 18.1059 189.974 19.1836C189.527 20.2613 189.307 21.4193 189.326 22.5857C189.345 23.7521 189.604 24.9021 190.085 25.9645C190.567 27.0269 191.262 27.9791 192.127 28.762C192.992 29.5448 194.008 30.1417 195.113 30.5157C196.218 30.8897 197.388 31.0327 198.551 30.936C200.755 30.9098 202.861 30.017 204.412 28.4507C205.963 26.8844 206.836 24.7705 206.841 22.566C206.857 20.2877 205.969 18.0958 204.372 16.4707C202.775 14.8456 200.599 13.9198 198.321 13.896L198.271 13.936Z" fill="#E9CCFF"/>
<rect x="355" y="64" width="48" height="46" rx="12" fill="#FFD700"/>
<path d="M386.754 95.84H371.245C370.983 95.84 370.724 95.7752 370.482 95.6491C370.24 95.523 370.02 95.3382 369.834 95.1052C369.649 94.8722 369.502 94.5956 369.402 94.2912C369.302 93.9868 369.25 93.6605 369.25 93.331V84.231C369.253 83.5667 369.464 82.9305 369.837 82.4607C370.211 81.9909 370.717 81.7255 371.245 81.722H386.754C387.283 81.7255 387.789 81.9909 388.163 82.4607C388.536 82.9305 388.747 83.5667 388.75 84.231V93.331C388.75 93.6605 388.698 93.9868 388.598 94.2912C388.498 94.5956 388.351 94.8722 388.166 95.1052C387.98 95.3382 387.76 95.523 387.518 95.6491C387.276 95.7752 387.017 95.84 386.754 95.84ZM371.245 82.996C370.99 82.996 370.746 83.1234 370.566 83.3502C370.385 83.5769 370.284 83.8844 370.284 84.2051V93.3051C370.284 93.6257 370.385 93.9332 370.566 94.1599C370.746 94.3867 370.99 94.514 371.245 94.514H386.754C387.01 94.514 387.254 94.3867 387.434 94.1599C387.615 93.9332 387.716 93.6257 387.716 93.3051V84.2051C387.716 83.8844 387.615 83.5769 387.434 83.3502C387.254 83.1234 387.01 82.996 386.754 82.996H371.245Z" fill="white" stroke="white"/>
<path d="M383.043 82.9961H375.309C375.172 82.9961 375.04 82.9276 374.943 82.8057C374.846 82.6838 374.792 82.5185 374.792 82.3461V81.0461C374.791 80.6666 374.849 80.2905 374.964 79.9396C375.079 79.5887 375.248 79.2699 375.461 79.0015C375.675 78.7332 375.928 78.5207 376.207 78.3762C376.486 78.2318 376.786 78.1583 377.087 78.1601H381.223C381.524 78.1601 381.822 78.2348 382.1 78.38C382.378 78.5252 382.63 78.738 382.842 79.0061C383.055 79.2743 383.223 79.5926 383.337 79.9426C383.451 80.2927 383.509 80.6677 383.508 81.0461V82.3461C383.509 82.5078 383.461 82.664 383.375 82.7842C383.289 82.9043 383.171 82.9799 383.043 82.9961ZM375.805 81.6961H382.495V81.0591C382.495 80.6407 382.363 80.2392 382.129 79.9422C381.895 79.6451 381.577 79.4765 381.244 79.4731H377.108C376.773 79.4731 376.453 79.6402 376.216 79.9376C375.98 80.235 375.847 80.6384 375.847 81.0591L375.805 81.6961Z" fill="white" stroke="white"/>
</svg>
