<svg width="310" height="277" viewBox="0 0 310 277" fill="none" xmlns="http://www.w3.org/2000/svg">
<path d="M27.4902 191.23C27.3576 191.23 27.2304 191.177 27.1367 191.084C27.0429 190.99 26.9902 190.863 26.9902 190.73V16.44C26.9902 16.3074 27.0429 16.1802 27.1367 16.0864C27.2304 15.9927 27.3576 15.94 27.4902 15.94C27.6228 15.94 27.75 15.9927 27.8438 16.0864C27.9376 16.1802 27.9902 16.3074 27.9902 16.44V190.73C27.9902 190.863 27.9376 190.99 27.8438 191.084C27.75 191.177 27.6228 191.23 27.4902 191.23Z" fill="#E9CCFF"/>
<path d="M95.1396 191.23C95.007 191.23 94.8799 191.177 94.7861 191.084C94.6923 190.99 94.6396 190.863 94.6396 190.73V16.44C94.6396 16.3074 94.6923 16.1802 94.7861 16.0864C94.8799 15.9927 95.007 15.94 95.1396 15.94C95.2723 15.94 95.3994 15.9927 95.4932 16.0864C95.587 16.1802 95.6396 16.3074 95.6396 16.44V190.73C95.6396 190.863 95.587 190.99 95.4932 191.084C95.3994 191.177 95.2723 191.23 95.1396 191.23Z" fill="#E9CCFF"/>
<path d="M162.79 191.23C162.657 191.23 162.53 191.177 162.436 191.084C162.343 190.99 162.29 190.863 162.29 190.73V16.44C162.29 16.3074 162.343 16.1802 162.436 16.0864C162.53 15.9927 162.657 15.94 162.79 15.94C162.923 15.94 163.05 15.9927 163.144 16.0864C163.237 16.1802 163.29 16.3074 163.29 16.44V190.73C163.29 190.863 163.237 190.99 163.144 191.084C163.05 191.177 162.923 191.23 162.79 191.23Z" fill="#E9CCFF"/>
<path d="M230.44 191.23C230.308 191.23 230.181 191.177 230.087 191.084C229.993 190.99 229.94 190.863 229.94 190.73V16.44C229.94 16.3074 229.993 16.1802 230.087 16.0864C230.181 15.9927 230.308 15.94 230.44 15.94C230.573 15.94 230.7 15.9927 230.794 16.0864C230.888 16.1802 230.94 16.3074 230.94 16.44V190.73C230.94 190.863 230.888 190.99 230.794 191.084C230.7 191.177 230.573 191.23 230.44 191.23Z" fill="#E9CCFF"/>
<path d="M298.09 191.23C297.957 191.23 297.83 191.177 297.736 191.084C297.643 190.99 297.59 190.863 297.59 190.73V16.44C297.59 16.3074 297.643 16.1802 297.736 16.0864C297.83 15.9927 297.957 15.94 298.09 15.94C298.222 15.94 298.35 15.9927 298.443 16.0864C298.537 16.1802 298.59 16.3074 298.59 16.44V190.73C298.59 190.863 298.537 190.99 298.443 191.084C298.35 191.177 298.222 191.23 298.09 191.23Z" fill="#E9CCFF"/>
<path d="M298.09 16.94H27.4902C27.3576 16.94 27.2304 16.8873 27.1367 16.7936C27.0429 16.6998 26.9902 16.5726 26.9902 16.44C26.9902 16.3074 27.0429 16.1802 27.1367 16.0864C27.2304 15.9927 27.3576 15.94 27.4902 15.94H298.09C298.223 15.94 298.35 15.9927 298.444 16.0864C298.538 16.1802 298.59 16.3074 298.59 16.44C298.59 16.5726 298.538 16.6998 298.444 16.7936C298.35 16.8873 298.223 16.94 298.09 16.94Z" fill="#E9CCFF"/>
<path d="M298.09 74.59H27.4902C27.3576 74.59 27.2304 74.5373 27.1367 74.4436C27.0429 74.3498 26.9902 74.2226 26.9902 74.09C26.9902 73.9574 27.0429 73.8302 27.1367 73.7365C27.2304 73.6427 27.3576 73.59 27.4902 73.59H298.09C298.223 73.59 298.35 73.6427 298.444 73.7365C298.538 73.8302 298.59 73.9574 298.59 74.09C298.59 74.2226 298.538 74.3498 298.444 74.4436C298.35 74.5373 298.223 74.59 298.09 74.59Z" fill="#E9CCFF"/>
<path d="M298.09 132.19H27.4902C27.3576 132.19 27.2304 132.137 27.1367 132.044C27.0429 131.95 26.9902 131.823 26.9902 131.69C26.9902 131.557 27.0429 131.43 27.1367 131.336C27.2304 131.243 27.3576 131.19 27.4902 131.19H298.09C298.223 131.19 298.35 131.243 298.444 131.336C298.538 131.43 298.59 131.557 298.59 131.69C298.59 131.823 298.538 131.95 298.444 132.044C298.35 132.137 298.223 132.19 298.09 132.19Z" fill="#E9CCFF"/>
<path d="M9 191.23H92.22L274.94 57.63L288.01 75.57L309.35 2.19L232.95 0L246.02 17.94L9 191.23Z" fill="#4F008C"/>
<path d="M108.374 256.33C71.9241 256.33 44.0041 256.19 43.1741 255.77C43.0615 255.711 42.9758 255.611 42.9344 255.49C42.893 255.37 42.8991 255.238 42.9514 255.122C43.0036 255.006 43.0982 254.914 43.2158 254.866C43.3334 254.817 43.4651 254.815 43.5841 254.86C47.2541 255.71 198.864 255.21 278.584 254.86C278.65 254.859 278.715 254.87 278.776 254.894C278.837 254.918 278.893 254.954 278.941 254.999C278.988 255.045 279.026 255.099 279.052 255.159C279.079 255.22 279.093 255.284 279.094 255.35C279.094 255.484 279.042 255.612 278.948 255.707C278.855 255.802 278.728 255.857 278.594 255.86C263.384 255.9 172.644 256.33 108.374 256.33Z" fill="#D399FF"/>
<path d="M72.2538 220.02L261.884 220.02V76.49L72.2538 76.49L72.2538 220.02Z" fill="white"/>
<path d="M261.884 220.52H72.2441C72.1115 220.52 71.9843 220.467 71.8906 220.374C71.7968 220.28 71.7441 220.153 71.7441 220.02V76.5C71.7441 76.3674 71.7968 76.2402 71.8906 76.1464C71.9843 76.0527 72.1115 76 72.2441 76H261.884C262.017 76 262.144 76.0527 262.238 76.1464C262.331 76.2402 262.384 76.3674 262.384 76.5V220.02C262.384 220.153 262.331 220.28 262.238 220.374C262.144 220.467 262.017 220.52 261.884 220.52ZM72.7441 219.52H261.384V77H72.7441V219.52Z" fill="#330066"/>
<path d="M122.884 150.17H112.544V200.89H122.884V150.17Z" fill="#E9CCFF"/>
<path d="M140.214 167.89V200.39H130.874V167.89H140.214Z" fill="#D399FF" stroke="#E9CCFF"/>
<path d="M158.054 158.09V200.39H148.714V158.09H158.054Z" fill="#D399FF" stroke="#E9CCFF"/>
<mask id="path-16-inside-1_602_3694" fill="white">
<path d="M166.584 201H105.204C105.071 201 104.944 200.947 104.851 200.854C104.757 200.76 104.704 200.633 104.704 200.5C104.704 200.367 104.757 200.24 104.851 200.146C104.944 200.053 105.071 200 105.204 200H166.584C166.717 200 166.844 200.053 166.938 200.146C167.031 200.24 167.084 200.367 167.084 200.5C167.082 200.632 167.028 200.757 166.935 200.851C166.842 200.944 166.716 200.997 166.584 201Z"/>
</mask>
<path d="M166.584 201H105.204C105.071 201 104.944 200.947 104.851 200.854C104.757 200.76 104.704 200.633 104.704 200.5C104.704 200.367 104.757 200.24 104.851 200.146C104.944 200.053 105.071 200 105.204 200H166.584C166.717 200 166.844 200.053 166.938 200.146C167.031 200.24 167.084 200.367 167.084 200.5C167.082 200.632 167.028 200.757 166.935 200.851C166.842 200.944 166.716 200.997 166.584 201Z" fill="#D399FF"/>
<path d="M167.084 200.5L168.084 200.519L168.084 200.51V200.5H167.084ZM166.584 201V200H105.204V201V202H166.584V201ZM105.204 201V200C105.337 200 105.464 200.053 105.558 200.146L104.851 200.854L104.143 201.561C104.425 201.842 104.806 202 105.204 202V201ZM104.851 200.854L105.558 200.146C105.651 200.24 105.704 200.367 105.704 200.5H104.704H103.704C103.704 200.898 103.862 201.279 104.143 201.561L104.851 200.854ZM104.704 200.5H105.704C105.704 200.633 105.651 200.76 105.558 200.854L104.851 200.146L104.143 199.439C103.862 199.721 103.704 200.102 103.704 200.5H104.704ZM104.851 200.146L105.558 200.854C105.464 200.947 105.337 201 105.204 201V200V199C104.806 199 104.425 199.158 104.143 199.439L104.851 200.146ZM105.204 200V201H166.584V200V199H105.204V200ZM166.584 200V201C166.452 201 166.324 200.947 166.231 200.854L166.938 200.146L167.645 199.439C167.363 199.158 166.982 199 166.584 199V200ZM166.938 200.146L166.231 200.854C166.137 200.76 166.084 200.633 166.084 200.5H167.084H168.084C168.084 200.102 167.926 199.721 167.645 199.439L166.938 200.146ZM167.084 200.5L166.084 200.481C166.087 200.354 166.138 200.233 166.228 200.144L166.935 200.851L167.642 201.558C167.918 201.282 168.076 200.91 168.084 200.519L167.084 200.5ZM166.935 200.851L166.228 200.144C166.317 200.054 166.438 200.003 166.565 200L166.584 201L166.604 202C166.994 201.992 167.366 201.834 167.642 201.558L166.935 200.851Z" fill="#E9CCFF" mask="url(#path-16-inside-1_602_3694)"/>
<path d="M53.5732 225.32L87.7032 145.04L159.033 164.27L116.533 259.86L53.5732 225.32Z" fill="white" stroke="#D399FF"/>
<path d="M116.533 260.36C116.449 260.347 116.37 260.312 116.303 260.26L53.3034 225.76C53.1955 225.701 53.1135 225.603 53.0729 225.487C53.0323 225.371 53.036 225.244 53.0834 225.13L87.2134 144.84C87.2618 144.73 87.348 144.642 87.4563 144.59C87.5646 144.539 87.6878 144.528 87.8034 144.56L159.133 163.79C159.203 163.806 159.268 163.838 159.323 163.883C159.379 163.928 159.423 163.985 159.453 164.05C159.485 164.115 159.502 164.187 159.502 164.26C159.502 164.333 159.485 164.405 159.453 164.47L116.953 260.06C116.925 260.123 116.883 260.18 116.832 260.227C116.78 260.273 116.719 260.308 116.653 260.33C116.615 260.346 116.575 260.356 116.533 260.36ZM54.2134 225.1L116.303 259.16L158.303 164.6L87.9533 145.6L54.2134 225.1Z" fill="#330066"/>
<path d="M106.308 155.255L72.1836 229.638C72.1826 229.638 72.1817 229.639 72.1807 229.639L106.308 155.25C106.308 155.252 106.308 155.253 106.308 155.255Z" fill="#D399FF" stroke="#E9CCFF"/>
<path d="M141.949 183.09H141.939L86.5098 166.112L86.5039 166.11C86.5057 166.109 86.5078 166.109 86.5098 166.109L141.949 183.09Z" fill="#D399FF" stroke="#E9CCFF"/>
<path d="M93.1084 151.415V151.418L92.9482 151.774L58.6787 227.524L58.4619 228.003L58.9512 228.196L112.951 249.366L113.381 249.534C113.38 249.535 113.38 249.538 113.378 249.539C113.375 249.541 113.372 249.543 113.368 249.543L113.35 249.544L58.4287 228.045C58.4265 228.039 58.4269 228.033 58.4287 228.027L93.1094 151.416L93.1084 151.415Z" fill="#D399FF" stroke="#E9CCFF"/>
<path d="M70.4942 170.14C70.4942 170.14 73.7742 157.26 79.0742 155.07C84.3742 152.88 93.7142 152.21 91.0742 154.79C88.4342 157.37 81.0042 158.87 81.0042 158.87C81.0042 158.87 83.9442 175.48 77.1842 177.31C70.4242 179.14 70.4942 170.14 70.4942 170.14Z" fill="white"/>
<path d="M75.4939 178.06C74.4741 178.079 73.4775 177.755 72.6639 177.14C69.9939 175.08 69.9939 170.34 69.9939 170.14C69.989 170.1 69.989 170.06 69.9939 170.02C70.1339 169.49 73.4039 156.88 78.8739 154.62C82.9339 152.94 90.7439 151.77 91.8739 153.48C92.0539 153.76 92.2439 154.35 91.4239 155.16C89.0839 157.46 83.2839 158.89 81.5739 159.27C82.0239 162.1 83.8439 176.03 77.3139 177.81C76.7203 177.97 76.1087 178.054 75.4939 178.06ZM70.9939 170.2C70.9939 170.73 71.1439 174.7 73.2839 176.35C73.8298 176.726 74.4579 176.966 75.1156 177.049C75.7732 177.133 76.4413 177.058 77.0639 176.83C83.3039 175.14 80.5539 159.12 80.5239 158.96C80.5029 158.832 80.5315 158.7 80.6039 158.593C80.6764 158.485 80.7873 158.409 80.9139 158.38C80.9939 158.38 88.2439 156.88 90.7339 154.44C91.0339 154.14 91.0439 154.01 91.0439 154C90.6039 153.23 84.0439 153.56 79.2639 155.54C74.4839 157.52 71.2439 169.26 70.9939 170.2Z" fill="#330066"/>
<path d="M30.1732 144.67C23.6132 143.08 19.7932 135.67 17.7732 129.81C15.4832 123.1 12.9132 117.64 15.2732 110.39C15.8132 108.72 16.7332 106.96 18.3832 106.39C18.7963 106.309 19.19 106.149 19.5432 105.92C19.8162 105.619 20.0088 105.255 20.1032 104.86C23.5332 95.42 34.6032 94.57 42.9932 95.43C47.8532 95.93 54.2232 97.79 55.9932 102.66C59.2332 111.66 57.4432 121.66 52.8032 129.82C48.4432 137.49 39.9832 147.05 30.1732 144.67Z" fill="white"/>
<path d="M33.1936 145.53C32.1362 145.529 31.0825 145.404 30.0536 145.16C23.2336 143.5 19.3536 135.99 17.3036 129.98C17.0436 129.21 16.7736 128.45 16.5136 127.71C14.4436 121.87 12.6536 116.81 14.8036 110.26C15.5636 107.92 16.7136 106.47 18.2236 105.96L18.5536 105.86C18.7887 105.807 19.0123 105.712 19.2136 105.58C19.4007 105.364 19.5343 105.107 19.6036 104.83V104.73C23.1236 95.04 34.2736 94.08 43.0136 94.97C46.3436 95.32 54.3236 96.74 56.4236 102.53C59.4936 111.05 58.3236 121.1 53.2036 130.11C48.7836 137.89 41.4136 145.53 33.1936 145.53ZM38.1336 95.68C30.8736 95.68 23.2636 97.68 20.5736 105.04V105.14C20.4867 105.556 20.2759 105.937 19.9689 106.231C19.662 106.526 19.2732 106.72 18.8536 106.79C18.7636 106.79 18.6636 106.79 18.5736 106.88C17.3836 107.28 16.4436 108.51 15.7836 110.54C13.7836 116.8 15.4736 121.7 17.4836 127.38L18.2836 129.65C20.2836 135.43 23.9436 142.65 30.2836 144.18C39.1936 146.35 47.5336 138.06 52.3536 129.58C57.3536 120.83 58.4736 111.08 55.5036 102.84C53.6036 97.58 46.0736 96.26 42.9236 95.94C41.3325 95.7713 39.7337 95.6845 38.1336 95.68Z" fill="#330066"/>
<path d="M58.4639 124.64C58.4639 124.64 65.8439 132.91 64.8639 134.99C63.8839 137.07 59.5439 136.42 59.5439 136.42" fill="white"/>
<path d="M61.0232 137.01C60.5049 137.011 59.9871 136.978 59.4732 136.91C59.3406 136.89 59.2213 136.818 59.1416 136.711C59.0619 136.603 59.0283 136.468 59.0482 136.335C59.0681 136.202 59.1399 136.083 59.2477 136.003C59.3555 135.924 59.4906 135.89 59.6232 135.91C60.7232 136.08 63.7432 136.19 64.4132 134.77C64.9332 133.67 61.5332 128.77 58.0932 124.96C58.0464 124.914 58.0092 124.858 57.9838 124.797C57.9584 124.736 57.9453 124.671 57.9453 124.605C57.9453 124.539 57.9584 124.474 57.9838 124.413C58.0092 124.352 58.0464 124.296 58.0932 124.25C58.1867 124.158 58.3123 124.107 58.4432 124.107C58.5741 124.107 58.6997 124.158 58.7932 124.25C60.0632 125.68 66.3432 132.89 65.2832 135.15C64.6032 136.73 62.5032 137.01 61.0232 137.01Z" fill="#330066"/>
<path d="M55.4139 112.73C59.7239 115.31 59.5739 122.12 60.1639 126.45C61.0039 132.53 61.7005 138.633 62.2539 144.76C62.6039 148.64 52.6339 150.17 50.7139 149.27L54.4839 164.27L32.3539 159.27L30.4639 141.6C30.4639 141.6 37.0639 140.69 39.8239 132.27C42.5839 123.85 40.6639 111.81 40.6639 111.81C40.6639 111.81 51.2139 110.2 55.4139 112.73Z" fill="white"/>
<path d="M54.4839 164.77H54.3739L32.2439 159.77C32.1414 159.746 32.049 159.691 31.9791 159.612C31.9093 159.533 31.8656 159.435 31.8539 159.33L29.9639 141.66C29.9497 141.53 29.9867 141.4 30.067 141.298C30.1474 141.195 30.2647 141.127 30.3939 141.11C30.6539 141.11 36.7239 140.11 39.3939 132.11C42.0839 123.9 40.2439 112 40.2239 111.88C40.2132 111.814 40.2157 111.746 40.2311 111.681C40.2465 111.616 40.2747 111.554 40.3139 111.5C40.3942 111.393 40.5123 111.322 40.6439 111.3C41.0739 111.24 51.4139 109.7 55.7239 112.3C59.5239 114.58 60.0339 119.81 60.4539 124.02C60.5339 124.86 60.6139 125.65 60.7139 126.38C61.5439 132.44 62.2439 138.61 62.8039 144.71C62.826 145.32 62.6777 145.923 62.3757 146.453C62.0736 146.983 61.6297 147.418 61.0939 147.71C58.6139 149.46 53.7739 150.25 51.4439 149.95L55.0139 164.15C55.0332 164.233 55.0314 164.319 55.0087 164.402C54.986 164.484 54.9431 164.559 54.8839 164.62C54.8338 164.675 54.7715 164.717 54.7019 164.743C54.6324 164.769 54.5577 164.778 54.4839 164.77ZM32.8039 158.86L53.8039 163.6L50.2339 149.39C50.2116 149.298 50.2157 149.202 50.2458 149.112C50.2759 149.023 50.3308 148.944 50.404 148.884C50.4773 148.824 50.5659 148.787 50.6597 148.775C50.7535 148.764 50.8486 148.78 50.9339 148.82C52.1839 149.4 57.8239 148.76 60.4839 146.9C60.8676 146.699 61.1893 146.397 61.4148 146.027C61.6402 145.657 61.7609 145.233 61.7639 144.8C61.2139 138.72 60.5139 132.56 59.6839 126.51C59.5739 125.78 59.4939 124.97 59.4139 124.12C59.0239 120.12 58.5339 115.12 55.1639 113.12C51.6739 111.02 43.3539 111.92 41.2439 112.19C41.5739 114.6 42.7839 124.83 40.3039 132.39C37.8839 139.78 32.6339 141.57 31.0139 141.96L32.8039 158.86Z" fill="#330066"/>
<path d="M61.4432 140.26C61.4432 140.26 55.4432 140.59 53.5732 132.56L61.4432 140.26Z" fill="white"/>
<path d="M61.3941 140.74C60.6441 140.74 54.9141 140.48 53.0941 132.66C53.079 132.594 53.077 132.526 53.0882 132.46C53.0993 132.393 53.1235 132.33 53.1592 132.273C53.195 132.216 53.2416 132.166 53.2965 132.127C53.3514 132.088 53.4135 132.06 53.4791 132.045C53.5448 132.03 53.6128 132.028 53.6792 132.039C53.7457 132.05 53.8092 132.074 53.8663 132.11C53.9235 132.146 53.973 132.193 54.012 132.247C54.0511 132.302 54.079 132.364 54.0941 132.43C55.8441 139.96 61.3841 139.75 61.4541 139.74C61.5198 139.737 61.5853 139.748 61.647 139.77C61.7087 139.793 61.7653 139.828 61.8136 139.872C61.8619 139.917 61.901 139.97 61.9285 140.03C61.956 140.09 61.9715 140.154 61.9741 140.22C61.9782 140.285 61.9691 140.351 61.9476 140.412C61.926 140.474 61.8924 140.531 61.8486 140.579C61.8048 140.627 61.7518 140.667 61.6926 140.694C61.6334 140.722 61.5694 140.737 61.5041 140.74H61.3941Z" fill="#330066"/>
<path d="M47.374 130.26C46.9793 128.766 46.18 127.409 45.064 126.34C44.3209 125.404 43.445 124.582 42.464 123.9C41.968 123.561 41.4021 123.339 40.8083 123.249C40.2145 123.159 39.6081 123.204 39.034 123.38C38.5449 123.582 38.104 123.885 37.7403 124.269C37.3767 124.654 37.0985 125.11 36.924 125.61C36.5881 126.614 36.4788 127.679 36.604 128.73C36.8352 131.033 37.6685 133.234 39.0202 135.112C40.3718 136.99 42.1942 138.479 44.304 139.43L43.914 139.12" fill="white"/>
<path d="M44.3041 139.89C44.2382 139.905 44.1699 139.905 44.1041 139.89C41.9176 138.897 40.0289 137.349 38.6255 135.4C37.2221 133.451 36.3529 131.169 36.1041 128.78C35.9688 127.65 36.0919 126.505 36.4641 125.43C36.6602 124.863 36.976 124.344 37.3901 123.909C37.8041 123.474 38.3068 123.134 38.8641 122.91C39.5083 122.708 40.1897 122.653 40.8579 122.75C41.5261 122.847 42.1639 123.093 42.7241 123.47C43.7479 124.182 44.6639 125.037 45.4441 126.01C46.6224 127.148 47.4603 128.592 47.8641 130.18C47.8746 130.246 47.872 130.313 47.8566 130.377C47.8412 130.442 47.8132 130.503 47.7742 130.557C47.7352 130.611 47.686 130.656 47.6293 130.691C47.5727 130.726 47.5097 130.749 47.4441 130.76C47.3784 130.77 47.3113 130.768 47.2466 130.753C47.1819 130.737 47.1209 130.709 47.0671 130.67C47.0132 130.631 46.9676 130.582 46.9327 130.525C46.8979 130.469 46.8746 130.406 46.8641 130.34C46.4804 128.941 45.7234 127.672 44.6741 126.67C43.9763 125.744 43.1398 124.931 42.1941 124.26C41.7619 123.96 41.268 123.762 40.7487 123.679C40.2294 123.596 39.6981 123.63 39.1941 123.78C38.77 123.955 38.3883 124.219 38.0744 124.553C37.7605 124.888 37.5217 125.286 37.3741 125.72C37.0608 126.653 36.9617 127.644 37.0841 128.62C37.2977 130.699 38.0198 132.693 39.1865 134.426C40.3532 136.16 41.9288 137.579 43.7741 138.56C43.8503 138.544 43.9291 138.545 44.005 138.562C44.081 138.579 44.1523 138.613 44.2141 138.66L44.5941 138.97C44.6897 139.045 44.7547 139.153 44.7768 139.272C44.7989 139.392 44.7766 139.516 44.7141 139.62C44.6732 139.695 44.6145 139.759 44.5429 139.806C44.4714 139.854 44.3894 139.882 44.3041 139.89Z" fill="#330066"/>
<path d="M50.7138 149.26C50.7138 149.26 45.3038 148.41 42.3838 145.21C42.3838 145.21 43.7738 153.21 52.0938 154.78L50.7138 149.26Z" fill="#330066"/>
<path d="M52.0935 155.26H52.0035C43.4435 153.69 41.9035 145.37 41.8835 145.26C41.866 145.152 41.8838 145.041 41.9342 144.944C41.9846 144.846 42.065 144.768 42.1635 144.72C42.259 144.673 42.3673 144.658 42.4719 144.678C42.5766 144.698 42.6719 144.751 42.7435 144.83C45.5135 147.83 50.7435 148.72 50.7435 148.73C50.8406 148.745 50.9313 148.787 51.0042 148.853C51.0772 148.919 51.1291 149.005 51.1535 149.1L52.5435 154.62C52.5624 154.701 52.5613 154.785 52.5404 154.865C52.5195 154.945 52.4794 155.019 52.4235 155.08C52.3831 155.13 52.3331 155.172 52.2765 155.203C52.2198 155.234 52.1577 155.253 52.0935 155.26ZM43.3035 146.76C43.9215 148.568 44.9846 150.192 46.3949 151.482C47.8052 152.772 49.5173 153.686 51.3735 154.14L50.3035 149.71C47.7869 149.236 45.4004 148.23 43.3035 146.76Z" fill="#330066"/>
<path d="M55.2587 120.953C55.2873 119.738 54.9256 118.744 54.4507 118.733C53.9759 118.722 53.5678 119.697 53.5391 120.912C53.5105 122.127 53.8722 123.121 54.3471 123.132C54.8219 123.143 55.23 122.167 55.2587 120.953Z" fill="#330066"/>
<path d="M125.144 207.87C131.904 199.81 139.474 189.56 134.624 178.44C134.154 177.38 133.314 176.23 132.164 176.31C131.675 176.389 131.21 176.577 130.804 176.86L126.604 179.42C126.734 178.27 125.284 177.42 124.164 177.77C123.082 178.201 122.179 178.987 121.604 180C117.274 186.17 114.464 192 114.714 199.63" fill="white"/>
<path d="M125.134 208.37C125.017 208.368 124.904 208.326 124.814 208.25C124.763 208.209 124.721 208.157 124.691 208.099C124.66 208.041 124.642 207.978 124.636 207.913C124.631 207.847 124.638 207.782 124.658 207.719C124.679 207.657 124.711 207.6 124.754 207.55C131.754 199.2 138.854 189.39 134.164 178.64C133.964 178.19 133.264 176.74 132.164 176.81C131.757 176.886 131.371 177.05 131.034 177.29L126.834 179.85C126.755 179.901 126.663 179.928 126.569 179.928C126.475 179.928 126.383 179.901 126.304 179.85C126.226 179.801 126.163 179.73 126.123 179.648C126.082 179.565 126.065 179.472 126.074 179.38C126.085 179.233 126.059 179.085 125.998 178.95C125.936 178.816 125.842 178.699 125.724 178.61C125.53 178.447 125.301 178.331 125.055 178.27C124.808 178.21 124.552 178.206 124.304 178.26C123.34 178.654 122.534 179.358 122.014 180.26C118.324 185.51 114.954 191.48 115.214 199.58C115.217 199.646 115.206 199.711 115.184 199.773C115.161 199.835 115.126 199.891 115.082 199.94C115.037 199.988 114.984 200.027 114.924 200.054C114.864 200.082 114.8 200.097 114.734 200.1C114.603 200.1 114.476 200.051 114.38 199.962C114.283 199.873 114.224 199.751 114.214 199.62C113.944 191.22 117.414 185.07 121.214 179.69C121.848 178.571 122.852 177.708 124.054 177.25C124.465 177.15 124.894 177.149 125.306 177.246C125.718 177.344 126.101 177.537 126.424 177.81C126.674 178.017 126.869 178.281 126.994 178.58L130.564 176.41C131.034 176.08 131.575 175.864 132.144 175.78C133.304 175.69 134.384 176.58 135.144 178.21C140.464 190.43 130.784 201.96 125.584 208.21C125.528 208.272 125.458 208.319 125.379 208.347C125.301 208.375 125.216 208.383 125.134 208.37Z" fill="#330066"/>
<path d="M121.604 186.76L128.864 164.26L131.124 164.9L126.554 187.15C126.554 187.15 123.304 190.26 121.604 186.76Z" fill="#330066"/>
<path d="M123.824 188.89C123.674 188.905 123.523 188.905 123.374 188.89C122.879 188.783 122.418 188.557 122.031 188.231C121.644 187.905 121.343 187.489 121.154 187.02C121.104 186.898 121.104 186.762 121.154 186.64L128.424 164.11C128.441 164.047 128.47 163.989 128.511 163.938C128.551 163.888 128.601 163.846 128.658 163.815C128.715 163.784 128.778 163.765 128.842 163.759C128.907 163.753 128.972 163.76 129.034 163.78L131.294 164.42C131.416 164.453 131.52 164.532 131.585 164.64C131.65 164.748 131.671 164.877 131.644 165L127.044 187.26C127.021 187.355 126.973 187.441 126.904 187.51C126.063 188.306 124.977 188.792 123.824 188.89ZM122.144 186.71C122.269 187 122.461 187.257 122.704 187.458C122.948 187.66 123.235 187.801 123.544 187.87C124.494 187.881 125.412 187.522 126.104 186.87L130.544 165.26L129.194 164.87L122.144 186.71Z" fill="#330066"/>
<path d="M112.584 194.63L93.7137 229.26C93.7137 229.26 88.1737 170.11 75.0037 161.56C61.8337 153.01 38.4737 152.56 18.6337 162.18C2.81368 169.82 -2.25632 244.85 0.883676 276.02H80.1137L79.3537 262.26C79.3537 262.26 84.2337 276.38 98.5037 272.96C112.774 269.54 129.434 202.5 129.434 202.5L112.584 194.63Z" fill="#A733FF"/>
<path d="M79.3541 262.71C79.2706 262.709 79.1887 262.687 79.1154 262.647C79.0422 262.607 78.98 262.55 78.9341 262.48C69.9341 249.03 64.6841 209.61 64.4641 207.93C64.4471 207.799 64.4828 207.666 64.5634 207.561C64.644 207.456 64.7629 207.387 64.8941 207.37C65.0249 207.356 65.1562 207.392 65.2606 207.472C65.3649 207.553 65.4343 207.67 65.4541 207.8C65.4541 208.21 70.9241 248.67 79.7741 261.93C79.8465 262.04 79.8724 262.175 79.8462 262.304C79.8199 262.433 79.7437 262.547 79.6341 262.62C79.5522 262.678 79.4545 262.709 79.3541 262.71Z" fill="#330066"/>
<path d="M177.144 128.73C177.144 137.365 180.574 145.647 186.68 151.753C192.786 157.86 201.068 161.29 209.704 161.29C218.339 161.29 226.621 157.86 232.727 151.753C238.833 145.647 242.264 137.365 242.264 128.73H209.704V96.17C201.068 96.17 192.786 99.6004 186.68 105.707C180.574 111.813 177.144 120.095 177.144 128.73Z" fill="#FFD700"/>
<path d="M215.464 91.8658C223.788 91.9955 231.744 95.3572 237.641 101.254C243.537 107.15 246.899 115.106 247.028 123.43H215.464V91.8658Z" fill="#D399FF" stroke="#E9CCFF"/>
<path d="M255.554 212.62H234.554V231.08H255.554V212.62Z" fill="#E9CCFF"/>
<path d="M245.514 211.21V213.92H244.073V211.21H245.514Z" fill="#D399FF" stroke="#E9CCFF"/>
<path d="M244.813 218.57H238.443C238.312 218.567 238.186 218.514 238.093 218.421C237.999 218.328 237.946 218.202 237.943 218.07C237.943 217.937 237.996 217.81 238.09 217.716C238.184 217.623 238.311 217.57 238.443 217.57H244.813C244.946 217.57 245.073 217.623 245.167 217.716C245.261 217.81 245.313 217.937 245.313 218.07C245.311 218.202 245.257 218.328 245.164 218.421C245.071 218.514 244.945 218.567 244.813 218.57Z" fill="white"/>
<path d="M249.693 222.53H238.443C238.312 222.527 238.186 222.474 238.093 222.381C237.999 222.288 237.946 222.162 237.943 222.03C237.943 221.897 237.996 221.77 238.09 221.676C238.184 221.583 238.311 221.53 238.443 221.53H249.693C249.826 221.53 249.953 221.583 250.047 221.676C250.141 221.77 250.193 221.897 250.193 222.03C250.191 222.162 250.137 222.288 250.044 222.381C249.951 222.474 249.825 222.527 249.693 222.53Z" fill="white"/>
<path d="M252.303 218.69H247.613C247.481 218.69 247.354 218.637 247.26 218.544C247.166 218.45 247.113 218.323 247.113 218.19C247.113 218.057 247.166 217.93 247.26 217.836C247.354 217.743 247.481 217.69 247.613 217.69H252.303C252.436 217.69 252.563 217.743 252.657 217.836C252.751 217.93 252.803 218.057 252.803 218.19C252.803 218.323 252.751 218.45 252.657 218.544C252.563 218.637 252.436 218.69 252.303 218.69Z" fill="white"/>
<path d="M162.754 100.26H151.654C151.592 100.261 151.531 100.25 151.474 100.228C151.418 100.205 151.366 100.172 151.322 100.129C151.278 100.086 151.243 100.035 151.22 99.9783C151.196 99.9219 151.184 99.8612 151.184 99.8C151.186 99.6771 151.237 99.5601 151.325 99.4741C151.413 99.3881 151.531 99.3399 151.654 99.34H162.754C162.875 99.3425 162.99 99.3918 163.076 99.4775C163.162 99.5632 163.211 99.6788 163.214 99.8C163.214 99.8604 163.202 99.9202 163.179 99.976C163.155 100.032 163.122 100.083 163.079 100.125C163.036 100.168 162.985 100.202 162.93 100.225C162.874 100.248 162.814 100.26 162.754 100.26Z" fill="#D399FF"/>
<path d="M166.933 100.26H164.823C164.763 100.261 164.702 100.25 164.646 100.228C164.589 100.205 164.538 100.171 164.495 100.128C164.452 100.085 164.418 100.034 164.396 99.9776C164.373 99.9212 164.362 99.8607 164.363 99.8C164.363 99.678 164.412 99.561 164.498 99.4747C164.584 99.3884 164.701 99.34 164.823 99.34H166.933C167.055 99.3425 167.17 99.3918 167.256 99.4775C167.342 99.5632 167.391 99.6788 167.393 99.8C167.393 99.922 167.345 100.039 167.259 100.125C167.172 100.212 167.055 100.26 166.933 100.26Z" fill="#D399FF"/>
<path d="M167.924 106.89H151.554C151.433 106.887 151.317 106.838 151.231 106.752C151.146 106.667 151.096 106.551 151.094 106.43C151.094 106.308 151.142 106.191 151.228 106.105C151.315 106.018 151.432 105.97 151.554 105.97H167.924C167.985 105.969 168.045 105.98 168.101 106.002C168.158 106.025 168.209 106.059 168.252 106.102C168.295 106.145 168.329 106.196 168.352 106.252C168.374 106.309 168.385 106.369 168.384 106.43C168.384 106.552 168.335 106.669 168.249 106.755C168.163 106.841 168.046 106.89 167.924 106.89Z" fill="#D399FF"/>
<path d="M156.924 113.56H151.614C151.502 113.544 151.4 113.488 151.326 113.402C151.252 113.317 151.212 113.208 151.212 113.095C151.212 112.982 151.252 112.873 151.326 112.788C151.4 112.702 151.502 112.646 151.614 112.63H156.924C157.035 112.646 157.137 112.702 157.211 112.788C157.285 112.873 157.325 112.982 157.325 113.095C157.325 113.208 157.285 113.317 157.211 113.402C157.137 113.488 157.035 113.544 156.924 113.56Z" fill="#D399FF"/>
<path d="M169.674 113.32H160.214C160.092 113.32 159.975 113.272 159.889 113.185C159.802 113.099 159.754 112.982 159.754 112.86C159.753 112.799 159.764 112.739 159.786 112.682C159.809 112.626 159.843 112.575 159.886 112.532C159.929 112.489 159.98 112.455 160.036 112.432C160.093 112.41 160.153 112.399 160.214 112.4H169.674C169.796 112.4 169.913 112.448 169.999 112.535C170.086 112.621 170.134 112.738 170.134 112.86C170.131 112.981 170.082 113.097 169.996 113.182C169.911 113.268 169.795 113.317 169.674 113.32Z" fill="#D399FF"/>
<path d="M234.014 175.49H180.014C179.881 175.49 179.754 175.437 179.66 175.344C179.566 175.25 179.514 175.123 179.514 174.99C179.514 174.857 179.566 174.73 179.66 174.636C179.754 174.543 179.881 174.49 180.014 174.49H234.014C234.146 174.49 234.273 174.543 234.367 174.636C234.461 174.73 234.514 174.857 234.514 174.99C234.514 175.123 234.461 175.25 234.367 175.344C234.273 175.437 234.146 175.49 234.014 175.49Z" fill="#D399FF"/>
<path d="M222.374 187.47H180.834C180.701 187.47 180.574 187.417 180.48 187.324C180.387 187.23 180.334 187.103 180.334 186.97C180.334 186.837 180.387 186.71 180.48 186.616C180.574 186.523 180.701 186.47 180.834 186.47H222.374C222.507 186.47 222.634 186.523 222.728 186.616C222.821 186.71 222.874 186.837 222.874 186.97C222.874 187.103 222.821 187.23 222.728 187.324C222.634 187.417 222.507 187.47 222.374 187.47Z" fill="#D399FF"/>
<path d="M228.193 199.02H180.033C179.901 199.017 179.776 198.964 179.682 198.871C179.589 198.778 179.536 198.652 179.533 198.52C179.533 198.387 179.586 198.26 179.68 198.166C179.773 198.073 179.901 198.02 180.033 198.02H228.193C228.326 198.02 228.453 198.073 228.547 198.166C228.641 198.26 228.693 198.387 228.693 198.52C228.693 198.653 228.641 198.78 228.547 198.874C228.453 198.967 228.326 199.02 228.193 199.02Z" fill="#D399FF"/>
<path d="M235.863 186.9H228.193C228.061 186.9 227.934 186.847 227.84 186.754C227.746 186.66 227.693 186.533 227.693 186.4C227.693 186.267 227.746 186.14 227.84 186.046C227.934 185.953 228.061 185.9 228.193 185.9H235.863C235.996 185.9 236.123 185.953 236.217 186.046C236.311 186.14 236.363 186.267 236.363 186.4C236.363 186.533 236.311 186.66 236.217 186.754C236.123 186.847 235.996 186.9 235.863 186.9Z" fill="#D399FF"/>
<mask id="path-60-inside-2_602_3694" fill="white">
<path d="M151.683 137.56H104.033C103.901 137.56 103.773 137.507 103.68 137.414C103.586 137.32 103.533 137.193 103.533 137.06V97.98C103.533 97.8474 103.586 97.7202 103.68 97.6264C103.773 97.5327 103.901 97.48 104.033 97.48C104.166 97.48 104.293 97.5327 104.387 97.6264C104.481 97.7202 104.533 97.8474 104.533 97.98V136.56H151.683C151.816 136.56 151.943 136.613 152.037 136.706C152.131 136.8 152.183 136.927 152.183 137.06C152.183 137.193 152.131 137.32 152.037 137.414C151.943 137.507 151.816 137.56 151.683 137.56Z"/>
</mask>
<path d="M151.683 137.56H104.033C103.901 137.56 103.773 137.507 103.68 137.414C103.586 137.32 103.533 137.193 103.533 137.06V97.98C103.533 97.8474 103.586 97.7202 103.68 97.6264C103.773 97.5327 103.901 97.48 104.033 97.48C104.166 97.48 104.293 97.5327 104.387 97.6264C104.481 97.7202 104.533 97.8474 104.533 97.98V136.56H151.683C151.816 136.56 151.943 136.613 152.037 136.706C152.131 136.8 152.183 136.927 152.183 137.06C152.183 137.193 152.131 137.32 152.037 137.414C151.943 137.507 151.816 137.56 151.683 137.56Z" fill="#D399FF"/>
<path d="M104.533 136.56H103.533V137.56H104.533V136.56ZM151.683 137.56V136.56H104.033V137.56V138.56H151.683V137.56ZM104.033 137.56V136.56C104.166 136.56 104.293 136.613 104.387 136.706L103.68 137.414L102.973 138.121C103.254 138.402 103.635 138.56 104.033 138.56V137.56ZM103.68 137.414L104.387 136.706C104.481 136.8 104.533 136.927 104.533 137.06H103.533H102.533C102.533 137.458 102.691 137.839 102.973 138.121L103.68 137.414ZM103.533 137.06H104.533V97.98H103.533H102.533V137.06H103.533ZM103.533 97.98H104.533C104.533 98.1126 104.481 98.2398 104.387 98.3335L103.68 97.6264L102.973 96.9193C102.691 97.2006 102.533 97.5821 102.533 97.98H103.533ZM103.68 97.6264L104.387 98.3335C104.293 98.4273 104.166 98.48 104.033 98.48V97.48V96.48C103.635 96.48 103.254 96.638 102.973 96.9193L103.68 97.6264ZM104.033 97.48V98.48C103.901 98.48 103.773 98.4273 103.68 98.3335L104.387 97.6264L105.094 96.9193C104.813 96.638 104.431 96.48 104.033 96.48V97.48ZM104.387 97.6264L103.68 98.3335C103.586 98.2397 103.533 98.1125 103.533 97.98H104.533H105.533C105.533 97.5822 105.375 97.2007 105.094 96.9193L104.387 97.6264ZM104.533 97.98H103.533V136.56H104.533H105.533V97.98H104.533ZM104.533 136.56V137.56H151.683V136.56V135.56H104.533V136.56ZM151.683 136.56V137.56C151.551 137.56 151.423 137.507 151.33 137.414L152.037 136.706L152.744 135.999C152.463 135.718 152.081 135.56 151.683 135.56V136.56ZM152.037 136.706L151.33 137.414C151.236 137.32 151.183 137.193 151.183 137.06H152.183H153.183C153.183 136.662 153.025 136.281 152.744 135.999L152.037 136.706ZM152.183 137.06H151.183C151.183 136.927 151.236 136.8 151.33 136.706L152.037 137.414L152.744 138.121C153.025 137.839 153.183 137.458 153.183 137.06H152.183ZM152.037 137.414L151.33 136.706C151.423 136.613 151.551 136.56 151.683 136.56V137.56V138.56C152.081 138.56 152.463 138.402 152.744 138.121L152.037 137.414Z" fill="#E9CCFF" mask="url(#path-60-inside-2_602_3694)"/>
<path d="M124.053 115.619C124.054 115.618 124.056 115.619 124.058 115.619C124.059 115.619 124.06 115.619 124.062 115.62L124.064 115.623L128.47 122.675L128.818 123.234L128.785 123.271L124.368 116.205L124.022 115.652L123.578 116.13L104.071 137.06L104.07 137.061L104.06 137.06L124.05 115.622C124.051 115.621 124.051 115.619 124.053 115.619Z" fill="#D399FF" stroke="#E9CCFF"/>
</svg>
