<svg width="304" height="255" viewBox="0 0 304 255" fill="none" xmlns="http://www.w3.org/2000/svg">
<path d="M300.47 223.37H0.5C0.367392 223.37 0.240214 223.317 0.146446 223.224C0.052678 223.13 0 223.003 0 222.87C0 222.737 0.052678 222.61 0.146446 222.516C0.240214 222.423 0.367392 222.37 0.5 222.37H300.5C300.632 222.373 300.757 222.426 300.851 222.519C300.944 222.612 300.997 222.738 301 222.87C301 222.938 300.986 223.006 300.959 223.069C300.932 223.131 300.893 223.188 300.843 223.235C300.793 223.281 300.735 223.318 300.671 223.341C300.606 223.364 300.538 223.374 300.47 223.37Z" fill="#D399FF"/>
<path d="M276.1 242.65H94.2197L121.41 30.5H303.3L276.1 242.65Z" fill="white"/>
<path d="M276.11 243.2H94.2201C94.1482 243.201 94.0771 243.186 94.0115 243.156C93.9459 243.127 93.8875 243.084 93.8401 243.03C93.7943 242.977 93.76 242.915 93.7393 242.848C93.7187 242.78 93.7121 242.71 93.7201 242.64L120.9 30.44C120.915 30.3198 120.972 30.2089 121.062 30.128C121.152 30.047 121.269 30.0016 121.39 30H303.3C303.372 29.9993 303.443 30.0142 303.509 30.0435C303.575 30.0729 303.633 30.1162 303.681 30.1703C303.728 30.2244 303.764 30.2881 303.784 30.3571C303.805 30.4261 303.81 30.4987 303.8 30.57L276.6 242.71C276.598 242.839 276.545 242.962 276.454 243.054C276.362 243.145 276.239 243.197 276.11 243.2ZM94.79 242.2H275.66L302.73 31H121.9L94.79 242.2Z" fill="#3A0066"/>
<path d="M276.9 56.34H161.6C161.027 56.355 160.458 56.2433 159.934 56.0129C159.41 55.7826 158.942 55.4392 158.566 55.0074C158.19 54.5756 157.913 54.066 157.757 53.515C157.6 52.964 157.567 52.3853 157.66 51.82L157.96 49.47C158.143 48.2382 158.755 47.1106 159.688 46.2856C160.621 45.4606 161.815 44.9912 163.06 44.96H278.35C278.922 44.9453 279.489 45.0569 280.013 45.2866C280.537 45.5164 281.003 45.8588 281.379 46.2895C281.756 46.7201 282.032 47.2284 282.19 47.7781C282.347 48.3279 282.381 48.9055 282.29 49.47L281.98 51.82C281.799 53.0503 281.191 54.1778 280.262 55.0043C279.333 55.8309 278.143 56.3038 276.9 56.34Z" fill="#E9CCFF"/>
<path d="M145.43 46.82H135.15C135.018 46.82 134.891 46.7673 134.797 46.6736C134.703 46.5798 134.65 46.4526 134.65 46.32C134.653 46.1882 134.706 46.0625 134.8 45.9693C134.893 45.8761 135.019 45.8226 135.15 45.82H145.43C145.562 45.8226 145.688 45.8761 145.781 45.9693C145.874 46.0625 145.928 46.1882 145.93 46.32C145.93 46.4526 145.878 46.5798 145.784 46.6736C145.69 46.7673 145.563 46.82 145.43 46.82Z" fill="#D399FF"/>
<path d="M144.9 51.33H134.57C134.438 51.33 134.311 51.2773 134.217 51.1836C134.123 51.0898 134.07 50.9626 134.07 50.83C134.07 50.6974 134.123 50.5702 134.217 50.4765C134.311 50.3827 134.438 50.33 134.57 50.33H144.9C145.033 50.33 145.16 50.3827 145.254 50.4765C145.348 50.5702 145.4 50.6974 145.4 50.83C145.4 50.9626 145.348 51.0898 145.254 51.1836C145.16 51.2773 145.033 51.33 144.9 51.33Z" fill="#D399FF"/>
<path d="M144.27 55.83H134C133.867 55.83 133.74 55.7773 133.646 55.6836C133.553 55.5898 133.5 55.4626 133.5 55.33C133.5 55.1974 133.553 55.0702 133.646 54.9765C133.74 54.8827 133.867 54.83 134 54.83H144.27C144.403 54.83 144.53 54.8827 144.624 54.9765C144.717 55.0702 144.77 55.1974 144.77 55.33C144.77 55.4626 144.717 55.5898 144.624 55.6836C144.53 55.7773 144.403 55.83 144.27 55.83Z" fill="#D399FF"/>
<path d="M145.43 46.82H135.15C135.018 46.82 134.891 46.7673 134.797 46.6736C134.703 46.5798 134.65 46.4526 134.65 46.32C134.653 46.1882 134.706 46.0625 134.8 45.9693C134.893 45.8761 135.019 45.8226 135.15 45.82H145.43C145.562 45.8226 145.688 45.8761 145.781 45.9693C145.874 46.0625 145.928 46.1882 145.93 46.32C145.93 46.4526 145.878 46.5798 145.784 46.6736C145.69 46.7673 145.563 46.82 145.43 46.82Z" stroke="#3A0066" stroke-linecap="round" stroke-linejoin="round"/>
<path d="M144.9 51.33H134.57C134.438 51.33 134.311 51.2773 134.217 51.1836C134.123 51.0898 134.07 50.9626 134.07 50.83C134.07 50.6974 134.123 50.5702 134.217 50.4765C134.311 50.3827 134.438 50.33 134.57 50.33H144.9C145.033 50.33 145.16 50.3827 145.254 50.4765C145.348 50.5702 145.4 50.6974 145.4 50.83C145.4 50.9626 145.348 51.0898 145.254 51.1836C145.16 51.2773 145.033 51.33 144.9 51.33Z" stroke="#3A0066" stroke-linecap="round" stroke-linejoin="round"/>
<path d="M144.27 55.83H134C133.867 55.83 133.74 55.7773 133.646 55.6836C133.553 55.5898 133.5 55.4626 133.5 55.33C133.5 55.1974 133.553 55.0702 133.646 54.9765C133.74 54.8827 133.867 54.83 134 54.83H144.27C144.403 54.83 144.53 54.8827 144.624 54.9765C144.717 55.0702 144.77 55.1974 144.77 55.33C144.77 55.4626 144.717 55.5898 144.624 55.6836C144.53 55.7773 144.403 55.83 144.27 55.83Z" stroke="#3A0066" stroke-linecap="round" stroke-linejoin="round"/>
<path d="M269.53 111.87H136.41C134.93 111.909 133.459 111.622 132.102 111.028C130.745 110.434 129.536 109.549 128.56 108.434C127.585 107.32 126.866 106.005 126.457 104.582C126.047 103.158 125.956 101.662 126.19 100.2L128.38 83.09C128.841 79.8839 130.421 76.9442 132.84 74.7904C135.26 72.6365 138.362 71.4073 141.6 71.32H274.73C276.211 71.2887 277.68 71.5839 279.034 72.1844C280.388 72.7849 281.593 73.6762 282.564 74.7948C283.535 75.9134 284.247 77.2321 284.651 78.657C285.055 80.082 285.14 81.5784 284.9 83.04L282.75 100.2C282.269 103.389 280.681 106.306 278.263 108.44C275.846 110.574 272.754 111.789 269.53 111.87Z" fill="white"/>
<path d="M269.53 112.37H136.41C134.866 112.401 133.335 112.098 131.919 111.482C130.504 110.866 129.238 109.951 128.21 108.8C127.187 107.616 126.432 106.224 125.997 104.721C125.562 103.217 125.457 101.638 125.69 100.09L127.9 82.9801C128.39 79.6662 130.032 76.6308 132.537 74.4071C135.042 72.1833 138.251 70.9133 141.6 70.8201H274.73C276.268 70.7947 277.793 71.1003 279.203 71.7163C280.613 72.3323 281.873 73.2441 282.9 74.3901C283.922 75.5768 284.677 76.9701 285.112 78.475C285.546 79.9799 285.652 81.5609 285.42 83.1101L283.25 100.2C282.759 103.518 281.115 106.557 278.606 108.783C276.096 111.009 272.883 112.279 269.53 112.37ZM141.6 71.8201C138.494 71.9111 135.52 73.0923 133.198 75.1566C130.875 77.2208 129.354 80.0365 128.9 83.1101L126.68 100.2C126.47 101.606 126.565 103.042 126.958 104.408C127.352 105.775 128.034 107.04 128.96 108.12C129.896 109.163 131.046 109.992 132.332 110.549C133.617 111.107 135.009 111.38 136.41 111.35H269.53C272.638 111.266 275.617 110.089 277.943 108.026C280.27 105.963 281.795 103.146 282.25 100.07L284.45 82.9601C284.66 81.5521 284.565 80.1154 284.171 78.7473C283.778 77.3792 283.095 76.1115 282.17 75.0301C281.234 73.9887 280.086 73.1612 278.802 72.6038C277.518 72.0464 276.129 71.7723 274.73 71.8001L141.6 71.8201Z" fill="#3A0066"/>
<path d="M162.725 101.218C168.771 95.5461 169.629 86.6382 164.641 81.3213C159.654 76.0044 150.709 76.2919 144.663 81.9635C138.617 87.635 137.759 96.543 142.747 101.86C147.734 107.177 156.679 106.889 162.725 101.218Z" fill="#FFD700"/>
<path d="M163.32 87.12C163.211 87.2632 163.094 87.4001 162.97 87.53L151.02 98.11C150.61 98.47 150.33 98.48 150.02 98.11L144.9 91.95C144.62 91.6167 144.67 91.2833 145.05 90.95L146.72 89.61C147.07 89.33 147.36 89.33 147.62 89.61L150.68 93.2C151 93.57 151.27 93.58 151.68 93.2L160.9 85.08C161.3 84.73 161.58 84.73 161.9 85.08C162.22 85.43 162.72 86.01 163.12 86.48C163.21 86.6 163.27 86.75 163.35 86.88L163.32 87.12Z" fill="white"/>
<path d="M266.6 85.45H181.01C180.612 85.45 180.23 85.292 179.949 85.0107C179.668 84.7294 179.51 84.3478 179.51 83.95C179.51 83.5522 179.668 83.1707 179.949 82.8894C180.23 82.608 180.612 82.45 181.01 82.45H266.6C266.998 82.45 267.379 82.608 267.66 82.8894C267.942 83.1707 268.1 83.5522 268.1 83.95C268.1 84.3478 267.942 84.7294 267.66 85.0107C267.379 85.292 266.998 85.45 266.6 85.45Z" fill="#E9CCFF"/>
<path d="M247.3 99.88H179.16C178.762 99.88 178.381 99.722 178.1 99.4407C177.818 99.1594 177.66 98.7778 177.66 98.38C177.66 97.9822 177.818 97.6006 178.1 97.3193C178.381 97.038 178.762 96.88 179.16 96.88H247.3C247.698 96.88 248.08 97.038 248.361 97.3193C248.642 97.6006 248.8 97.9822 248.8 98.38C248.8 98.7778 248.642 99.1594 248.361 99.4407C248.08 99.722 247.698 99.88 247.3 99.88Z" fill="#E9CCFF"/>
<path d="M263.51 158.78H130.39C128.905 158.819 127.43 158.529 126.07 157.932C124.71 157.335 123.499 156.444 122.522 155.325C121.546 154.205 120.829 152.884 120.422 151.455C120.016 150.027 119.93 148.526 120.17 147.06L122.37 129.95C122.836 126.748 124.417 123.813 126.836 121.663C129.255 119.513 132.355 118.287 135.59 118.2H268.71C270.196 118.165 271.67 118.458 273.029 119.059C274.388 119.66 275.597 120.554 276.571 121.676C277.544 122.799 278.258 124.123 278.661 125.553C279.063 126.983 279.145 128.485 278.9 129.95L276.71 147.06C276.241 150.254 274.66 153.181 272.245 155.325C269.831 157.468 266.738 158.692 263.51 158.78Z" fill="white"/>
<path d="M263.52 159.28H130.39C128.849 159.311 127.32 159.009 125.906 158.394C124.493 157.78 123.229 156.868 122.2 155.72C121.178 154.533 120.424 153.14 119.989 151.635C119.554 150.13 119.449 148.549 119.68 147L121.9 129.89C122.395 126.575 124.041 123.541 126.55 121.319C129.059 119.097 132.27 117.83 135.62 117.74H268.71C270.252 117.709 271.783 118.011 273.198 118.625C274.613 119.24 275.879 120.152 276.91 121.3C277.93 122.488 278.683 123.882 279.118 125.386C279.553 126.891 279.659 128.471 279.43 130.02L277.23 147.13C276.737 150.444 275.093 153.478 272.586 155.7C270.079 157.922 266.869 159.189 263.52 159.28ZM135.59 118.74C132.488 118.835 129.518 120.016 127.199 122.078C124.879 124.14 123.358 126.951 122.9 130.02L120.71 147.13C120.5 148.538 120.595 149.975 120.988 151.343C121.382 152.711 122.064 153.979 122.99 155.06C123.926 156.1 125.075 156.926 126.359 157.482C127.643 158.037 129.031 158.31 130.43 158.28H263.52C266.628 158.194 269.606 157.016 271.932 154.954C274.258 152.891 275.783 150.075 276.24 147L278.43 129.89C278.645 128.482 278.552 127.044 278.158 125.675C277.765 124.306 277.08 123.039 276.15 121.96C275.215 120.919 274.066 120.093 272.782 119.537C271.498 118.982 270.109 118.71 268.71 118.74H135.59Z" fill="#3A0066"/>
<path d="M145.9 153.09C144.062 153.126 142.238 152.764 140.553 152.029C138.868 151.293 137.363 150.202 136.14 148.83C134.925 147.416 134.028 145.757 133.51 143.966C132.993 142.176 132.866 140.294 133.14 138.45C133.722 134.488 135.685 130.859 138.682 128.203C141.678 125.547 145.517 124.033 149.52 123.93C151.358 123.893 153.183 124.254 154.869 124.987C156.555 125.721 158.063 126.81 159.29 128.18C160.506 129.595 161.404 131.255 161.921 133.048C162.439 134.841 162.565 136.724 162.29 138.57C161.706 142.534 159.742 146.164 156.744 148.82C153.745 151.477 149.905 152.989 145.9 153.09ZM149.51 124.93C145.752 125.035 142.152 126.459 139.339 128.953C136.527 131.447 134.683 134.852 134.13 138.57C133.87 140.28 133.983 142.026 134.461 143.688C134.939 145.35 135.771 146.889 136.9 148.2C138.029 149.463 139.418 150.467 140.971 151.144C142.524 151.821 144.206 152.154 145.9 152.12C149.659 152.018 153.262 150.594 156.076 148.1C158.891 145.606 160.736 142.2 161.29 138.48C161.548 136.774 161.434 135.032 160.958 133.374C160.482 131.715 159.654 130.179 158.53 128.87C157.397 127.6 156.002 126.59 154.441 125.91C152.881 125.229 151.192 124.895 149.49 124.93H149.51Z" fill="#D399FF"/>
<path d="M157.31 134.03C157.202 134.173 157.085 134.31 156.96 134.44L145.01 145.02C144.59 145.38 144.31 145.39 144.01 145.02L138.84 138.87C138.56 138.54 138.62 138.22 139 137.87L140.67 136.53C141.02 136.25 141.31 136.25 141.56 136.53L144.63 140.12C144.95 140.5 145.22 140.5 145.63 140.12L154.92 131.93C155.32 131.58 155.59 131.58 155.92 131.93C156.25 132.28 156.73 132.86 157.13 133.34C157.222 133.463 157.302 133.593 157.37 133.73L157.31 134.03Z" fill="white"/>
<path d="M260.59 132.36H175C174.602 132.36 174.221 132.202 173.939 131.921C173.658 131.639 173.5 131.258 173.5 130.86C173.5 130.462 173.658 130.081 173.939 129.799C174.221 129.518 174.602 129.36 175 129.36H260.59C260.988 129.36 261.369 129.518 261.651 129.799C261.932 130.081 262.09 130.462 262.09 130.86C262.09 131.258 261.932 131.639 261.651 131.921C261.369 132.202 260.988 132.36 260.59 132.36Z" fill="#E9CCFF"/>
<path d="M241.28 146.79H173.15C172.753 146.79 172.371 146.632 172.09 146.351C171.808 146.069 171.65 145.688 171.65 145.29C171.65 144.892 171.808 144.511 172.09 144.229C172.371 143.948 172.753 143.79 173.15 143.79H241.28C241.678 143.79 242.06 143.948 242.341 144.229C242.622 144.511 242.78 144.892 242.78 145.29C242.78 145.688 242.622 146.069 242.341 146.351C242.06 146.632 241.678 146.79 241.28 146.79Z" fill="#E9CCFF"/>
<path d="M257.5 205.69H124.38C122.896 205.729 121.42 205.439 120.06 204.842C118.7 204.245 117.489 203.354 116.513 202.235C115.536 201.115 114.819 199.794 114.413 198.365C114.006 196.937 113.92 195.436 114.16 193.97L116.35 176.87C116.832 173.68 118.422 170.761 120.841 168.627C123.261 166.492 126.355 165.279 129.58 165.2H262.7C264.179 165.166 265.647 165.456 267 166.052C268.353 166.648 269.559 167.534 270.532 168.647C271.506 169.76 272.222 171.074 272.631 172.495C273.041 173.916 273.132 175.41 272.9 176.87L270.7 193.97C270.231 197.164 268.65 200.091 266.236 202.235C263.821 204.378 260.728 205.602 257.5 205.69Z" fill="white"/>
<path d="M257.5 206.2H124.38C122.839 206.232 121.309 205.931 119.895 205.316C118.482 204.702 117.218 203.789 116.19 202.64C115.166 201.454 114.41 200.061 113.974 198.556C113.537 197.051 113.43 195.47 113.66 193.92L115.9 176.8C116.393 173.485 118.038 170.449 120.548 168.227C123.057 166.005 126.269 164.738 129.62 164.65H262.7C264.242 164.615 265.773 164.914 267.189 165.527C268.604 166.14 269.87 167.052 270.9 168.2C271.922 169.387 272.676 170.78 273.111 172.285C273.546 173.79 273.651 175.371 273.42 176.92L271.23 194.03C270.741 197.351 269.096 200.392 266.584 202.619C264.072 204.845 260.855 206.113 257.5 206.2ZM129.58 165.65C126.48 165.747 123.512 166.93 121.195 168.991C118.878 171.053 117.358 173.862 116.9 176.93L114.71 194.04C114.495 195.448 114.588 196.886 114.981 198.255C115.375 199.624 116.06 200.891 116.99 201.97C117.925 203.011 119.074 203.837 120.358 204.393C121.642 204.948 123.031 205.22 124.43 205.19H257.5C260.609 205.104 263.588 203.927 265.916 201.864C268.243 199.802 269.771 196.986 270.23 193.91L272.42 176.8C272.635 175.392 272.542 173.954 272.148 172.585C271.755 171.216 271.07 169.949 270.14 168.87C269.205 167.829 268.056 167.003 266.772 166.447C265.488 165.892 264.099 165.62 262.7 165.65H129.58Z" fill="#3A0066"/>
<path d="M139.9 200C138.062 200.036 136.238 199.674 134.553 198.939C132.868 198.203 131.363 197.112 130.14 195.74C128.925 194.326 128.028 192.667 127.51 190.876C126.993 189.085 126.866 187.204 127.14 185.36C127.722 181.398 129.685 177.769 132.682 175.113C135.678 172.457 139.517 170.943 143.52 170.84C145.359 170.804 147.184 171.166 148.871 171.901C150.557 172.636 152.065 173.728 153.29 175.1C154.505 176.514 155.402 178.173 155.919 179.964C156.437 181.755 156.563 183.636 156.29 185.48C155.706 189.443 153.742 193.074 150.744 195.73C147.745 198.387 143.905 199.899 139.9 200ZM143.51 171.84C139.75 171.942 136.147 173.366 133.333 175.86C130.519 178.354 128.673 181.76 128.12 185.48C127.865 187.185 127.98 188.925 128.458 190.582C128.936 192.239 129.765 193.773 130.89 195.08C132.019 196.343 133.408 197.347 134.961 198.024C136.514 198.701 138.196 199.034 139.89 199C143.649 198.898 147.252 197.474 150.066 194.98C152.881 192.486 154.726 189.08 155.28 185.36C155.536 183.655 155.422 181.916 154.946 180.259C154.47 178.603 153.642 177.068 152.52 175.76C151.385 174.493 149.99 173.486 148.429 172.809C146.869 172.133 145.18 171.802 143.48 171.84H143.51Z" fill="#D399FF"/>
<path d="M151.29 180.95C151.187 181.095 151.07 181.229 150.94 181.35C146.94 184.877 142.957 188.403 138.99 191.93C138.58 192.3 138.3 192.3 137.99 191.93L132.82 185.78C132.54 185.45 132.6 185.13 132.98 184.83L134.65 183.48C135 183.2 135.28 183.2 135.54 183.48C136.56 184.68 137.583 185.877 138.61 187.07C138.92 187.45 139.2 187.45 139.61 187.07L148.89 178.87C149.29 178.52 149.57 178.52 149.89 178.87C150.21 179.22 150.7 179.8 151.1 180.28C151.192 180.4 151.269 180.531 151.33 180.67L151.29 180.95Z" fill="white"/>
<path d="M254.58 179.27H168.98C168.583 179.27 168.201 179.112 167.92 178.831C167.638 178.549 167.48 178.168 167.48 177.77C167.48 177.372 167.638 176.991 167.92 176.709C168.201 176.428 168.583 176.27 168.98 176.27H254.58C254.978 176.27 255.36 176.428 255.641 176.709C255.922 176.991 256.08 177.372 256.08 177.77C256.08 178.168 255.922 178.549 255.641 178.831C255.36 179.112 254.978 179.27 254.58 179.27Z" fill="#E9CCFF"/>
<path d="M235.27 193.7H167.13C166.732 193.7 166.351 193.542 166.069 193.261C165.788 192.979 165.63 192.598 165.63 192.2C165.63 191.802 165.788 191.421 166.069 191.139C166.351 190.858 166.732 190.7 167.13 190.7H235.27C235.668 190.7 236.049 190.858 236.331 191.139C236.612 191.421 236.77 191.802 236.77 192.2C236.77 192.598 236.612 192.979 236.331 193.261C236.049 193.542 235.668 193.7 235.27 193.7Z" fill="#E9CCFF"/>
<path d="M249.63 232.04C249.526 232.04 249.425 232.008 249.34 231.95L241.54 226.52C241.471 226.472 241.416 226.408 241.379 226.332C241.342 226.257 241.325 226.174 241.33 226.09C241.334 226.008 241.359 225.927 241.4 225.856C241.442 225.785 241.5 225.724 241.57 225.68L250.77 220.25C250.826 220.209 250.891 220.18 250.959 220.165C251.028 220.151 251.099 220.151 251.167 220.165C251.236 220.18 251.3 220.208 251.357 220.249C251.414 220.29 251.461 220.343 251.496 220.403C251.531 220.464 251.553 220.531 251.561 220.6C251.569 220.67 251.561 220.74 251.54 220.807C251.519 220.874 251.484 220.935 251.437 220.987C251.391 221.039 251.334 221.081 251.27 221.11L242.75 226.11L249.91 231.11C249.997 231.171 250.062 231.257 250.097 231.357C250.131 231.457 250.133 231.566 250.102 231.667C250.07 231.768 250.008 231.857 249.923 231.92C249.838 231.984 249.736 232.019 249.63 232.02V232.04Z" fill="#D399FF"/>
<path d="M256.34 232.04C256.23 232.041 256.123 232.006 256.035 231.94C255.947 231.874 255.883 231.781 255.853 231.675C255.824 231.569 255.83 231.456 255.871 231.354C255.912 231.252 255.985 231.166 256.08 231.11L264.6 226.11L257.44 221.11C257.331 221.033 257.257 220.916 257.235 220.785C257.212 220.654 257.243 220.519 257.32 220.41C257.397 220.301 257.514 220.228 257.645 220.205C257.776 220.183 257.911 220.213 258.02 220.29L265.81 225.72C265.878 225.769 265.933 225.834 265.972 225.908C266.01 225.983 266.03 226.066 266.03 226.15C266.025 226.234 266 226.315 265.956 226.386C265.913 226.458 265.852 226.517 265.78 226.56L256.59 231.99C256.513 232.029 256.426 232.047 256.34 232.04Z" fill="#D399FF"/>
<path d="M61.7002 143C61.7002 143 70.1402 157.86 78.3202 159.2C88.4102 160.86 103.2 151.96 103.2 151.96L94.9002 143.81L77.9002 143.75L68.6002 124.75L61.7002 143Z" fill="#A733FF"/>
<path d="M75.5098 239.9L76.1298 246.3L85.0598 245.61L84.2198 237.92L75.5098 239.9Z" fill="white"/>
<path d="M76.1297 246.8C76.0064 246.8 75.8875 246.754 75.7966 246.671C75.7058 246.588 75.6498 246.473 75.6397 246.35L75.0097 239.95C74.9992 239.828 75.0328 239.707 75.1044 239.608C75.176 239.508 75.2808 239.438 75.3997 239.41L84.1097 237.41C84.1783 237.395 84.2492 237.395 84.3181 237.408C84.3869 237.422 84.4521 237.45 84.5097 237.49C84.5676 237.532 84.6162 237.586 84.6523 237.648C84.6885 237.71 84.7114 237.779 84.7197 237.85L85.5597 245.53C85.5694 245.598 85.5646 245.666 85.5457 245.732C85.5267 245.797 85.494 245.858 85.4497 245.91C85.3611 246.014 85.2354 246.078 85.0997 246.09L76.1697 246.78L76.1297 246.8ZM76.0497 240.29L76.5797 245.77L84.5097 245.15L83.7897 238.53L76.0497 240.29Z" fill="#3A0066"/>
<path d="M12.9497 225.72L7.21973 230.28L10.4597 236.42L16.1797 233.89L12.9497 225.72Z" fill="white"/>
<path d="M10.4598 236.92C10.3696 236.921 10.2808 236.898 10.2032 236.852C10.1256 236.806 10.0621 236.74 10.0198 236.66L6.77979 230.51C6.72248 230.409 6.70407 230.29 6.72799 230.176C6.75191 230.061 6.81653 229.96 6.90979 229.89L12.6298 225.33C12.6916 225.283 12.7629 225.249 12.8388 225.232C12.9148 225.215 12.9936 225.214 13.0698 225.23C13.1458 225.25 13.216 225.288 13.275 225.34C13.334 225.392 13.3801 225.457 13.4098 225.53L16.6498 233.71C16.6965 233.831 16.6944 233.965 16.6441 234.085C16.5937 234.204 16.499 234.299 16.3798 234.35L10.6698 236.88C10.6033 236.908 10.5318 236.921 10.4598 236.92ZM7.89979 230.41L10.7398 235.78L15.5898 233.63L12.7798 226.53L7.89979 230.41Z" fill="#3A0066"/>
<path d="M30.1803 167.46L30.7803 208.37L10.7803 225.69L14.9003 235.88C14.9003 235.88 43.9803 221.88 48.5103 215.58C53.0403 209.28 53.7203 194.02 53.7203 194.02L68.6303 209.02L74.3503 241.5L85.7303 240.88C85.7303 240.88 84.2803 217.05 84.2803 208.2C84.2803 199.35 61.7403 168.91 61.7403 168.91L30.1803 167.46Z" fill="#3A0066"/>
<path d="M74.3805 241.97C74.2633 241.972 74.1494 241.931 74.0595 241.856C73.9696 241.781 73.9096 241.676 73.8905 241.56L68.1905 209.2L54.1905 195.14C53.9405 198.81 52.8505 210.4 48.9605 215.84C44.4005 222.2 16.3505 235.73 15.1605 236.3C15.0972 236.327 15.0292 236.341 14.9605 236.341C14.8917 236.341 14.8237 236.327 14.7605 236.3C14.6966 236.276 14.6385 236.239 14.5902 236.19C14.542 236.142 14.5045 236.084 14.4805 236.02L10.3705 225.82C10.3319 225.725 10.3237 225.62 10.3469 225.519C10.3702 225.419 10.4238 225.329 10.5005 225.26L30.2705 208.2L29.6805 167.51C29.6795 167.443 29.6923 167.376 29.7181 167.314C29.7439 167.253 29.7822 167.197 29.8305 167.15C29.8774 167.1 29.9351 167.061 29.9993 167.037C30.0634 167.013 30.1322 167.004 30.2005 167.01L61.7905 168.43C61.865 168.432 61.9381 168.45 62.0041 168.485C62.07 168.52 62.127 168.569 62.1705 168.63C63.1005 169.88 84.8105 199.3 84.8105 208.22C84.8105 216.95 86.2405 240.63 86.2605 240.87C86.266 241.002 86.2202 241.131 86.1325 241.23C86.0448 241.329 85.9222 241.39 85.7905 241.4L74.4105 242.02L74.3805 241.97ZM53.7505 193.53C53.8805 193.531 54.0054 193.581 54.1005 193.67L69.0105 208.67C69.0818 208.741 69.1305 208.831 69.1505 208.93L74.8005 240.98L85.2305 240.41C85.0205 236.92 83.8105 216.25 83.8105 208.2C83.8105 199.97 63.4205 171.99 61.5105 169.4L30.6905 168.01L31.2805 208.4C31.2798 208.472 31.2644 208.542 31.2352 208.608C31.2059 208.673 31.1634 208.732 31.1105 208.78L11.4205 225.83L15.1905 235.2C18.9905 233.35 44.0405 221 48.1305 215.29C52.5305 209.16 53.2405 194.15 53.2505 194C53.2516 193.903 53.283 193.808 53.3403 193.729C53.3977 193.65 53.4781 193.591 53.5705 193.56C53.6282 193.539 53.6892 193.529 53.7505 193.53Z" fill="#3A0066"/>
<path d="M28.1299 171.51L28.8999 151.44C28.8999 151.44 28.5599 126.68 37.6499 122.26C46.7399 117.84 64.9499 119.74 68.4799 124.75C72.0099 129.76 63.6399 171.51 63.6399 171.51H28.1299Z" fill="#A733FF"/>
<path d="M66.3796 103.54C66.2708 101.427 65.367 99.434 63.8496 97.96C60.6396 95.07 53.4596 93.96 50.7796 98.23C49.9151 98.3019 49.0973 98.6528 48.4496 99.23C47.6323 100.033 47.0393 101.037 46.7296 102.14C45.2496 106.38 46.4696 110.88 48.1096 114.98C48.608 116.375 49.3991 117.646 50.4296 118.71C52.9396 121.1 56.4296 119.79 59.2396 118.59C61.1288 117.841 62.8096 116.647 64.1396 115.11C65.6996 113.2 66.4896 109.63 66.5096 107.2C66.5387 105.979 66.4953 104.756 66.3796 103.54Z" fill="white"/>
<path d="M53.8997 120.49C53.199 120.509 52.5014 120.389 51.8474 120.137C51.1934 119.884 50.596 119.505 50.0897 119.02C48.9935 117.914 48.1567 116.579 47.6397 115.11C46.1597 111.39 44.6397 106.52 46.2597 101.92C46.6007 100.74 47.2415 99.6686 48.1197 98.81C48.7928 98.2486 49.6179 97.9004 50.4897 97.81C51.0409 97.0313 51.7529 96.3801 52.5776 95.9005C53.4022 95.4208 54.3203 95.124 55.2697 95.03C56.8543 94.8364 58.4617 94.968 59.9937 95.4168C61.5257 95.8656 62.95 96.622 64.1797 97.64C65.8011 99.1849 66.7676 101.293 66.8797 103.53C66.9921 104.75 67.0354 105.975 67.0097 107.2C67.0097 109.8 66.1297 113.46 64.5297 115.43C63.1513 117.036 61.4001 118.278 59.4297 119.05C57.6984 119.887 55.8195 120.377 53.8997 120.49ZM56.6397 95.89C56.2283 95.8861 55.8172 95.9128 55.4097 95.97C54.5641 96.0526 53.7475 96.3225 53.0193 96.7601C52.2911 97.1977 51.6695 97.7921 51.1997 98.5C51.1574 98.5663 51.1 98.6217 51.0322 98.6617C50.9645 98.7016 50.8882 98.725 50.8097 98.73C50.0711 98.7842 49.3696 99.0753 48.8097 99.56C48.0648 100.309 47.5213 101.235 47.2297 102.25C45.7397 106.53 47.2297 111.18 48.5997 114.74C49.0649 116.075 49.8196 117.291 50.8097 118.3C53.0097 120.4 56.0997 119.3 59.0697 118.08C60.8896 117.369 62.5094 116.226 63.7897 114.75C65.2197 112.98 66.0197 109.51 66.0397 107.14C66.066 105.955 66.0225 104.77 65.9097 103.59C65.821 101.598 64.9729 99.716 63.5397 98.33C61.5925 96.7406 59.1532 95.878 56.6397 95.89Z" fill="#3A0066"/>
<path d="M59.7004 119.55L59.0804 125.61C59.0804 125.61 57.6604 128.84 53.9104 127.23C52.8362 126.763 51.9126 126.007 51.2418 125.047C50.571 124.087 50.1794 122.959 50.1104 121.79L51.3004 110.93C51.3004 110.93 54.4604 109.93 54.6904 103.45C54.6904 103.45 58.4504 103.45 64.3804 103.73C64.3804 103.73 65.2003 113.73 64.2104 116.67C63.2204 119.61 59.7004 119.55 59.7004 119.55Z" fill="white"/>
<path d="M55.9001 128.2C55.1479 128.185 54.4065 128.018 53.7201 127.71C52.5548 127.209 51.553 126.392 50.8284 125.351C50.1037 124.31 49.6852 123.087 49.6201 121.82L50.8101 110.9C50.8218 110.805 50.8598 110.716 50.9199 110.641C50.98 110.567 51.0598 110.511 51.1501 110.48C51.1501 110.48 53.9901 109.4 54.2001 103.48C54.2053 103.351 54.2602 103.229 54.3534 103.139C54.4467 103.05 54.5709 103 54.7001 103C54.7001 103 58.5401 103 64.4101 103.28C64.5317 103.282 64.6482 103.329 64.7369 103.412C64.8256 103.496 64.8802 103.609 64.8901 103.73C64.8901 104.15 65.7001 113.87 64.6901 116.88C64.3358 117.799 63.7178 118.594 62.9136 119.163C62.1095 119.732 61.155 120.051 60.1701 120.08L59.5901 125.71C59.6004 125.763 59.6004 125.817 59.5901 125.87C59.2485 126.56 58.7233 127.142 58.0724 127.553C57.4215 127.964 56.6699 128.188 55.9001 128.2ZM51.7801 111.29L50.6001 121.84C50.6769 122.905 51.0449 123.928 51.6639 124.797C52.283 125.667 53.1292 126.349 54.1101 126.77C57.1101 128.07 58.3801 125.9 58.6001 125.48L59.2101 119.48C59.2247 119.357 59.2834 119.244 59.3754 119.161C59.4674 119.078 59.5864 119.032 59.7101 119.03C59.8401 119.03 62.8801 119.03 63.7101 116.49C64.5401 113.95 64.0401 106.14 63.9001 104.19C59.4701 104 56.3001 103.95 55.1501 103.93C54.9001 109.2 52.6101 110.82 51.7701 111.27L51.7801 111.29Z" fill="#3A0066"/>
<path d="M53.6204 111.13C53.5798 110.572 53.3587 110.042 52.9904 109.62C52.6315 109.242 52.2083 108.93 51.7404 108.7C51.5007 108.541 51.2264 108.441 50.9404 108.41C50.7394 108.408 50.5396 108.442 50.3504 108.51C49.8956 108.65 49.5034 108.943 49.2404 109.34C49.0705 109.685 48.988 110.066 49.0004 110.45C48.979 110.866 49.0126 111.283 49.1004 111.69C49.1965 112.092 49.3713 112.471 49.6148 112.806C49.8582 113.14 50.1655 113.422 50.5188 113.637C50.8722 113.852 51.2645 113.995 51.6733 114.057C52.0821 114.119 52.4991 114.1 52.9004 114" fill="white"/>
<path d="M52.1497 114.6C51.4829 114.601 50.8289 114.417 50.2597 114.07C49.4307 113.562 48.8373 112.745 48.6097 111.8C48.5118 111.35 48.4748 110.89 48.4997 110.43C48.4896 109.964 48.5962 109.504 48.8097 109.09C49.1378 108.605 49.6264 108.251 50.1897 108.09C50.4377 107.992 50.7035 107.948 50.9697 107.96C51.3261 107.996 51.6688 108.116 51.9697 108.31C52.4886 108.558 52.9592 108.897 53.3597 109.31C53.8053 109.812 54.0693 110.45 54.1097 111.12C54.118 111.251 54.0744 111.38 53.9883 111.479C53.9023 111.578 53.7806 111.64 53.6497 111.65C53.5182 111.656 53.3893 111.612 53.2891 111.526C53.1889 111.441 53.1248 111.321 53.1097 111.19C53.0777 110.74 52.9024 110.313 52.6097 109.97C52.2819 109.639 51.9039 109.363 51.4897 109.15C51.3145 109.036 51.1167 108.961 50.9097 108.93C50.7727 108.933 50.6374 108.96 50.5097 109.01C50.1679 109.105 49.8706 109.318 49.6697 109.61C49.5432 109.882 49.4816 110.18 49.4897 110.48C49.4652 110.852 49.4921 111.225 49.5697 111.59C49.7405 112.275 50.1708 112.867 50.7697 113.24C51.3713 113.598 52.0895 113.706 52.7697 113.54C52.9023 113.507 53.0427 113.528 53.1599 113.598C53.2771 113.668 53.3616 113.782 53.3947 113.915C53.4279 114.048 53.407 114.188 53.3367 114.305C53.2664 114.422 53.1523 114.507 53.0197 114.54C52.733 114.593 52.4411 114.613 52.1497 114.6Z" fill="#3A0066"/>
<path d="M59.4098 122.46C58.1144 122.105 56.957 121.366 56.0898 120.34C55.7303 119.958 55.4774 119.488 55.3563 118.977C55.2352 118.467 55.2502 117.933 55.3998 117.43C55.9182 118.076 56.5718 118.601 57.3147 118.967C58.0576 119.333 58.8717 119.532 59.6998 119.55L59.4098 122.46Z" fill="#3A0066"/>
<path d="M59.4102 122.96H59.3102C57.9118 122.583 56.6602 121.792 55.7202 120.69C55.2946 120.241 54.997 119.686 54.8581 119.083C54.7192 118.48 54.7441 117.85 54.9302 117.26C54.9597 117.177 55.0118 117.104 55.0808 117.049C55.1497 116.994 55.2327 116.96 55.3202 116.95C55.4085 116.935 55.4993 116.944 55.5824 116.978C55.6654 117.011 55.7374 117.068 55.7902 117.14C56.2672 117.718 56.8616 118.188 57.5339 118.519C58.2063 118.85 58.9413 119.035 59.6902 119.06C59.8324 119.064 59.968 119.121 60.0702 119.22C60.1173 119.273 60.1531 119.335 60.1754 119.402C60.1978 119.469 60.2062 119.54 60.2002 119.61L59.9002 122.52C59.8948 122.588 59.8751 122.655 59.8424 122.715C59.8097 122.775 59.7646 122.828 59.7102 122.87C59.6206 122.927 59.5167 122.959 59.4102 122.96ZM55.7802 118.54C55.8453 119.09 56.0834 119.605 56.4602 120.01C57.1465 120.791 58.0061 121.401 58.9702 121.79L59.1502 120.03C57.8968 119.905 56.7161 119.383 55.7802 118.54Z" fill="#3A0066"/>
<path d="M61.0004 114.25C60.5195 114.235 60.0452 114.133 59.6004 113.95C59.4771 113.9 59.3788 113.802 59.3272 113.679C59.2757 113.557 59.275 113.418 59.3254 113.295C59.3758 113.172 59.4731 113.073 59.596 113.022C59.7188 112.97 59.8571 112.97 59.9804 113.02C60.3902 113.207 60.8446 113.272 61.2904 113.21C61.0846 112.072 60.6962 110.974 60.1404 109.96C60.0821 109.841 60.0735 109.703 60.1166 109.577C60.1598 109.452 60.2511 109.348 60.3704 109.29C60.4898 109.232 60.6274 109.223 60.753 109.266C60.8787 109.309 60.9821 109.401 61.0404 109.52C62.8604 113.22 62.2104 113.76 62.0404 113.94C61.7446 114.17 61.3736 114.28 61.0004 114.25Z" fill="#3A0066"/>
<path d="M59.4898 116.28C58.8677 116.296 58.2562 116.117 57.7398 115.77C57.4557 115.553 57.22 115.279 57.0478 114.966C56.8756 114.652 56.7707 114.306 56.7398 113.95C56.73 113.885 56.7335 113.818 56.7499 113.755C56.7664 113.691 56.7956 113.631 56.8357 113.579C56.8759 113.526 56.9262 113.483 56.9836 113.45C57.041 113.418 57.1043 113.397 57.1698 113.39C57.2996 113.373 57.4309 113.407 57.5356 113.486C57.6403 113.564 57.7101 113.681 57.7299 113.81C57.7434 114.034 57.8048 114.253 57.91 114.451C58.0153 114.65 58.1618 114.823 58.3399 114.96C58.796 115.234 59.3337 115.341 59.8599 115.26C59.9894 115.239 60.122 115.269 60.23 115.344C60.3381 115.418 60.4132 115.532 60.4399 115.66C60.4632 115.79 60.4343 115.924 60.3594 116.032C60.2844 116.141 60.1696 116.216 60.0399 116.24C59.8585 116.273 59.6741 116.286 59.4898 116.28Z" fill="#3A0066"/>
<path d="M58.7802 108.59C58.7101 108.589 58.6409 108.574 58.5771 108.544C58.5134 108.515 58.4565 108.473 58.4102 108.42C58.326 108.315 58.2215 108.228 58.1029 108.165C57.9844 108.101 57.8542 108.062 57.7202 108.05C57.3516 108.076 57.0012 108.22 56.7202 108.46C56.6725 108.509 56.6153 108.547 56.5522 108.573C56.4891 108.599 56.4214 108.611 56.3533 108.61C56.2851 108.608 56.218 108.593 56.156 108.565C56.094 108.537 56.0384 108.496 55.9926 108.445C55.9469 108.395 55.912 108.336 55.89 108.271C55.868 108.207 55.8595 108.138 55.8648 108.07C55.8702 108.002 55.8895 107.936 55.9213 107.876C55.9532 107.816 55.9971 107.763 56.0502 107.72C56.5341 107.287 57.161 107.048 57.8102 107.05C58.0777 107.069 58.3385 107.142 58.5773 107.264C58.8161 107.386 59.0279 107.555 59.2002 107.76C59.2861 107.862 59.3289 107.993 59.3195 108.125C59.3102 108.258 59.2494 108.382 59.1502 108.47C59.0997 108.514 59.0409 108.547 58.9774 108.568C58.9138 108.588 58.8468 108.596 58.7802 108.59Z" fill="#3A0066"/>
<path d="M61.7903 109.2C61.7176 109.214 61.6429 109.214 61.5703 109.2C61.5111 109.171 61.4582 109.131 61.4146 109.082C61.371 109.032 61.3375 108.975 61.3162 108.913C61.2948 108.851 61.2859 108.785 61.2901 108.719C61.2942 108.653 61.3113 108.589 61.3403 108.53C61.4477 108.311 61.6034 108.119 61.7956 107.968C61.9878 107.817 62.2116 107.712 62.4503 107.66C62.7582 107.643 63.0657 107.702 63.345 107.833C63.6243 107.964 63.8667 108.162 64.0503 108.41C64.0971 108.457 64.1343 108.512 64.1597 108.573C64.1851 108.634 64.1982 108.699 64.1982 108.765C64.1982 108.831 64.1851 108.896 64.1597 108.957C64.1343 109.018 64.0971 109.074 64.0503 109.12C63.9568 109.212 63.8311 109.263 63.7003 109.263C63.5694 109.263 63.4437 109.212 63.3503 109.12C63.0603 108.81 62.8103 108.65 62.6303 108.68C62.4503 108.71 62.2903 108.95 62.2703 109C62.2149 109.073 62.1413 109.129 62.0571 109.164C61.9728 109.199 61.8808 109.212 61.7903 109.2Z" fill="#3A0066"/>
<path d="M55.6497 127.94L52.3097 129.59L54.2597 132.25L48.4697 156.97L53.9597 163.22L58.7797 154.74L55.9997 132.28L58.2097 129.88L55.6497 127.94Z" fill="white"/>
<path d="M7.22 230.28L0.5 234.84C0.5 234.84 11.9 254.2 15.07 249.2C15.93 247.82 10.46 236.41 10.46 236.41L7.22 230.28Z" fill="#3A0066"/>
<path d="M13.6896 250.54C9.29955 250.48 1.02955 236.67 0.0995548 235.1C0.0343015 234.99 0.0134873 234.86 0.0413768 234.735C0.0692664 234.611 0.143745 234.501 0.249553 234.43L6.89955 229.87C6.95713 229.83 7.02238 229.802 7.09121 229.788C7.16004 229.775 7.23097 229.775 7.29956 229.79C7.3678 229.809 7.4314 229.842 7.48643 229.887C7.54146 229.932 7.58676 229.987 7.61956 230.05L10.8996 236.2C12.5796 239.72 16.3896 248.02 15.4796 249.48C15.3021 249.8 15.0428 250.066 14.7282 250.253C14.4136 250.439 14.0551 250.538 13.6896 250.54ZM1.16955 234.99C3.80955 239.39 10.5296 249.5 13.6696 249.54C13.8742 249.536 14.0742 249.479 14.2496 249.373C14.4251 249.268 14.5699 249.119 14.6696 248.94C15.0296 248.08 12.5496 241.88 10.0296 236.64L7.02956 231.01L1.16955 234.99Z" fill="#3A0066"/>
<path d="M76.0501 246.3C76.0501 246.3 75.8401 253.77 76.5201 253.89C77.2001 254.01 98.4101 251.15 96.8001 249.53C95.1901 247.91 85.0601 245.61 85.0601 245.61L76.0501 246.3Z" fill="#3A0066"/>
<path d="M76.4399 254.39C76.0299 254.31 75.3399 254.19 75.5599 246.29C75.5644 246.168 75.6137 246.051 75.6985 245.963C75.7833 245.874 75.8977 245.82 76.0199 245.81L85.0199 245.11H85.1699C86.2199 245.35 95.4899 247.49 97.1699 249.16C97.2865 249.273 97.3631 249.421 97.3884 249.582C97.4136 249.742 97.3861 249.907 97.3099 250.05C96.1699 252.2 76.8999 254.39 76.4399 254.39ZM76.5399 246.77C76.4294 248.983 76.5097 251.201 76.7799 253.4C79.1299 253.34 94.2999 250.97 96.2599 249.72C94.7599 248.61 88.8599 246.99 85.0299 246.11L76.5399 246.77Z" fill="#3A0066"/>
<path d="M64.2497 169.11H64.1797C64.1129 169.103 64.0483 169.082 63.9897 169.049C63.931 169.016 63.8797 168.972 63.8386 168.919C63.7975 168.865 63.7676 168.804 63.7506 168.739C63.7336 168.674 63.7299 168.607 63.7397 168.54C64.5197 162.44 68.3197 139 68.3597 138.77C68.3626 138.698 68.3806 138.627 68.4127 138.563C68.4449 138.498 68.4903 138.441 68.5461 138.396C68.6019 138.35 68.6667 138.316 68.7363 138.298C68.8059 138.279 68.8787 138.275 68.9499 138.286C69.0211 138.298 69.0891 138.324 69.1494 138.364C69.2096 138.403 69.2608 138.455 69.2995 138.516C69.3383 138.577 69.3637 138.645 69.374 138.717C69.3844 138.788 69.3795 138.861 69.3597 138.93C69.3597 139.17 65.5297 162.59 64.7497 168.67C64.733 168.791 64.6732 168.902 64.5815 168.983C64.4897 169.064 64.372 169.109 64.2497 169.11Z" fill="#3A0066"/>
<path d="M105.47 161.44C121.752 161.44 134.95 148.241 134.95 131.96C134.95 115.679 121.752 102.48 105.47 102.48C89.1889 102.48 75.9902 115.679 75.9902 131.96C75.9902 148.241 89.1889 161.44 105.47 161.44Z" fill="#3A0066"/>
<path d="M105.45 161.95C99.5913 161.95 93.8607 160.234 88.9657 157.015C84.0707 153.795 80.2256 149.213 77.9049 143.833C75.5843 138.453 74.8896 132.512 75.9067 126.742C76.9238 120.972 79.6081 115.626 83.6284 111.364C87.6487 107.103 92.8289 104.111 98.5297 102.759C104.23 101.408 110.202 101.755 115.708 103.758C121.214 105.761 126.013 109.332 129.512 114.031C133.011 118.73 135.058 124.351 135.4 130.2C135.859 138.137 133.149 145.931 127.865 151.871C122.582 157.811 115.156 161.411 107.22 161.88C106.633 161.927 106.043 161.95 105.45 161.95ZM105.51 102.95C104.94 102.95 104.36 102.95 103.78 102.95C98.0522 103.281 92.5511 105.303 87.9727 108.761C83.3944 112.218 79.9447 116.957 78.06 122.376C76.1753 127.795 75.9404 133.651 77.3849 139.204C78.8295 144.756 81.8887 149.755 86.1753 153.569C90.462 157.382 95.7835 159.839 101.467 160.627C107.15 161.415 112.939 160.5 118.101 157.997C123.264 155.494 127.568 151.516 130.47 146.566C133.371 141.617 134.739 135.917 134.4 130.19C133.965 122.818 130.733 115.89 125.365 110.818C119.996 105.747 112.895 102.915 105.51 102.9V102.95Z" fill="#3A0066"/>
<path d="M100.92 161.71C117.202 161.71 130.4 148.511 130.4 132.23C130.4 115.949 117.202 102.75 100.92 102.75C84.6391 102.75 71.4404 115.949 71.4404 132.23C71.4404 148.511 84.6391 161.71 100.92 161.71Z" fill="#A733FF"/>
<path d="M100.9 162.2C93.0383 161.965 85.5841 158.646 80.1483 152.961C74.7124 147.276 71.7313 139.681 71.8488 131.816C71.9664 123.951 75.1731 116.448 80.7764 110.928C86.3798 105.408 93.9298 102.313 101.795 102.313C109.661 102.313 117.211 105.408 122.814 110.928C128.418 116.448 131.625 123.951 131.742 131.816C131.86 139.681 128.879 147.276 123.443 152.961C118.007 158.646 110.553 161.965 102.69 162.2C102.07 162.2 101.47 162.2 100.9 162.2ZM100.96 103.2C100.39 103.2 99.8205 103.2 99.2505 103.2C91.6366 103.425 84.4167 106.636 79.1509 112.14C73.8852 117.644 70.9963 124.999 71.1086 132.615C71.2209 140.231 74.3253 147.498 79.7511 152.844C85.1768 158.19 92.4882 161.187 100.105 161.187C107.723 161.187 115.034 158.19 120.46 152.844C125.886 147.498 128.99 140.231 129.102 132.615C129.215 124.999 126.326 117.644 121.06 112.14C115.794 106.636 108.574 103.425 100.96 103.2Z" fill="#3A0066"/>
<path d="M119.5 122.3C119.309 122.611 119.091 122.906 118.85 123.18L95.9702 146.03C95.8551 146.214 95.6951 146.366 95.5053 146.471C95.3155 146.576 95.1021 146.631 94.8852 146.631C94.6682 146.631 94.4548 146.576 94.265 146.471C94.0752 146.366 93.9153 146.214 93.8002 146.03C89.5002 141.597 85.2102 137.167 80.9302 132.74C80.7674 132.619 80.6366 132.46 80.549 132.277C80.4615 132.093 80.4198 131.892 80.4277 131.689C80.4356 131.486 80.4927 131.288 80.5942 131.112C80.6957 130.937 80.8385 130.788 81.0102 130.68L84.2402 127.77C84.3563 127.624 84.5039 127.506 84.6718 127.425C84.8397 127.345 85.0238 127.302 85.2102 127.302C85.3966 127.302 85.5807 127.345 85.7486 127.425C85.9165 127.506 86.064 127.624 86.1802 127.77C88.7069 130.363 91.2435 132.95 93.7902 135.53C94.5802 136.33 95.1702 136.34 95.9602 135.53L113.75 117.83C113.866 117.655 114.023 117.511 114.208 117.411C114.393 117.312 114.6 117.26 114.81 117.26C115.02 117.26 115.227 117.312 115.412 117.411C115.597 117.511 115.754 117.655 115.87 117.83C116.87 118.83 117.87 119.83 118.87 120.83C119.096 121.099 119.303 121.383 119.49 121.68L119.5 122.3Z" fill="white"/>
<path d="M72.4502 148.91C72.4502 148.91 78.4502 148.15 79.3702 147.53C80.2902 146.91 82.8202 142.85 84.1302 142.53C85.4402 142.21 85.2002 145.22 84.1302 146.45C83.0602 147.68 89.2002 143.2 90.2002 144.2C90.866 145.072 91.2267 146.138 91.2267 147.235C91.2267 148.332 90.866 149.398 90.2002 150.27C88.5102 152.34 78.3702 156.35 73.0702 156.61" fill="white"/>
<path d="M73.07 157.06C72.9418 157.063 72.8175 157.015 72.724 156.927C72.6305 156.839 72.5753 156.718 72.57 156.59C72.566 156.524 72.5749 156.458 72.5964 156.396C72.6178 156.334 72.6513 156.277 72.695 156.227C72.7387 156.178 72.7916 156.138 72.8508 156.109C72.91 156.081 72.9743 156.064 73.04 156.06C78.04 155.81 88.21 151.87 89.81 149.9C90.3934 149.123 90.7088 148.177 90.7088 147.205C90.7088 146.233 90.3934 145.287 89.81 144.51C89.27 144.28 86.51 145.87 85.6 146.4C84.2 147.2 83.91 147.4 83.6 146.98C83.29 146.56 83.45 146.45 83.73 146.13C84.0624 145.704 84.2928 145.208 84.4037 144.679C84.5147 144.151 84.5031 143.604 84.37 143.08C84.37 143.02 84.3101 143 84.2201 143.08C83.6001 143.22 82.22 144.91 81.38 146.02C80.8812 146.759 80.2897 147.431 79.62 148.02C78.62 148.66 73.52 149.35 72.5 149.48C72.3688 149.497 72.2362 149.461 72.1312 149.381C72.0262 149.3 71.9575 149.181 71.94 149.05C71.9302 148.985 71.9336 148.918 71.9501 148.855C71.9666 148.791 71.9958 148.731 72.0359 148.679C72.0761 148.626 72.1264 148.583 72.1838 148.55C72.2412 148.518 72.3045 148.497 72.37 148.49C74.81 148.18 78.5 147.56 79.07 147.19C79.6307 146.646 80.1426 146.054 80.6 145.42C82.02 143.62 83.1 142.33 83.99 142.12C84.2251 142.056 84.475 142.072 84.6998 142.166C84.9246 142.26 85.1113 142.427 85.23 142.64C85.607 143.57 85.607 144.61 85.23 145.54C87.75 144.09 89.74 143.06 90.55 143.87C91.2936 144.834 91.6969 146.017 91.6969 147.235C91.6969 148.453 91.2936 149.636 90.55 150.6C88.77 152.79 78.55 156.86 73.06 157.13L73.07 157.06Z" fill="#3A0066"/>
<path d="M39.7301 122.11C39.7301 122.11 42.2801 147.75 49.7301 147.87C58.8001 148.03 74.3001 147.69 74.3001 147.69L77.3001 157.36C77.3001 157.36 53.3001 163.12 43.2001 158.75C33.1001 154.38 32.3701 137.09 32.3701 137.09L39.7301 122.11Z" fill="#A733FF"/>
<path d="M57.0803 148.67C52.9803 148.67 49.5203 148.53 48.5503 148.11C45.9003 146.94 41.0303 130.11 40.0803 126.78C40.0622 126.715 40.0571 126.647 40.0654 126.58C40.0737 126.513 40.0952 126.448 40.1287 126.39C40.1622 126.331 40.207 126.28 40.2605 126.239C40.314 126.198 40.3751 126.167 40.4403 126.15C40.5047 126.13 40.5723 126.124 40.6392 126.131C40.7062 126.138 40.771 126.158 40.8298 126.191C40.8886 126.224 40.9402 126.268 40.9816 126.321C41.0229 126.374 41.0531 126.435 41.0703 126.5C43.2203 134.09 47.2603 146.41 48.9703 147.16C50.6803 147.91 65.0903 147.6 74.2703 147.16C74.3384 147.155 74.4069 147.163 74.4716 147.185C74.5363 147.207 74.5958 147.242 74.6464 147.288C74.697 147.334 74.7376 147.39 74.7658 147.452C74.794 147.514 74.8092 147.582 74.8103 147.65C74.8144 147.718 74.8048 147.786 74.7823 147.85C74.7597 147.914 74.7245 147.973 74.6789 148.023C74.6333 148.073 74.578 148.114 74.5165 148.143C74.4549 148.171 74.3882 148.188 74.3203 148.19C72.8303 148.27 64.0403 148.67 57.0803 148.67Z" fill="#3A0066"/>
<path d="M53.9602 160.71C50.2363 160.842 46.5168 160.342 42.9602 159.23C33.4502 155.62 31.9002 142.14 31.9002 141.56C31.8862 141.426 31.9256 141.292 32.0099 141.187C32.0942 141.082 32.2165 141.015 32.3502 141C32.4852 140.986 32.6203 141.025 32.7268 141.109C32.8333 141.193 32.9027 141.315 32.9202 141.45C32.9202 141.59 34.4602 154.88 43.4202 158.26C52.5502 161.7 73.2002 157.71 73.4202 157.67C73.5405 157.67 73.657 157.712 73.7499 157.788C73.8429 157.864 73.9066 157.97 73.9301 158.088C73.9537 158.206 73.9357 158.328 73.8792 158.434C73.8227 158.541 73.7312 158.624 73.6202 158.67C67.1357 159.9 60.5592 160.582 53.9602 160.71Z" fill="#3A0066"/>
<path d="M65.1301 53.5063C64.6777 53.5023 64.2275 53.4418 63.7901 53.3263C62.9101 53.1063 62.0301 52.9263 61.1501 52.7463L59.9401 52.4863L58.8101 52.2363C57.9801 52.0463 57.1201 51.8463 56.2801 51.7063C55.276 51.6107 54.345 51.1392 53.6737 50.3864C53.0025 49.6335 52.6404 48.6548 52.6601 47.6463C52.4661 44.71 51.637 41.8509 50.2301 39.2663C48.178 35.243 47.7866 30.5751 49.1401 26.2663C49.6993 24.3001 50.6502 22.4671 51.9356 20.8775C53.221 19.288 54.8144 17.9746 56.6201 17.0163C58.6389 16.038 60.8314 15.469 63.0711 15.342C65.3109 15.215 67.5536 15.5325 69.6701 16.2763C75.4601 18.1263 79.4401 22.2763 80.5901 27.6163C81.1477 30.6507 80.897 33.7784 79.8631 36.6852C78.8293 39.5921 77.0486 42.1756 74.7001 44.1763C72.3801 46.2463 69.9901 48.3863 68.5001 51.3763C68.2107 52.0238 67.7364 52.5715 67.1368 52.9504C66.5373 53.3293 65.8392 53.5227 65.1301 53.5063ZM60.1301 51.5063L61.3301 51.7563C62.2301 51.9363 63.1301 52.1263 64.0101 52.3563C64.6815 52.624 65.4302 52.6227 66.1006 52.3526C66.771 52.0826 67.3116 51.5646 67.6101 50.9063C69.1801 47.7563 71.6101 45.5463 74.0301 43.4063C76.249 41.5235 77.933 39.0895 78.9125 36.3493C79.892 33.609 80.1326 30.6591 79.6101 27.7963C78.5301 22.7363 74.8901 18.9663 69.3601 17.2063C67.3653 16.5044 65.2512 16.2048 63.14 16.325C61.0288 16.4451 58.9623 16.9826 57.0601 17.9063C55.3707 18.8046 53.8799 20.0346 52.6771 21.5226C51.4743 23.0107 50.5842 24.7261 50.0601 26.5663C49.4102 28.5783 49.164 30.6987 49.3357 32.806C49.5073 34.9133 50.0933 36.966 51.0601 38.8463C52.5425 41.554 53.4098 44.5552 53.6001 47.6363C53.5695 48.4141 53.8424 49.1733 54.3611 49.7536C54.8798 50.3339 55.6038 50.6898 56.3801 50.7463C57.2501 50.8863 58.1301 51.0863 58.9701 51.2763L60.0901 51.5363L60.1301 51.5063Z" fill="#3A0066"/>
<path d="M64.5196 57.3564C64.3666 57.3706 64.2126 57.3706 64.0596 57.3564L54.1396 55.2164C53.583 55.0965 53.0967 54.7607 52.7873 54.2826C52.478 53.8046 52.3709 53.2233 52.4896 52.6664L52.5996 52.1464C52.7219 51.589 53.0597 51.1026 53.5393 50.7934C54.019 50.4843 54.6015 50.3775 55.1596 50.4964L65.0596 52.5964C65.6163 52.7163 66.1026 53.0521 66.412 53.5302C66.7213 54.0083 66.8283 54.5895 66.7096 55.1464L66.5996 55.6664C66.4939 56.1411 66.2309 56.5663 65.8534 56.873C65.4759 57.1797 65.006 57.35 64.5196 57.3564ZM64.2696 56.3564C64.5664 56.4193 64.876 56.3635 65.1321 56.2009C65.3882 56.0382 65.5704 55.7818 65.6396 55.4864L65.7496 54.9664C65.7819 54.8193 65.7847 54.6672 65.7578 54.519C65.731 54.3708 65.675 54.2294 65.5932 54.1029C65.5114 53.9765 65.4053 53.8675 65.2811 53.7823C65.1569 53.697 65.0171 53.6373 64.8696 53.6064L54.9496 51.4564C54.8019 51.424 54.6492 51.4211 54.5003 51.4479C54.3515 51.4746 54.2093 51.5305 54.0821 51.6122C53.9548 51.6939 53.8449 51.8 53.7587 51.9243C53.6725 52.0485 53.6116 52.1886 53.5796 52.3364L53.4696 52.8564C53.4374 53.0035 53.4346 53.1556 53.4614 53.3038C53.4883 53.452 53.5442 53.5934 53.6261 53.7199C53.7079 53.8463 53.814 53.9553 53.9382 54.0406C54.0624 54.1258 54.2022 54.1855 54.3496 54.2164L64.2696 56.3564Z" fill="#3A0066"/>
<path d="M63.7103 61.0864C63.5587 61.0895 63.4074 61.0727 63.2603 61.0364L53.3303 58.9064C52.7755 58.7842 52.2916 58.4474 51.9843 57.9697C51.677 57.4919 51.5713 56.9119 51.6903 56.3564L51.8003 55.8364C51.9224 55.2816 52.2592 54.7977 52.737 54.4904C53.2148 54.1831 53.7948 54.0774 54.3503 54.1964L64.2703 56.3364C64.548 56.3956 64.8112 56.5093 65.0447 56.6708C65.2783 56.8324 65.4775 57.0385 65.6309 57.2775C65.7843 57.5164 65.8889 57.7834 65.9385 58.063C65.9882 58.3426 65.982 58.6292 65.9203 58.9064L65.8103 59.4264C65.6995 59.8997 65.4315 60.3216 65.0501 60.6231C64.6687 60.9245 64.1964 61.0879 63.7103 61.0864ZM53.9003 55.0864C53.6387 55.0851 53.3846 55.1738 53.1806 55.3377C52.9767 55.5016 52.8353 55.7306 52.7803 55.9864L52.6703 56.5064C52.6379 56.6528 52.6347 56.8042 52.6609 56.9519C52.6871 57.0995 52.7422 57.2406 52.8231 57.3669C52.9039 57.4933 53.0088 57.6024 53.1319 57.6881C53.255 57.7738 53.3937 57.8344 53.5403 57.8664L63.4703 60.0164C63.6174 60.0486 63.7694 60.0514 63.9177 60.0246C64.0659 59.9977 64.2073 59.9418 64.3338 59.8599C64.4602 59.7781 64.5692 59.672 64.6544 59.5478C64.7396 59.4236 64.7994 59.2838 64.8303 59.1364L64.9403 58.6164C64.9744 58.4697 64.9778 58.3176 64.9503 58.1696C64.9228 58.0216 64.8649 57.8809 64.7803 57.7564C64.6996 57.6293 64.5944 57.5196 64.4707 57.4337C64.3471 57.3478 64.2075 57.2876 64.0603 57.2564L54.1403 55.1164C54.0597 55.1133 53.9792 55.1201 53.9003 55.1364V55.0864Z" fill="#3A0066"/>
<path d="M59.8997 62.7563C59.1733 62.7513 58.4494 62.6708 57.7397 62.5163C54.6097 61.8363 52.4497 59.9763 52.8097 58.2763C52.8389 58.1453 52.9178 58.0306 53.0297 57.9563C53.0859 57.9217 53.1484 57.8986 53.2137 57.8883C53.2789 57.878 53.3455 57.8807 53.4097 57.8963L63.5997 60.0963C63.6638 60.1094 63.7246 60.1351 63.7786 60.172C63.8326 60.2089 63.8786 60.2562 63.9141 60.3112C63.9495 60.3662 63.9735 60.4277 63.9848 60.4921C63.9961 60.5566 63.9943 60.6226 63.9797 60.6863C63.7097 61.9863 62.0597 62.7563 59.8997 62.7563ZM53.8397 59.0063C54.1597 59.9263 55.6897 61.0063 57.9597 61.5363C60.2297 62.0663 62.0797 61.6363 62.7497 60.9363L53.8397 59.0063Z" fill="#3A0066"/>
<path d="M63.5799 51.1963C63.5142 51.1925 63.4499 51.1758 63.3907 51.147C63.3315 51.1183 63.2786 51.0782 63.2349 51.0289C63.1912 50.9797 63.1577 50.9223 63.1363 50.8601C63.1148 50.7979 63.1059 50.732 63.1099 50.6663C63.286 47.499 63.8228 44.362 64.7099 41.3163C63.4001 41.3447 62.0939 41.1659 60.8399 40.7863C60.4179 43.7208 59.725 46.6098 58.7699 49.4163L58.6599 49.7763C58.6402 49.842 58.6078 49.9031 58.5645 49.9563C58.5212 50.0094 58.4678 50.0535 58.4074 50.086C58.3471 50.1185 58.2809 50.1388 58.2127 50.1457C58.1445 50.1526 58.0756 50.146 58.01 50.1263C57.9443 50.1066 57.8831 50.0742 57.83 50.0309C57.7769 49.9876 57.7328 49.9342 57.7003 49.8738C57.6678 49.8135 57.6475 49.7473 57.6406 49.6791C57.6337 49.6109 57.6402 49.542 57.6599 49.4763L57.7699 49.1163C58.7335 46.2992 59.4234 43.3958 59.8299 40.4463C58.0578 39.7627 56.4789 38.6575 55.23 37.2263C54.431 36.3895 53.8715 35.3534 53.6099 34.2263C53.4715 33.6183 53.4906 32.985 53.6657 32.3864C53.8407 31.7879 54.1657 31.244 54.6099 30.8063C54.9871 30.5162 55.42 30.3069 55.8817 30.1917C56.3433 30.0764 56.8238 30.0576 57.293 30.1364C57.7623 30.2153 58.2102 30.3901 58.6089 30.6498C59.0075 30.9096 59.3483 31.2489 59.6099 31.6463C60.4788 33.5258 60.9161 35.5759 60.8899 37.6463C60.8899 38.3663 60.8899 39.0963 60.8899 39.8163C62.2128 40.2419 63.6024 40.4215 64.9899 40.3463C65.0021 40.2917 65.0188 40.2382 65.04 40.1863L65.1399 39.8863C65.9499 37.5163 66.9499 34.5663 69.1399 33.0163C69.5244 32.711 69.9689 32.49 70.4444 32.3677C70.9199 32.2454 71.4158 32.2245 71.8999 32.3063C72.1787 32.3957 72.4307 32.5531 72.6332 32.7644C72.8358 32.9757 72.9824 33.2341 73.0599 33.5163C73.2718 34.3105 73.2915 35.1437 73.1176 35.9471C72.9438 36.7504 72.5812 37.5008 72.0599 38.1363C71.0443 39.3477 69.7005 40.2401 68.1899 40.7063C67.4056 40.9747 66.594 41.1558 65.7699 41.2463C64.8167 44.3285 64.2425 47.5153 64.0599 50.7363C64.0502 50.8585 63.996 50.9729 63.9075 51.0577C63.819 51.1425 63.7024 51.1918 63.5799 51.1963ZM71.2999 33.1963C70.727 33.2514 70.182 33.4701 69.73 33.8263C67.82 35.1863 66.8699 37.9663 66.1099 40.1963C66.7034 40.098 67.2885 39.9542 67.8599 39.7663C69.1866 39.3601 70.3675 38.5787 71.26 37.5163C71.6809 37.0091 71.9756 36.4093 72.1198 35.7661C72.2641 35.123 72.2539 34.4548 72.0899 33.8163C71.9399 33.3263 71.6899 33.2363 71.5999 33.2163C71.5038 33.1816 71.4021 33.1646 71.2999 33.1663V33.1963ZM56.7199 31.0763C56.2078 31.0632 55.7077 31.2335 55.3099 31.5563C54.9933 31.8771 54.7623 32.2723 54.6383 32.7057C54.5142 33.139 54.501 33.5966 54.5999 34.0363C54.8281 35.0007 55.3077 35.8875 55.9899 36.6063C57.0763 37.8311 58.4224 38.798 59.9299 39.4363C59.9299 38.8463 59.9299 38.2663 59.9299 37.6763C59.958 35.7676 59.5654 33.8762 58.7799 32.1363C58.6005 31.8626 58.3634 31.6313 58.0854 31.4585C57.8073 31.2858 57.4949 31.1759 57.1699 31.1363C57.0229 31.0929 56.8723 31.0628 56.7199 31.0463V31.0763Z" fill="#3A0066"/>
<path d="M31.7003 49.7964C31.585 49.7964 31.4733 49.7566 31.384 49.6837C31.2947 49.6109 31.2333 49.5093 31.2103 49.3964C31.1957 49.332 31.1944 49.2653 31.2062 49.2003C31.2181 49.1353 31.243 49.0734 31.2795 49.0183C31.3159 48.9631 31.3631 48.916 31.4182 48.8796C31.4734 48.8432 31.5353 48.8183 31.6003 48.8064L43.0603 46.3864C43.1886 46.3622 43.3213 46.3881 43.431 46.4588C43.5408 46.5295 43.6193 46.6396 43.6503 46.7664C43.6744 46.8973 43.6475 47.0325 43.5749 47.1442C43.5023 47.2558 43.3898 47.3353 43.2603 47.3664L31.8103 49.7864L31.7003 49.7964Z" fill="#E9CCFF"/>
<path d="M48.4102 13.5564C48.2854 13.5529 48.1655 13.5071 48.0702 13.4264L40.9302 6.90642C40.8409 6.81541 40.7898 6.69374 40.7872 6.56628C40.7847 6.43882 40.8309 6.31519 40.9165 6.22069C41.002 6.12618 41.1205 6.06793 41.2476 6.05784C41.3747 6.04776 41.5008 6.0866 41.6002 6.16642L48.7502 12.6764C48.8251 12.7445 48.8776 12.8337 48.9007 12.9323C48.9238 13.0309 48.9164 13.1341 48.8796 13.2284C48.8427 13.3227 48.7781 13.4036 48.6943 13.4604C48.6105 13.5172 48.5114 13.5472 48.4102 13.5464V13.5564Z" fill="#E9CCFF"/>
<path d="M88.3903 24.1964C88.2577 24.2149 88.1231 24.1801 88.0162 24.0994C87.9093 24.0188 87.8389 23.899 87.8203 23.7664C87.8017 23.6338 87.8366 23.4992 87.9173 23.3923C87.9979 23.2854 88.1177 23.2149 88.2503 23.1964L98.5803 20.3864C98.6459 20.3693 98.7144 20.3653 98.7816 20.3747C98.8487 20.384 98.9134 20.4065 98.9719 20.4409C99.0304 20.4753 99.0816 20.5208 99.1225 20.5749C99.1634 20.6291 99.1932 20.6907 99.2103 20.7564C99.2274 20.822 99.2313 20.8904 99.222 20.9576C99.2126 21.0248 99.1901 21.0895 99.1558 21.148C99.1214 21.2065 99.0759 21.2577 99.0218 21.2986C98.9676 21.3395 98.906 21.3693 98.8403 21.3864L88.5203 24.2064L88.3903 24.1964Z" fill="#E9CCFF"/>
<path d="M84.5396 66.2164C84.4693 66.2169 84.3997 66.202 84.3357 66.1726C84.2718 66.1432 84.2151 66.1002 84.1696 66.0464L77.9696 59.1364C77.8808 59.037 77.8351 58.9063 77.8426 58.7731C77.8501 58.64 77.9102 58.5153 78.0096 58.4264C78.1091 58.3376 78.2398 58.2919 78.3729 58.2994C78.5061 58.3069 78.6308 58.367 78.7196 58.4664L84.9096 65.3764C84.9565 65.4229 84.9937 65.4782 85.0191 65.5391C85.0445 65.6001 85.0575 65.6654 85.0575 65.7314C85.0575 65.7974 85.0445 65.8628 85.0191 65.9237C84.9937 65.9846 84.9565 66.0399 84.9096 66.0864C84.8614 66.134 84.8031 66.1704 84.7392 66.1928C84.6752 66.2153 84.6071 66.2234 84.5396 66.2164Z" fill="#E9CCFF"/>
<path d="M69.4297 9.07636H69.3497C69.2175 9.05425 69.0994 8.98101 69.0208 8.87247C68.9422 8.76394 68.9094 8.62883 68.9297 8.49636L70.2497 0.426362C70.2709 0.293754 70.3439 0.175005 70.4527 0.0962398C70.5615 0.0174745 70.6971 -0.0148556 70.8297 0.0063617C70.9623 0.027579 71.081 0.100605 71.1598 0.209376C71.2386 0.318147 71.2709 0.453753 71.2497 0.586362L69.9397 8.65636C69.9224 8.77737 69.8605 8.88754 69.7661 8.96524C69.6717 9.04295 69.5518 9.08258 69.4297 9.07636Z" fill="#E9CCFF"/>
<path d="M38.4599 31.0463H38.3499L28.4099 28.9763C28.3442 28.9632 28.2818 28.9373 28.2262 28.9C28.1705 28.8627 28.1228 28.8149 28.0856 28.7592C28.0485 28.7035 28.0227 28.641 28.0097 28.5753C27.9967 28.5096 27.9968 28.442 28.0099 28.3763C28.023 28.3107 28.049 28.2482 28.0862 28.1926C28.1235 28.137 28.1713 28.0892 28.227 28.0521C28.2828 28.0149 28.3452 27.9891 28.4109 27.9761C28.4766 27.9631 28.5442 27.9632 28.6099 27.9763L38.5599 30.0463C38.6886 30.0752 38.8011 30.1527 38.8738 30.2627C38.9465 30.3728 38.9738 30.5066 38.9499 30.6363C38.9289 30.7511 38.8684 30.8549 38.7789 30.9298C38.6894 31.0047 38.5766 31.0459 38.4599 31.0463Z" fill="#E9CCFF"/>
<path d="M98.0597 43.8364H97.9497L88.9497 41.7164C88.8855 41.7024 88.8247 41.6755 88.771 41.6374C88.7173 41.5994 88.6719 41.5509 88.6374 41.4949C88.6028 41.4389 88.58 41.3766 88.5701 41.3115C88.5601 41.2465 88.5634 41.1801 88.5797 41.1164C88.6106 40.988 88.691 40.877 88.8034 40.8077C88.9158 40.7384 89.0511 40.7163 89.1797 40.7464L98.1797 42.8664C98.3123 42.8823 98.4332 42.9503 98.5157 43.0553C98.5982 43.1603 98.6356 43.2938 98.6197 43.4264C98.6038 43.559 98.5358 43.6799 98.4308 43.7624C98.3258 43.8449 98.1923 43.8823 98.0597 43.8664V43.8364Z" fill="#E9CCFF"/>
</svg>
