<svg width="84" height="83" viewBox="0 0 84 83" fill="none" xmlns="http://www.w3.org/2000/svg">
<path d="M34.8263 69.5395C53.7842 69.5395 69.1527 54.1711 69.1527 35.2132C69.1527 16.2553 53.7842 0.886871 34.8263 0.886871C15.8684 0.886871 0.5 16.2553 0.5 35.2132C0.5 54.1711 15.8684 69.5395 34.8263 69.5395Z" fill="#4F008C"/>
<path d="M34.8265 61.5631C49.3791 61.5631 61.1764 49.7659 61.1764 35.2132C61.1764 20.6606 49.3791 8.86331 34.8265 8.86331C20.2738 8.86331 8.47656 20.6606 8.47656 35.2132C8.47656 49.7659 20.2738 61.5631 34.8265 61.5631Z" fill="#F4FBFF"/>
<path d="M34.8267 17.0147C34.1348 17.0147 33.5742 16.454 33.5742 15.7623V13.9917C33.5742 13.2998 34.135 12.7393 34.8267 12.7393C35.5186 12.7393 36.0791 13.3 36.0791 13.9917V15.7623C36.0791 16.454 35.5186 17.0147 34.8267 17.0147Z" fill="#365E7D"/>
<path d="M48.5807 22.712C48.26 22.712 47.9395 22.5896 47.6949 22.345C47.2058 21.8559 47.2058 21.0628 47.6951 20.5736L48.947 19.3218C49.4361 18.8327 50.2292 18.8329 50.7184 19.3219C51.2075 19.811 51.2075 20.6041 50.7183 21.0933L49.4663 22.3451C49.2218 22.5896 48.9012 22.712 48.5807 22.712Z" fill="#365E7D"/>
<path d="M56.0484 36.4651H54.2778C53.586 36.4651 53.0254 35.9044 53.0254 35.2126C53.0254 34.5209 53.5861 33.9602 54.2778 33.9602H56.0486C56.7405 33.9602 57.301 34.5209 57.301 35.2126C57.301 35.9044 56.7403 36.4651 56.0484 36.4651Z" fill="#365E7D"/>
<path d="M35.3423 58.2014C34.6504 58.2014 34.0898 57.6406 34.0898 56.9489V55.1782C34.0898 54.4863 34.6506 53.9257 35.3423 53.9257C36.0342 53.9257 36.5948 54.4865 36.5948 55.1782V56.9489C36.5948 57.6408 36.0342 58.2014 35.3423 58.2014Z" fill="#365E7D"/>
<path d="M19.8209 51.4707C19.5004 51.4707 19.1798 51.3483 18.9352 51.1038C18.4461 50.6146 18.4461 49.8217 18.9352 49.3323L20.1871 48.0803C20.6764 47.5914 21.4693 47.5914 21.9587 48.0803C22.4478 48.5696 22.4478 49.3624 21.9587 49.8518L20.7067 51.1038C20.4619 51.3484 20.1413 51.4707 19.8209 51.4707Z" fill="#365E7D"/>
<path d="M15.3765 36.4651H13.606C12.9141 36.4651 12.3535 35.9044 12.3535 35.2126C12.3535 34.5209 12.9143 33.9602 13.606 33.9602H15.3767C16.0686 33.9602 16.6292 34.5209 16.6292 35.2126C16.6292 35.9044 16.0684 36.4651 15.3765 36.4651Z" fill="#365E7D"/>
<path d="M21.0729 22.712C20.7524 22.712 20.4317 22.5896 20.1873 22.3451L18.9353 21.0933C18.4461 20.6042 18.4461 19.8112 18.9352 19.3219C19.4244 18.8327 20.2174 18.8329 20.7065 19.3218L21.9585 20.5736C22.4477 21.0627 22.4477 21.8557 21.9587 22.345C21.714 22.5896 21.3934 22.712 21.0729 22.712Z" fill="#365E7D"/>
<path d="M34.8259 36.9812C34.5056 36.9812 34.1903 36.8583 33.9518 36.626L29.5466 32.3364C29.0511 31.8538 29.0405 31.0609 29.5231 30.5652C30.0056 30.0696 30.7986 30.0589 31.2943 30.5417L33.5731 32.7606V23.8753C33.5731 23.1834 34.1339 22.6228 34.8256 22.6228C35.5175 22.6228 36.078 23.1835 36.078 23.8753V35.7285C36.078 36.2322 35.7765 36.6866 35.3126 36.8826C35.1553 36.9489 34.99 36.9812 34.8259 36.9812Z" fill="#2B4D66"/>
<path d="M61.9064 82.1131C73.8324 82.1131 83.5004 72.4452 83.5004 60.5192C83.5004 48.5932 73.8324 38.9253 61.9064 38.9253C49.9804 38.9253 40.3125 48.5932 40.3125 60.5192C40.3125 72.4452 49.9804 82.1131 61.9064 82.1131Z" fill="#FFD700"/>
<path d="M61.5109 65.168C60.1275 65.168 59.0059 64.0463 59.0059 62.6629V47.7072C59.0059 46.3237 60.1275 45.2021 61.5109 45.2021C62.8944 45.2021 64.016 46.3237 64.016 47.7072V62.663C64.0159 64.0465 62.8944 65.168 61.5109 65.168Z" fill="#F4FBFF"/>
<path d="M61.5109 74.8537C60.1275 74.8537 59.0059 73.732 59.0059 72.3486V70.7529C59.0059 69.3695 60.1275 68.2479 61.5109 68.2479C62.8944 68.2479 64.016 69.3695 64.016 70.7529V72.3486C64.0159 73.732 62.8944 74.8537 61.5109 74.8537Z" fill="#F4FBFF"/>
</svg>
