<svg width="390" height="356" viewBox="0 0 390 356" fill="none" xmlns="http://www.w3.org/2000/svg">
<rect x="0.5" y="0.5" width="389" height="355" rx="11.5" fill="white"/>
<rect x="0.5" y="0.5" width="389" height="355" rx="11.5" stroke="#E6E6E6"/>
<path d="M309.505 188.84H115.064C114.981 188.84 114.901 188.807 114.843 188.748C114.784 188.69 114.751 188.61 114.751 188.527V66.3129C114.753 66.2304 114.786 66.1517 114.844 66.0934C114.903 66.0351 114.981 66.0016 115.064 66C115.147 66 115.226 66.033 115.285 66.0916C115.344 66.1503 115.377 66.2299 115.377 66.3129V188.214H309.505C309.588 188.214 309.668 188.247 309.726 188.306C309.785 188.364 309.818 188.444 309.818 188.527C309.818 188.61 309.785 188.69 309.726 188.748C309.668 188.807 309.588 188.84 309.505 188.84Z" fill="#E9CCFF"/>
<path d="M263.397 79.6732C263.397 79.6732 262.659 77.4642 262.659 77.3078C262.659 77.1514 263.241 75.0925 262.978 74.4605C262.715 73.8285 261.507 71.7822 260.982 71.9574C260.456 72.1326 261.044 73.4468 261.188 73.7534C260.869 72.7834 259.392 72.264 258.573 71.7947C257.373 71.186 256.002 71.0071 254.686 71.2878C254.206 71.3383 253.747 71.5178 253.36 71.8072C253.168 71.9542 253.029 72.1588 252.962 72.3908C252.896 72.6229 252.906 72.8703 252.991 73.0963C253.278 73.7221 254.142 73.7659 254.661 74.2102C255.462 74.8923 256.007 76.4442 256.432 77.3829C257.062 78.7679 257.688 80.1509 258.31 81.5318" fill="white"/>
<path d="M258.323 81.8259C258.263 81.8262 258.205 81.8092 258.155 81.777C258.105 81.7448 258.066 81.6987 258.041 81.6444L256.164 77.4892C256.083 77.314 255.995 77.1138 255.907 76.901C255.599 75.9794 255.109 75.1284 254.468 74.3979C254.277 74.2508 254.066 74.1307 253.842 74.0412C253.38 73.9015 252.987 73.5933 252.741 73.1776C252.636 72.8939 252.623 72.5847 252.703 72.293C252.782 72.0013 252.951 71.7418 253.185 71.5506C253.612 71.2131 254.123 70.9969 254.662 70.9248C256.049 70.64 257.492 70.8342 258.755 71.4755C258.924 71.5694 259.118 71.6632 259.324 71.7696C259.719 71.9541 260.101 72.1631 260.469 72.3954C260.453 72.2377 260.477 72.0785 260.538 71.9323C260.575 71.8517 260.629 71.7799 260.696 71.7217C260.763 71.6634 260.841 71.62 260.926 71.5944C261.89 71.3253 263.285 74.2727 263.298 74.304C263.523 74.8422 263.298 75.9623 263.073 76.9698C263.035 77.1263 263.01 77.2389 263.004 77.289C262.997 77.339 263.392 78.5405 263.73 79.5355C263.755 79.6143 263.749 79.7001 263.711 79.7741C263.674 79.848 263.608 79.904 263.529 79.9298C263.491 79.9435 263.45 79.9493 263.409 79.9469C263.368 79.9446 263.328 79.934 263.291 79.916C263.255 79.8979 263.222 79.8726 263.195 79.8417C263.168 79.8107 263.148 79.7747 263.135 79.7358C262.815 78.9362 262.562 78.1115 262.378 77.2702C262.392 77.1221 262.419 76.9755 262.459 76.8322C262.566 76.3691 262.885 74.9548 262.722 74.5481C262.409 73.8034 261.408 72.2765 261.064 72.2014C261.099 72.5856 261.207 72.9595 261.383 73.3028C261.438 73.3964 261.484 73.4949 261.521 73.5969C261.551 73.6741 261.55 73.7603 261.517 73.8366C261.484 73.9128 261.423 73.9729 261.345 74.0037C261.268 74.0344 261.182 74.0331 261.106 74.0003C261.029 73.9674 260.969 73.9056 260.939 73.8284L260.826 73.5906C260.347 73.032 259.736 72.6018 259.049 72.3391C258.83 72.2327 258.623 72.1326 258.423 72.0325C257.285 71.4629 255.988 71.2953 254.743 71.5569C254.319 71.6009 253.913 71.7563 253.567 72.0074C253.431 72.1115 253.33 72.2551 253.278 72.4187C253.227 72.5822 253.227 72.7577 253.279 72.9211C253.404 73.1901 253.711 73.3216 254.068 73.4843C254.356 73.5936 254.626 73.7455 254.869 73.9348C255.587 74.7145 256.134 75.6352 256.477 76.6382C256.564 76.8447 256.646 77.0387 256.727 77.2139L258.605 81.3628C258.629 81.4106 258.64 81.4639 258.637 81.5173C258.634 81.5708 258.617 81.6226 258.588 81.6675C258.559 81.7124 258.519 81.749 258.471 81.7734C258.423 81.7979 258.37 81.8095 258.317 81.8071L258.323 81.8259Z" fill="#4F008C"/>
<path d="M261.189 73.7283C261.189 73.7283 259.199 74.3541 260.044 76.6883L261.189 73.7283Z" fill="white"/>
<path d="M260.068 77.0012C260.003 77.0024 259.939 76.9832 259.885 76.9462C259.831 76.9091 259.79 76.8561 259.768 76.7947C259.615 76.4443 259.536 76.0661 259.536 75.6839C259.536 75.3017 259.615 74.9235 259.768 74.5731C260.053 74.0352 260.531 73.6258 261.107 73.428C261.187 73.4043 261.272 73.4126 261.346 73.4512C261.42 73.4897 261.475 73.5555 261.501 73.6345C261.525 73.7133 261.516 73.7982 261.478 73.8708C261.439 73.9434 261.373 73.9979 261.295 74.0225C260.879 74.1731 260.534 74.4717 260.325 74.861C260.207 75.1336 260.146 75.4275 260.146 75.7246C260.146 76.0216 260.207 76.3156 260.325 76.5881C260.351 76.6662 260.345 76.7513 260.309 76.825C260.272 76.8988 260.208 76.9553 260.131 76.9824C260.111 76.991 260.09 76.9973 260.068 77.0012Z" fill="#4F008C"/>
<path d="M276.614 104.617L264.593 78.4592L256.502 79.9736L268.755 118.403L276.614 104.617Z" fill="#A733FF"/>
<path d="M289.943 187.67C289.943 187.67 290.306 190.029 289.761 190.936C289.034 192.215 288.606 193.642 288.51 195.11C288.944 195.598 289.474 195.99 290.068 196.261C290.662 196.533 291.305 196.678 291.958 196.687C294.142 196.687 296.338 195.054 296.557 194.265C296.776 193.477 294.805 185.123 294.805 185.123L289.943 187.67Z" fill="white"/>
<path d="M291.939 197C291.238 196.997 290.546 196.847 289.906 196.559C289.267 196.271 288.695 195.852 288.228 195.329C288.203 195.297 288.185 195.259 288.174 195.22C288.163 195.18 288.16 195.138 288.166 195.098C288.265 193.581 288.712 192.108 289.474 190.792C289.874 190.129 289.711 188.358 289.618 187.732C289.607 187.668 289.618 187.602 289.647 187.543C289.676 187.485 289.723 187.437 289.78 187.407L294.624 184.866C294.666 184.845 294.714 184.834 294.761 184.834C294.809 184.834 294.856 184.845 294.899 184.866C294.942 184.886 294.98 184.916 295.011 184.953C295.041 184.99 295.063 185.033 295.074 185.079C295.544 187.056 297.071 193.577 296.82 194.384C296.564 195.26 294.305 197 291.939 197ZM288.81 195.01C289.632 195.861 290.757 196.351 291.939 196.374C293.998 196.374 296.044 194.81 296.244 194.171C296.363 193.671 295.487 189.453 294.574 185.592L290.287 187.845C290.368 188.471 290.531 190.26 290.031 191.099C289.338 192.295 288.923 193.632 288.817 195.01H288.81Z" fill="#4F008C"/>
<path d="M271.438 134.685L281.926 137.589L284.361 107.257C284.361 107.257 275.675 105.199 273.572 106.169C271.47 107.139 271.438 134.685 271.438 134.685Z" fill="white"/>
<path d="M281.927 137.902H281.845L271.332 134.986C271.266 134.968 271.207 134.929 271.166 134.874C271.124 134.82 271.101 134.754 271.101 134.685C271.101 130.048 271.251 106.888 273.416 105.899C275.581 104.911 284.054 106.882 284.405 106.97C284.477 106.986 284.541 107.028 284.584 107.088C284.628 107.148 284.649 107.221 284.642 107.295L282.214 137.626C282.21 137.672 282.197 137.716 282.174 137.756C282.151 137.796 282.12 137.831 282.083 137.858C282.036 137.887 281.982 137.902 281.927 137.902ZM271.751 134.447L281.645 137.188L284.023 107.501C281.451 106.913 275.262 105.724 273.704 106.456C272.515 107.001 271.776 121.075 271.751 134.447Z" fill="#4F008C"/>
<path d="M274.937 182.745V189.847L271.545 190.817L271.627 189.359L270.081 190.892C270.081 190.892 260.976 192.532 261.02 191.318C261.063 190.104 261.99 189.441 263.141 188.815C264.293 188.189 267.622 186.312 267.622 186.312L268.103 181.105" fill="white"/>
<path d="M262.753 192.075C262.123 192.142 261.487 192.029 260.919 191.75C260.855 191.696 260.804 191.627 260.77 191.55C260.736 191.473 260.721 191.389 260.725 191.305C260.775 189.922 261.852 189.165 263.009 188.558C264.167 187.951 266.695 186.525 267.333 186.162L267.803 181.155C267.807 181.114 267.818 181.074 267.837 181.038C267.857 181.001 267.883 180.969 267.914 180.942C267.946 180.916 267.983 180.896 268.022 180.884C268.061 180.871 268.103 180.867 268.144 180.871C268.185 180.874 268.225 180.886 268.261 180.905C268.298 180.924 268.33 180.951 268.357 180.982C268.383 181.014 268.403 181.05 268.416 181.09C268.428 181.129 268.432 181.171 268.429 181.212L267.94 186.418C267.938 186.469 267.922 186.518 267.894 186.561C267.867 186.604 267.829 186.638 267.784 186.662C267.753 186.662 264.524 188.502 263.297 189.165C262.071 189.829 261.389 190.373 261.345 191.381C261.764 191.781 266.119 191.337 269.943 190.655L271.407 189.19C271.45 189.144 271.507 189.114 271.569 189.102C271.631 189.091 271.695 189.1 271.751 189.128C271.809 189.153 271.858 189.195 271.892 189.249C271.925 189.302 271.942 189.365 271.939 189.428L271.883 190.442L274.624 189.66V182.776C274.624 182.693 274.657 182.614 274.715 182.555C274.774 182.496 274.854 182.463 274.937 182.463C275.02 182.463 275.099 182.496 275.158 182.555C275.217 182.614 275.25 182.693 275.25 182.776V189.879C275.249 189.947 275.226 190.014 275.184 190.068C275.143 190.122 275.084 190.161 275.018 190.179L271.633 191.149C271.584 191.162 271.534 191.163 271.485 191.154C271.436 191.144 271.39 191.123 271.351 191.093C271.311 191.062 271.279 191.022 271.259 190.976C271.238 190.93 271.229 190.88 271.232 190.83L271.27 190.204L270.312 191.162C270.268 191.206 270.211 191.237 270.149 191.249C267.707 191.702 265.235 191.978 262.753 192.075Z" fill="#4F008C"/>
<path d="M291.207 137.551L297.509 187.194C297.509 187.194 297.24 189.165 292.966 189.409C288.692 189.653 289.117 188.646 289.117 188.646L278.942 153.377L276.201 184.766L266.952 185.317L268.792 133.69L291.207 137.551Z" fill="#4F008C"/>
<path d="M291.733 189.747C290.156 189.747 289.23 189.522 288.91 189.071C288.824 188.95 288.784 188.801 288.798 188.652L279.111 155.06L276.508 184.785C276.502 184.859 276.469 184.928 276.416 184.98C276.363 185.031 276.294 185.062 276.22 185.066L266.983 185.636C266.941 185.639 266.898 185.633 266.858 185.618C266.818 185.603 266.782 185.579 266.752 185.548C266.72 185.519 266.695 185.483 266.678 185.443C266.662 185.403 266.655 185.36 266.658 185.317L268.491 133.69C268.492 133.646 268.503 133.602 268.522 133.562C268.542 133.522 268.57 133.487 268.604 133.459C268.638 133.43 268.679 133.41 268.722 133.399C268.765 133.388 268.811 133.387 268.854 133.396L291.263 137.245C291.328 137.256 291.388 137.287 291.434 137.334C291.48 137.382 291.51 137.442 291.52 137.507L297.821 187.144V187.225C297.821 187.319 297.465 189.453 292.984 189.729C292.527 189.735 292.108 189.747 291.733 189.747ZM289.405 188.759C289.449 188.759 289.837 189.259 292.947 189.084C296.564 188.884 297.127 187.407 297.196 187.169L290.938 137.814L269.105 134.059L267.296 184.991L275.919 184.453L278.641 153.333C278.633 153.25 278.658 153.167 278.711 153.103C278.764 153.038 278.84 152.997 278.923 152.989C279.006 152.981 279.089 153.006 279.153 153.059C279.218 153.112 279.259 153.188 279.267 153.271L289.442 188.546C289.464 188.613 289.464 188.685 289.442 188.752L289.405 188.759Z" fill="#4F008C"/>
<path d="M282.396 103.446C282.396 103.446 279.105 138.384 280.719 140.455C282.334 142.526 289.555 145.336 292.784 142.751C296.013 140.167 294.305 112.896 292.853 110.637C288.854 107.257 282.396 103.446 282.396 103.446Z" fill="#A733FF"/>
<path d="M268.829 104.711C268.829 104.711 261.945 138.64 262.934 139.61C263.923 140.58 270.581 142.633 272.033 141.663C273.485 140.693 276.645 104.617 276.645 104.617C276.645 104.617 270.894 102.94 268.829 104.711Z" fill="#A733FF"/>
<path d="M278.291 110.03L279.135 111.475L274.186 131.631L276.144 134.573L279.104 132.37L280.062 111.763L281.244 110.355L279.968 109.291L278.291 110.03Z" fill="#E9CCFF"/>
<path d="M277.34 102.045L276.089 106.306C276.089 106.306 276.057 108.415 279.111 108.609C282.165 108.803 283.185 106.976 283.185 106.976L285.256 98.9596C285.256 98.9596 283.848 97.2012 285.882 92.8207C282.838 92.7497 279.833 92.1131 277.021 90.9434C276.219 93.3914 275.553 95.8815 275.025 98.4027C274.687 100.712 277.34 102.045 277.34 102.045Z" fill="white"/>
<path d="M279.53 108.935C279.38 108.935 279.224 108.935 279.061 108.935C275.751 108.728 275.751 106.338 275.751 106.313C275.748 106.283 275.748 106.254 275.751 106.225L276.959 102.207C276.276 101.801 274.393 100.48 274.699 98.3777C275.037 96.0686 276.646 91.0811 276.708 90.8684C276.723 90.826 276.746 90.787 276.776 90.7537C276.806 90.7204 276.843 90.6935 276.883 90.6744C276.924 90.6573 276.968 90.6486 277.012 90.6486C277.056 90.6486 277.099 90.6573 277.14 90.6744C279.914 91.8096 282.873 92.4268 285.87 92.4954C285.922 92.4943 285.974 92.507 286.02 92.5322C286.066 92.5575 286.105 92.5944 286.132 92.6393C286.157 92.6855 286.17 92.7371 286.17 92.7895C286.17 92.8419 286.157 92.8935 286.132 92.9397C284.224 97.0448 285.457 98.7406 285.469 98.7531C285.499 98.7915 285.52 98.8363 285.53 98.8841C285.54 98.9319 285.538 98.9814 285.525 99.0285L283.429 107.063C283.424 107.09 283.413 107.116 283.398 107.139C283.392 107.207 282.384 108.935 279.53 108.935ZM276.402 106.344C276.402 106.613 276.614 108.14 279.13 108.296C281.746 108.465 282.741 107.088 282.885 106.851L284.937 98.9972C284.643 98.5028 283.88 96.6881 285.419 93.1024C282.612 92.9974 279.844 92.4132 277.234 91.3752C276.475 93.6972 275.849 96.0601 275.357 98.4528C275.056 100.505 277.484 101.751 277.509 101.763C277.574 101.798 277.624 101.853 277.653 101.92C277.681 101.987 277.686 102.062 277.666 102.132L276.402 106.344Z" fill="#4F008C"/>
<path d="M283.986 98.3339C284.2 97.9714 284.528 97.6897 284.918 97.5329C285.289 97.4057 285.678 97.3402 286.07 97.3389C286.282 97.3192 286.495 97.347 286.695 97.4202C286.829 97.4878 286.95 97.579 287.052 97.6893C287.312 97.9356 287.476 98.266 287.515 98.6217C287.511 98.908 287.438 99.1891 287.302 99.4415C287.175 99.7286 287.011 99.9979 286.814 100.242C286.612 100.479 286.364 100.673 286.087 100.813C285.809 100.954 285.506 101.038 285.195 101.061C284.885 101.085 284.573 101.046 284.277 100.949C283.982 100.851 283.708 100.696 283.473 100.493" fill="white"/>
<path d="M285.03 101.35C284.388 101.358 283.765 101.136 283.272 100.724C283.215 100.666 283.183 100.587 283.183 100.505C283.183 100.423 283.215 100.345 283.272 100.286C283.301 100.257 283.335 100.234 283.372 100.218C283.41 100.202 283.45 100.194 283.491 100.194C283.532 100.194 283.572 100.202 283.61 100.218C283.647 100.234 283.682 100.257 283.71 100.286C283.914 100.463 284.151 100.598 284.408 100.683C284.664 100.767 284.935 100.801 285.204 100.78C285.474 100.76 285.736 100.686 285.977 100.564C286.218 100.442 286.432 100.273 286.607 100.067C286.787 99.8458 286.936 99.6018 287.052 99.3413C287.165 99.1336 287.227 98.902 287.233 98.6655C287.193 98.3883 287.061 98.1327 286.858 97.9396C286.785 97.8562 286.698 97.7863 286.601 97.7331C286.441 97.6835 286.273 97.6665 286.107 97.683C285.751 97.6801 285.397 97.7394 285.062 97.8583C284.733 97.9865 284.456 98.2197 284.273 98.5216C284.226 98.5809 284.159 98.621 284.084 98.6345C284.01 98.648 283.933 98.6339 283.868 98.5949C283.803 98.5559 283.754 98.4946 283.731 98.4224C283.707 98.3502 283.711 98.272 283.741 98.2024C283.992 97.7822 284.375 97.4566 284.83 97.2763C285.232 97.1324 285.655 97.0604 286.082 97.0635C286.343 97.0348 286.607 97.0691 286.851 97.1636C287.025 97.2474 287.18 97.3643 287.308 97.5078C287.623 97.8039 287.818 98.2043 287.859 98.6342C287.86 98.9728 287.776 99.3063 287.615 99.6042C287.48 99.918 287.301 100.211 287.083 100.474C286.854 100.743 286.574 100.964 286.26 101.124C285.945 101.284 285.602 101.38 285.25 101.406L285.03 101.35Z" fill="#4F008C"/>
<path d="M278.128 94.9859C278.128 94.9859 275.894 96.6693 276.107 97.1699C276.32 97.6705 277.39 97.7957 277.39 97.7957" fill="white"/>
<path d="M277.39 98.0773C277.184 98.0773 276.138 97.9396 275.844 97.295C275.638 96.8132 276.351 95.9496 277.966 94.7356C277.999 94.711 278.036 94.693 278.076 94.6828C278.116 94.6726 278.157 94.6704 278.198 94.6762C278.238 94.682 278.278 94.6958 278.313 94.7167C278.348 94.7376 278.379 94.7653 278.404 94.7982C278.428 94.8311 278.446 94.8685 278.457 94.9083C278.467 94.9481 278.469 94.9895 278.463 95.0302C278.457 95.0708 278.444 95.11 278.423 95.1453C278.402 95.1807 278.374 95.2116 278.341 95.2362C277.352 95.9809 276.464 96.8507 276.433 97.1136C276.514 97.2763 277.058 97.4327 277.44 97.464C277.523 97.464 277.603 97.497 277.661 97.5556C277.72 97.6143 277.753 97.6939 277.753 97.7769C277.753 97.8599 277.72 97.9395 277.661 97.9981C277.603 98.0568 277.523 98.0898 277.44 98.0898L277.39 98.0773Z" fill="#4F008C"/>
<path d="M280.105 94.713C280.262 94.4565 280.244 94.1594 280.064 94.0493C279.884 93.9393 279.611 94.058 279.454 94.3144C279.297 94.5709 279.316 94.868 279.495 94.978C279.675 95.0881 279.948 94.9694 280.105 94.713Z" fill="#4F008C"/>
<path d="M277.678 93.8775C277.835 93.6211 277.816 93.3239 277.636 93.2139C277.456 93.1038 277.183 93.2225 277.026 93.479C276.869 93.7354 276.888 94.0325 277.068 94.1426C277.248 94.2526 277.521 94.134 277.678 93.8775Z" fill="#4F008C"/>
<path d="M276.539 98.6592L278.491 99.1348C278.491 99.1348 278.372 100.58 277.24 100.655C276.107 100.731 276.539 98.6592 276.539 98.6592Z" fill="white"/>
<path d="M277.202 100.968C277.07 100.971 276.939 100.946 276.818 100.893C276.697 100.84 276.589 100.761 276.501 100.662C275.969 100.036 276.201 98.7844 276.232 98.603C276.239 98.5606 276.254 98.5201 276.278 98.4845C276.302 98.4488 276.333 98.4188 276.37 98.3965C276.443 98.3524 276.531 98.3389 276.614 98.3589L278.56 98.8345C278.633 98.8508 278.697 98.8925 278.742 98.9521C278.787 99.0118 278.809 99.0855 278.804 99.1599C278.754 99.7857 278.372 100.9 277.277 100.968H277.202ZM276.802 99.0473C276.723 99.4554 276.783 99.878 276.971 100.249C277.002 100.286 277.043 100.314 277.09 100.331C277.136 100.347 277.185 100.351 277.233 100.343C277.822 100.305 278.047 99.7168 278.128 99.3727L276.802 99.0473Z" fill="#4F008C"/>
<path d="M277.34 102.045C277.34 102.045 279.568 102.67 280.769 102.333C280.769 102.333 279.211 104.642 276.614 104.617L277.34 102.045Z" fill="#4F008C"/>
<path d="M276.658 104.93H276.614C276.566 104.931 276.517 104.92 276.474 104.898C276.43 104.876 276.392 104.844 276.364 104.804C276.336 104.766 276.317 104.722 276.308 104.676C276.299 104.629 276.301 104.581 276.314 104.535L277.04 101.957C277.051 101.918 277.069 101.881 277.094 101.849C277.119 101.817 277.151 101.791 277.186 101.771C277.222 101.751 277.261 101.738 277.301 101.734C277.342 101.729 277.383 101.733 277.422 101.744C277.422 101.744 279.587 102.333 280.694 102.032C280.756 102.018 280.82 102.022 280.879 102.044C280.938 102.067 280.989 102.106 281.026 102.157C281.061 102.209 281.08 102.27 281.08 102.333C281.08 102.395 281.061 102.456 281.026 102.508C280.963 102.608 279.361 104.93 276.658 104.93ZM277.559 102.426L277.034 104.304C278.18 104.148 279.237 103.599 280.025 102.752C279.204 102.732 278.387 102.62 277.591 102.42L277.559 102.426Z" fill="#4F008C"/>
<path d="M267.484 138.265C267.438 138.265 267.393 138.255 267.352 138.236C267.31 138.216 267.274 138.188 267.246 138.152C267.219 138.121 267.199 138.085 267.186 138.046C267.173 138.007 267.169 137.966 267.172 137.925C267.176 137.884 267.187 137.844 267.206 137.808C267.225 137.772 267.252 137.74 267.283 137.714L271.238 134.441C271.302 134.389 271.384 134.365 271.466 134.373C271.548 134.381 271.624 134.421 271.676 134.485C271.703 134.516 271.723 134.552 271.736 134.591C271.749 134.63 271.754 134.671 271.75 134.712C271.747 134.753 271.735 134.792 271.716 134.829C271.697 134.865 271.67 134.897 271.639 134.923L267.684 138.196C267.626 138.24 267.556 138.264 267.484 138.265Z" fill="#4F008C"/>
<path d="M289.755 138.265C289.696 138.264 289.637 138.246 289.586 138.215C287.19 136.638 284.299 134.66 284.136 134.178C284.122 134.14 284.116 134.099 284.119 134.058C284.121 134.017 284.132 133.977 284.15 133.94C284.168 133.904 284.193 133.871 284.224 133.844C284.255 133.817 284.291 133.797 284.33 133.784C284.405 133.759 284.486 133.763 284.558 133.796C284.63 133.828 284.687 133.887 284.718 133.959C284.962 134.316 287.553 136.131 289.931 137.714C289.999 137.76 290.047 137.831 290.063 137.912C290.08 137.993 290.063 138.077 290.018 138.146C289.987 138.185 289.947 138.216 289.901 138.237C289.855 138.257 289.805 138.267 289.755 138.265Z" fill="#4F008C"/>
<path d="M274.392 119.335C274.342 119.336 274.292 119.324 274.247 119.301C274.203 119.278 274.164 119.245 274.135 119.203L270.212 113.684C270.164 113.612 270.146 113.525 270.162 113.44C270.18 113.358 270.229 113.286 270.299 113.24L272.803 111.638L270.781 110.292C270.743 110.266 270.712 110.232 270.688 110.193C270.665 110.153 270.65 110.109 270.646 110.063C270.641 110.017 270.646 109.971 270.661 109.927C270.676 109.884 270.7 109.844 270.731 109.811L273.635 106.907C273.664 106.878 273.699 106.854 273.737 106.838C273.775 106.823 273.816 106.814 273.857 106.814C273.898 106.814 273.939 106.823 273.977 106.838C274.015 106.854 274.05 106.878 274.079 106.907C274.109 106.935 274.133 106.969 274.149 107.007C274.166 107.044 274.174 107.085 274.174 107.126C274.174 107.167 274.166 107.208 274.149 107.245C274.133 107.283 274.109 107.317 274.079 107.345L271.445 109.98L273.547 111.381C273.591 111.411 273.627 111.451 273.651 111.498C273.675 111.545 273.687 111.597 273.685 111.65C273.685 111.702 273.672 111.753 273.646 111.797C273.621 111.842 273.585 111.88 273.541 111.907L270.913 113.59L274.667 118.84C274.714 118.909 274.733 118.993 274.719 119.075C274.705 119.157 274.659 119.23 274.592 119.279C274.533 119.319 274.463 119.339 274.392 119.335Z" fill="#4F008C"/>
<path d="M278.842 155.048C278.768 155.049 278.696 155.022 278.639 154.974C278.583 154.926 278.546 154.859 278.535 154.785C278.46 154.328 276.714 143.471 276.839 141.406C276.839 141.323 276.872 141.243 276.931 141.185C276.99 141.126 277.069 141.093 277.152 141.093C277.235 141.093 277.315 141.126 277.374 141.185C277.432 141.243 277.465 141.323 277.465 141.406C277.346 143.409 279.142 154.547 279.155 154.654C279.162 154.694 279.161 154.735 279.152 154.775C279.143 154.815 279.126 154.853 279.102 154.886C279.078 154.919 279.048 154.948 279.013 154.969C278.978 154.99 278.939 155.004 278.898 155.01L278.842 155.048Z" fill="white"/>
<path d="M288.529 97.3014C288.482 97.3108 288.433 97.3108 288.385 97.3014C288.311 97.2626 288.255 97.1963 288.229 97.1167C288.204 97.0372 288.21 96.9507 288.248 96.8758C288.649 96.0502 288.814 95.1293 288.723 94.2156C288.633 93.302 288.29 92.4314 287.734 91.7007L287.678 91.6318C287.539 91.4718 287.423 91.2927 287.334 91.0999C287.279 90.9464 287.243 90.7866 287.228 90.6243V90.5305C287.111 89.9401 286.869 89.3816 286.518 88.8926C286.167 88.4036 285.716 87.9955 285.194 87.6957C284.126 87.0706 282.954 86.6464 281.733 86.4441C280.803 86.2102 279.837 86.1529 278.886 86.2752C278.438 86.3338 278.01 86.4947 277.635 86.7453C277.259 86.996 276.947 87.3298 276.721 87.7207C276.524 88.0937 276.467 88.5244 276.558 88.936C276.65 89.3475 276.885 89.713 277.221 89.9673C277.256 89.989 277.287 90.0175 277.311 90.051C277.334 90.0845 277.352 90.1223 277.361 90.1624C277.37 90.2025 277.371 90.244 277.365 90.2846C277.358 90.3252 277.343 90.3641 277.322 90.399C277.3 90.434 277.271 90.4643 277.238 90.4882C277.204 90.5121 277.166 90.5292 277.126 90.5385C277.086 90.5478 277.045 90.5491 277.004 90.5424C276.964 90.5356 276.925 90.521 276.89 90.4992C276.422 90.1606 276.092 89.6655 275.959 89.1039C275.825 88.5423 275.898 87.9516 276.164 87.4391C276.433 86.9625 276.809 86.5543 277.261 86.2461C277.714 85.9379 278.231 85.738 278.773 85.6619C279.803 85.5228 280.85 85.5801 281.858 85.8309C283.153 86.0447 284.397 86.4921 285.532 87.1513C286.119 87.4974 286.627 87.9632 287.023 88.5184C287.418 89.0736 287.693 89.7058 287.828 90.374V90.4804C287.84 90.5951 287.863 90.7083 287.897 90.8183C287.966 90.9507 288.05 91.0746 288.147 91.1875L288.204 91.2564C288.84 92.079 289.231 93.0638 289.334 94.0984C289.437 95.133 289.247 96.1756 288.786 97.1074C288.765 97.1599 288.729 97.2057 288.684 97.2399C288.639 97.274 288.585 97.2953 288.529 97.3014Z" fill="#4F008C"/>
<path d="M282.828 120.693C282.751 120.693 282.676 120.666 282.615 120.618C282.558 120.558 282.525 120.479 282.525 120.396C282.525 120.313 282.558 120.233 282.615 120.173L287.24 114.942L284.737 111.863C284.703 111.819 284.681 111.768 284.672 111.713C284.663 111.658 284.668 111.602 284.687 111.55C284.707 111.499 284.74 111.455 284.783 111.421C284.826 111.387 284.877 111.364 284.931 111.356L288.204 110.812L284.987 106.675C284.937 106.61 284.914 106.527 284.925 106.445C284.935 106.363 284.978 106.288 285.043 106.237C285.108 106.186 285.191 106.163 285.273 106.172C285.355 106.182 285.43 106.223 285.481 106.287L289.017 110.837C289.051 110.879 289.073 110.93 289.081 110.984C289.088 111.038 289.081 111.093 289.061 111.143C289.043 111.195 289.011 111.24 288.969 111.274C288.927 111.308 288.877 111.33 288.823 111.337L285.563 111.882L287.878 114.754C287.926 114.81 287.953 114.881 287.953 114.954C287.953 115.028 287.926 115.099 287.878 115.155L283.078 120.593C283.047 120.627 283.008 120.654 282.965 120.671C282.921 120.688 282.875 120.696 282.828 120.693Z" fill="#4F008C"/>
<path d="M295.144 141.425C295.144 141.425 294.199 143.252 293.629 143.571C293.193 143.785 292.697 143.846 292.221 143.746C292.309 144.497 292.515 144.854 292.177 145.53C291.764 146.337 290.838 147.119 290.25 147.82C289.985 148.084 289.794 148.412 289.693 148.771C289.664 149.02 289.697 149.273 289.79 149.506C289.882 149.738 290.032 149.944 290.225 150.104C290.619 150.414 291.061 150.657 291.533 150.824C291.681 150.902 291.849 150.932 292.015 150.912C292.096 150.887 292.172 150.849 292.24 150.799C293.647 149.892 294.99 148.888 296.258 147.795C297.309 146.894 297.978 145.505 298.761 144.266" fill="white"/>
<path d="M291.909 151.237C291.737 151.228 291.569 151.185 291.414 151.112C290.908 150.935 290.436 150.672 290.019 150.336C289.784 150.141 289.604 149.888 289.494 149.604C289.385 149.319 289.35 149.011 289.393 148.709C289.505 148.296 289.72 147.919 290.019 147.614C290.213 147.388 290.444 147.144 290.682 146.9C291.156 146.454 291.567 145.944 291.902 145.386C292.077 145.043 292.109 144.645 291.99 144.278C291.99 144.128 291.94 143.972 291.915 143.784C291.91 143.735 291.917 143.687 291.934 143.641C291.952 143.595 291.979 143.554 292.015 143.521C292.05 143.487 292.092 143.461 292.139 143.447C292.186 143.433 292.236 143.43 292.284 143.44C292.689 143.526 293.112 143.475 293.485 143.296C294.06 142.708 294.53 142.027 294.875 141.281C294.912 141.207 294.977 141.151 295.056 141.126C295.134 141.1 295.22 141.106 295.294 141.143C295.368 141.182 295.424 141.248 295.45 141.328C295.476 141.407 295.469 141.494 295.432 141.569C295.263 141.888 294.405 143.502 293.786 143.847C293.419 144.036 293.009 144.124 292.597 144.103C292.597 144.103 292.597 144.147 292.597 144.172C292.736 144.672 292.682 145.205 292.447 145.668C292.089 146.285 291.642 146.846 291.12 147.332C290.888 147.57 290.669 147.795 290.494 148.021C290.269 148.246 290.101 148.523 290.006 148.828C289.986 149.024 290.015 149.222 290.092 149.403C290.168 149.585 290.29 149.744 290.444 149.867C290.809 150.156 291.219 150.382 291.658 150.536C291.746 150.567 291.877 150.63 291.946 150.605C291.993 150.588 292.037 150.565 292.077 150.536C293.471 149.636 294.801 148.64 296.057 147.557C296.836 146.794 297.486 145.911 297.985 144.942C298.154 144.66 298.316 144.378 298.492 144.103C298.535 144.033 298.604 143.984 298.684 143.965C298.763 143.946 298.847 143.96 298.917 144.003C298.987 144.046 299.037 144.115 299.055 144.195C299.074 144.275 299.06 144.359 299.017 144.429C298.848 144.704 298.686 144.979 298.523 145.261C297.991 146.29 297.296 147.226 296.464 148.033C295.186 149.133 293.836 150.145 292.422 151.062C292.323 151.13 292.213 151.181 292.096 151.212C292.035 151.23 291.972 151.238 291.909 151.237Z" fill="#4F008C"/>
<path d="M292.853 110.637C292.853 110.637 302.333 117.827 305.825 126.825C308.628 134.059 298.872 146.412 298.872 146.412L293.566 141.362C293.566 141.362 297.865 134.917 297.483 131.35C297.102 127.783 290.03 122.758 290.03 122.758L292.853 110.637Z" fill="#A733FF"/>
<path d="M294.379 130.993C294.297 130.992 294.218 130.958 294.16 130.9C294.101 130.841 294.068 130.763 294.066 130.68L293.96 118.046C293.959 118.005 293.966 117.964 293.981 117.926C293.996 117.887 294.019 117.852 294.047 117.823C294.076 117.793 294.11 117.769 294.147 117.753C294.185 117.736 294.226 117.727 294.267 117.727C294.349 117.728 294.428 117.762 294.486 117.82C294.544 117.878 294.578 117.957 294.58 118.04L294.686 130.674C294.686 130.758 294.653 130.838 294.595 130.897C294.536 130.957 294.457 130.991 294.373 130.993H294.379Z" fill="#4F008C"/>
<path d="M288.442 146.781C288.376 146.783 288.311 146.76 288.26 146.719C287.51 146.116 286.708 145.582 285.863 145.123C285.793 145.086 285.739 145.023 285.713 144.948C285.687 144.873 285.691 144.79 285.724 144.718C285.757 144.645 285.816 144.588 285.889 144.557C285.963 144.527 286.045 144.526 286.12 144.554C287.005 145.031 287.843 145.59 288.623 146.225C288.656 146.248 288.685 146.278 288.706 146.313C288.727 146.348 288.741 146.387 288.747 146.427C288.753 146.467 288.751 146.509 288.74 146.548C288.729 146.587 288.711 146.624 288.686 146.656C288.657 146.694 288.62 146.725 288.578 146.746C288.535 146.768 288.489 146.78 288.442 146.781Z" fill="white"/>
<path d="M268.998 145.968C268.945 145.968 268.893 145.954 268.847 145.928C268.801 145.901 268.762 145.863 268.735 145.818C268.714 145.782 268.699 145.743 268.693 145.702C268.687 145.662 268.689 145.62 268.699 145.58C268.708 145.54 268.726 145.502 268.751 145.468C268.775 145.435 268.806 145.407 268.842 145.386L272.108 143.427C272.143 143.4 272.184 143.38 272.227 143.369C272.27 143.358 272.315 143.356 272.359 143.364C272.403 143.372 272.444 143.389 272.481 143.415C272.518 143.44 272.549 143.473 272.572 143.511C272.595 143.549 272.609 143.592 272.614 143.636C272.619 143.681 272.615 143.725 272.601 143.768C272.588 143.81 272.565 143.849 272.535 143.882C272.505 143.915 272.468 143.942 272.427 143.959L269.161 145.924C269.111 145.951 269.055 145.966 268.998 145.968Z" fill="white"/>
<path d="M208.455 106.732H173.624V188.202H208.455V106.732Z" fill="white"/>
<path d="M208.455 106.732V188.202H173.624V106.732H208.455ZM208.455 106.156H173.624C173.473 106.158 173.328 106.219 173.221 106.327C173.114 106.435 173.055 106.58 173.055 106.732V188.202C173.055 188.353 173.115 188.497 173.221 188.604C173.328 188.711 173.473 188.771 173.624 188.771H208.455C208.606 188.771 208.751 188.711 208.858 188.604C208.964 188.497 209.024 188.353 209.024 188.202V106.732C209.024 106.58 208.965 106.435 208.858 106.327C208.751 106.219 208.606 106.158 208.455 106.156Z" fill="#4F008C"/>
<path d="M160.676 134.266H125.846V188.202H160.676V134.266Z" fill="white"/>
<path d="M160.677 134.266V188.202H125.846V134.266H160.677ZM160.677 133.69H125.846C125.694 133.692 125.549 133.753 125.443 133.861C125.336 133.969 125.276 134.114 125.276 134.266V188.202C125.276 188.353 125.336 188.497 125.443 188.604C125.55 188.711 125.695 188.771 125.846 188.771H160.677C160.828 188.771 160.972 188.711 161.079 188.604C161.186 188.497 161.246 188.353 161.246 188.202V134.266C161.247 134.191 161.233 134.116 161.204 134.046C161.176 133.976 161.134 133.913 161.081 133.859C161.028 133.806 160.965 133.763 160.896 133.734C160.826 133.705 160.752 133.69 160.677 133.69Z" fill="#4F008C"/>
<path d="M256.232 74.8673H221.401V188.202H256.232V74.8673Z" fill="white"/>
<path d="M256.232 74.8672V188.202H221.401V74.8672H256.232ZM256.232 74.2978H221.401C221.25 74.2978 221.106 74.3578 220.999 74.4646C220.892 74.5714 220.832 74.7162 220.832 74.8672V188.202C220.832 188.353 220.892 188.497 220.999 188.604C221.106 188.711 221.25 188.771 221.401 188.771H256.232C256.383 188.771 256.528 188.711 256.635 188.604C256.742 188.497 256.802 188.353 256.802 188.202V74.8672C256.802 74.7162 256.742 74.5714 256.635 74.4646C256.528 74.3578 256.383 74.2978 256.232 74.2978Z" fill="#4F008C"/>
<path d="M242.559 91.369L235.369 94.3101L244.305 98.4465L242.559 91.369Z" fill="#A733FF"/>
<path d="M190.695 177.088C191.951 175.963 193.371 175.036 194.907 174.341C195.032 178.846 193.204 182.989 191.515 185.824H186.021" fill="white"/>
<path d="M191.514 186.137H186.02C185.937 186.135 185.859 186.101 185.8 186.043C185.742 185.985 185.709 185.906 185.707 185.824C185.707 185.741 185.74 185.661 185.799 185.602C185.857 185.544 185.937 185.511 186.02 185.511H191.333C192.853 182.92 194.587 179.053 194.599 174.829C193.261 175.495 192.017 176.337 190.901 177.332C190.841 177.39 190.762 177.422 190.679 177.422C190.596 177.422 190.516 177.39 190.457 177.332C190.429 177.301 190.409 177.266 190.395 177.227C190.382 177.188 190.377 177.147 190.38 177.106C190.383 177.065 190.394 177.026 190.412 176.989C190.431 176.953 190.457 176.92 190.488 176.894C191.768 175.743 193.218 174.797 194.787 174.09C194.832 174.069 194.881 174.057 194.931 174.057C194.981 174.057 195.03 174.069 195.075 174.09C195.117 174.119 195.152 174.157 195.177 174.202C195.202 174.246 195.216 174.296 195.219 174.347C195.344 178.99 193.423 183.245 191.783 185.993C191.754 186.038 191.715 186.074 191.668 186.1C191.62 186.125 191.568 186.137 191.514 186.137Z" fill="#4F008C"/>
<path d="M182.822 178.302C184.174 171.256 189.706 166.831 189.706 166.831C190.728 170.148 191.069 173.636 190.707 177.088C190.43 180.072 189.799 183.013 188.83 185.849H182.922" fill="white"/>
<path d="M188.792 186.137H182.885C182.803 186.135 182.724 186.101 182.666 186.043C182.607 185.985 182.574 185.906 182.572 185.824C182.572 185.741 182.605 185.661 182.664 185.602C182.722 185.544 182.802 185.511 182.885 185.511H188.567C189.498 182.775 190.107 179.94 190.382 177.063C190.724 173.812 190.437 170.525 189.537 167.382C188.285 168.49 184.249 172.538 183.129 178.358C183.114 178.439 183.067 178.511 182.999 178.558C182.931 178.605 182.847 178.623 182.766 178.608C182.684 178.592 182.613 178.544 182.566 178.475C182.519 178.406 182.501 178.321 182.516 178.239C183.874 171.168 189.437 166.631 189.493 166.587C189.534 166.557 189.581 166.536 189.631 166.526C189.681 166.516 189.732 166.518 189.781 166.531C189.829 166.547 189.873 166.574 189.909 166.61C189.945 166.646 189.972 166.689 189.988 166.737C191.035 170.092 191.382 173.625 191.008 177.119C190.719 180.125 190.077 183.087 189.093 185.943C189.068 186.001 189.026 186.051 188.972 186.086C188.919 186.12 188.856 186.138 188.792 186.137Z" fill="#4F008C"/>
<path d="M179.907 185.824H185.138C185.188 184.272 184.838 181.931 183.155 178.89C183.042 178.684 182.936 178.49 182.823 178.302C179.794 173.17 177.022 173.227 177.022 173.227C175.852 178.627 178.324 183.439 179.907 185.824Z" fill="white"/>
<path d="M185.138 186.137H179.906C179.854 186.135 179.803 186.122 179.758 186.097C179.712 186.072 179.673 186.036 179.644 185.993C178.035 183.571 175.52 178.677 176.715 173.158C176.731 173.09 176.77 173.029 176.824 172.985C176.878 172.941 176.945 172.916 177.015 172.914C177.128 172.914 180 172.914 183.092 178.139L183.43 178.734C185.188 181.919 185.495 184.366 185.451 185.836C185.448 185.917 185.413 185.993 185.355 186.049C185.297 186.105 185.219 186.137 185.138 186.137ZM180.075 185.511H184.825C184.732 183.225 184.065 181 182.885 179.04L182.553 178.458C180.182 174.453 177.985 173.709 177.272 173.571C176.283 178.646 178.549 183.164 180.075 185.511Z" fill="#4F008C"/>
<path d="M180.858 194.115H191.115L192.767 185.824H179.206L180.858 194.115Z" fill="#4F008C"/>
<path d="M120.946 188.796H100.496C100.413 188.796 100.333 188.763 100.274 188.704C100.216 188.646 100.183 188.566 100.183 188.483C100.183 188.4 100.216 188.321 100.274 188.262C100.333 188.203 100.413 188.17 100.496 188.17H120.946C121.028 188.172 121.107 188.205 121.165 188.264C121.224 188.322 121.257 188.401 121.259 188.483C121.259 188.566 121.226 188.646 121.167 188.704C121.108 188.763 121.029 188.796 120.946 188.796Z" fill="#E9CCFF"/>
<path d="M117.129 186.531C117.016 186.531 116.906 186.5 116.81 186.443C116.713 186.385 116.634 186.303 116.58 186.205C116.527 186.106 116.5 185.995 116.504 185.883C116.508 185.771 116.542 185.662 116.603 185.567L144.225 142.764C144.276 142.683 144.346 142.614 144.429 142.564C144.511 142.514 144.604 142.484 144.7 142.476C144.795 142.468 144.891 142.482 144.98 142.517C145.069 142.551 145.149 142.606 145.213 142.676L167.253 166.543L192.647 119.936C192.697 119.846 192.768 119.77 192.855 119.714C192.941 119.659 193.039 119.625 193.142 119.617C193.243 119.608 193.345 119.623 193.439 119.663C193.532 119.702 193.615 119.763 193.68 119.842L216.101 147.376L240.469 93.9659C240.538 93.8149 240.664 93.6974 240.82 93.6393C240.975 93.5812 241.147 93.5873 241.298 93.6562C241.449 93.7251 241.567 93.8511 241.625 94.0066C241.683 94.1621 241.677 94.3343 241.608 94.4853L216.821 148.815C216.777 148.913 216.708 148.998 216.621 149.061C216.535 149.125 216.433 149.165 216.327 149.178C216.221 149.191 216.114 149.176 216.015 149.136C215.916 149.095 215.83 149.03 215.763 148.947L193.298 121.331L167.935 167.883C167.888 167.969 167.821 168.043 167.739 168.098C167.657 168.154 167.564 168.189 167.466 168.202C167.367 168.215 167.267 168.204 167.174 168.17C167.08 168.136 166.996 168.081 166.928 168.008L144.844 144.078L117.654 186.243C117.598 186.331 117.52 186.404 117.428 186.454C117.336 186.504 117.233 186.531 117.129 186.531Z" fill="#A733FF"/>
<path d="M143.292 248.16H144.252C145.708 248.16 146.772 247.864 147.444 247.272C148.132 246.68 148.468 245.696 148.452 244.32C148.452 243.952 148.428 243.568 148.38 243.168C148.332 242.752 148.268 242.312 148.188 241.848L147.684 238.656L150.3 238.248L150.66 240.48C150.724 240.832 150.772 241.168 150.804 241.488C150.852 241.808 150.892 242.112 150.924 242.4H153.132V245.28L152.412 246H150.924C150.652 247.776 149.948 249.176 148.812 250.2C147.692 251.24 146.18 251.76 144.276 251.76H143.292V248.16ZM152.162 243.12L152.882 242.4H153.578C154.154 242.4 154.626 242.376 154.994 242.328C155.378 242.28 155.682 242.2 155.906 242.088C156.146 241.96 156.306 241.808 156.386 241.632C156.482 241.44 156.53 241.208 156.53 240.936C156.53 240.696 156.506 240.392 156.458 240.024C156.426 239.64 156.354 239.144 156.242 238.536L155.834 236.304L158.45 235.872L158.81 238.104C158.89 238.536 158.954 239.016 159.002 239.544C159.05 240.072 159.074 240.536 159.074 240.936C159.074 242.68 158.642 243.96 157.778 244.776C156.93 245.592 155.53 246 153.578 246H152.162V243.12ZM158.282 251.16C157.866 251.16 157.522 251.032 157.25 250.776C156.994 250.52 156.866 250.112 156.866 249.552C156.866 248.992 156.994 248.584 157.25 248.328C157.522 248.072 157.866 247.944 158.282 247.944H158.762C159.178 247.944 159.514 248.072 159.77 248.328C160.042 248.584 160.178 248.992 160.178 249.552C160.178 250.112 160.042 250.52 159.77 250.776C159.514 251.032 159.178 251.16 158.762 251.16H158.282ZM154.49 251.16C154.074 251.16 153.73 251.032 153.458 250.776C153.202 250.52 153.074 250.112 153.074 249.552C153.074 248.992 153.202 248.584 153.458 248.328C153.73 248.072 154.074 247.944 154.49 247.944H154.97C155.386 247.944 155.722 248.072 155.978 248.328C156.25 248.584 156.386 248.992 156.386 249.552C156.386 250.112 156.25 250.52 155.978 250.776C155.722 251.032 155.386 251.16 154.97 251.16H154.49ZM160.999 248.16H161.959C163.415 248.16 164.479 247.864 165.151 247.272C165.839 246.68 166.175 245.696 166.159 244.32C166.159 243.952 166.135 243.568 166.087 243.168C166.039 242.752 165.975 242.312 165.895 241.848L165.391 238.656L168.007 238.248L168.367 240.48C168.495 241.248 168.591 241.96 168.655 242.616C168.735 243.256 168.775 243.784 168.775 244.2C168.775 245.352 168.631 246.392 168.343 247.32C168.055 248.248 167.623 249.04 167.047 249.696C166.471 250.368 165.759 250.88 164.911 251.232C164.063 251.584 163.087 251.76 161.983 251.76H160.999V248.16ZM175.587 246C173.971 246 172.771 245.616 171.987 244.848C171.203 244.08 170.811 242.832 170.811 241.104V228.24H173.691V240.624C173.691 241.344 173.835 241.824 174.123 242.064C174.411 242.288 174.907 242.4 175.611 242.4H176.331V245.28L175.611 246H175.587ZM175.372 243.12L176.092 242.4H178.66L178.708 242.28C178.1 241.672 177.676 241.032 177.436 240.36C177.212 239.672 177.1 239.008 177.1 238.368C177.1 237.648 177.212 236.976 177.436 236.352C177.66 235.712 177.98 235.16 178.396 234.696C178.812 234.216 179.308 233.84 179.884 233.568C180.476 233.296 181.124 233.16 181.828 233.16C182.532 233.16 183.172 233.296 183.748 233.568C184.34 233.84 184.844 234.216 185.26 234.696C185.676 235.16 185.996 235.712 186.22 236.352C186.444 236.976 186.556 237.648 186.556 238.368C186.556 239.008 186.436 239.672 186.196 240.36C185.972 241.032 185.556 241.672 184.948 242.28L184.996 242.4H187.66V245.28L186.94 246H186.7C185.836 246 184.996 245.888 184.18 245.664C183.364 245.44 182.588 245.04 181.852 244.464C181.116 245.04 180.34 245.44 179.524 245.664C178.708 245.888 177.868 246 177.004 246H175.372V243.12ZM181.828 242.088C182.644 241.624 183.26 241.144 183.676 240.648C184.092 240.136 184.3 239.56 184.3 238.92C184.3 238.248 184.076 237.72 183.628 237.336C183.18 236.952 182.628 236.76 181.972 236.76H181.684C181.028 236.76 180.476 236.952 180.028 237.336C179.58 237.72 179.356 238.248 179.356 238.92C179.356 239.56 179.564 240.136 179.98 240.648C180.396 241.144 181.012 241.624 181.828 242.088ZM183.484 231.24C183.068 231.24 182.724 231.112 182.452 230.856C182.196 230.6 182.068 230.192 182.068 229.632C182.068 229.072 182.196 228.664 182.452 228.408C182.724 228.152 183.068 228.024 183.484 228.024H183.964C184.38 228.024 184.716 228.152 184.972 228.408C185.244 228.664 185.38 229.072 185.38 229.632C185.38 230.192 185.244 230.6 184.972 230.856C184.716 231.112 184.38 231.24 183.964 231.24H183.484ZM179.692 231.24C179.276 231.24 178.932 231.112 178.66 230.856C178.404 230.6 178.276 230.192 178.276 229.632C178.276 229.072 178.404 228.664 178.66 228.408C178.932 228.152 179.276 228.024 179.692 228.024H180.172C180.588 228.024 180.924 228.152 181.18 228.408C181.452 228.664 181.588 229.072 181.588 229.632C181.588 230.192 181.452 230.6 181.18 230.856C180.924 231.112 180.588 231.24 180.172 231.24H179.692ZM186.71 243.12L187.43 242.4H188.126C188.702 242.4 189.174 242.376 189.542 242.328C189.926 242.28 190.23 242.2 190.454 242.088C190.694 241.96 190.854 241.808 190.934 241.632C191.03 241.44 191.078 241.208 191.078 240.936C191.078 240.696 191.054 240.392 191.006 240.024C190.974 239.64 190.902 239.144 190.79 238.536L190.382 236.304L192.998 235.872L193.358 238.104C193.438 238.536 193.502 239.016 193.55 239.544C193.598 240.072 193.622 240.536 193.622 240.936C193.622 242.68 193.19 243.96 192.326 244.776C191.478 245.592 190.078 246 188.126 246H186.71V243.12ZM192.974 233.952C192.558 233.952 192.214 233.824 191.942 233.568C191.686 233.312 191.558 232.904 191.558 232.344C191.558 231.784 191.686 231.376 191.942 231.12C192.214 230.864 192.558 230.736 192.974 230.736H193.454C193.87 230.736 194.206 230.864 194.462 231.12C194.734 231.376 194.87 231.784 194.87 232.344C194.87 232.904 194.734 233.312 194.462 233.568C194.206 233.824 193.87 233.952 193.454 233.952H192.974ZM189.182 233.952C188.766 233.952 188.422 233.824 188.15 233.568C187.894 233.312 187.766 232.904 187.766 232.344C187.766 231.784 187.894 231.376 188.15 231.12C188.422 230.864 188.766 230.736 189.182 230.736H189.662C190.078 230.736 190.414 230.864 190.67 231.12C190.942 231.376 191.078 231.784 191.078 232.344C191.078 232.904 190.942 233.312 190.67 233.568C190.414 233.824 190.078 233.952 189.662 233.952H189.182ZM203.712 246C202.592 246 201.736 245.72 201.144 245.16C200.552 244.6 200.256 243.704 200.256 242.472V240.864H203.016V242.4H206.304C206.832 242.4 207.216 242.32 207.456 242.16C207.712 242 207.84 241.736 207.84 241.368C207.84 241.192 207.8 240.984 207.72 240.744C207.656 240.504 207.584 240.264 207.504 240.024L205.392 233.952L208.464 232.872L210.888 239.808C211.064 240.336 211.24 240.768 211.416 241.104C211.592 241.44 211.776 241.704 211.968 241.896C212.176 242.088 212.392 242.224 212.616 242.304C212.856 242.368 213.136 242.4 213.456 242.4H214.176V245.28L213.456 246C212.784 246 212.2 245.952 211.704 245.856C211.208 245.76 210.76 245.584 210.36 245.328C209.976 245.072 209.624 244.736 209.304 244.32C209 243.904 208.704 243.368 208.416 242.712L208.32 242.76C208.224 243.336 208.088 243.832 207.912 244.248C207.752 244.664 207.544 245 207.288 245.256C207.032 245.512 206.72 245.704 206.352 245.832C205.984 245.944 205.544 246 205.032 246H203.712ZM213.224 243.12L213.944 242.4H215.6C216.496 242.4 217.296 242.392 218 242.376C218.72 242.344 219.4 242.28 220.04 242.184C220.68 242.088 221.304 241.944 221.912 241.752C222.52 241.56 223.168 241.296 223.856 240.96L224.744 240.528V240.408L220.904 239.592L217.28 238.704V240.504H214.52V238.656C214.52 237.52 214.76 236.688 215.24 236.16C215.736 235.632 216.488 235.368 217.496 235.368C217.624 235.368 217.752 235.376 217.88 235.392C218.024 235.408 218.184 235.432 218.36 235.464C218.552 235.496 218.776 235.544 219.032 235.608C219.288 235.672 219.608 235.752 219.992 235.848L224.624 237.048C225.264 237.224 225.952 237.36 226.688 237.456C227.424 237.552 228.152 237.6 228.872 237.6H229.352V241.2H227.48L225.224 242.736C224.168 243.456 223.216 244.032 222.368 244.464C221.536 244.88 220.744 245.208 219.992 245.448C219.24 245.672 218.512 245.824 217.808 245.904C217.104 245.968 216.368 246 215.6 246H213.224V243.12ZM221.504 251.16C221.088 251.16 220.744 251.032 220.472 250.776C220.216 250.52 220.088 250.112 220.088 249.552C220.088 248.992 220.216 248.584 220.472 248.328C220.744 248.072 221.088 247.944 221.504 247.944H221.984C222.4 247.944 222.736 248.072 222.992 248.328C223.264 248.584 223.4 248.992 223.4 249.552C223.4 250.112 223.264 250.52 222.992 250.776C222.736 251.032 222.4 251.16 221.984 251.16H221.504ZM230.315 248.16H231.851C233.371 248.16 234.587 247.968 235.499 247.584C236.427 247.2 237.083 246.672 237.467 246H234.683C233.387 246 232.371 245.624 231.635 244.872C230.915 244.104 230.555 243.04 230.555 241.68C230.555 240.848 230.675 240.08 230.915 239.376C231.171 238.656 231.515 238.04 231.947 237.528C232.395 237 232.915 236.592 233.507 236.304C234.115 236 234.771 235.848 235.475 235.848C236.931 235.848 238.083 236.424 238.931 237.576C239.779 238.728 240.243 240.336 240.323 242.4H241.547V245.28L240.827 246H240.011C239.563 247.84 238.675 249.256 237.347 250.248C236.035 251.256 234.283 251.76 232.091 251.76H230.315V248.16ZM232.955 241.2C232.955 241.632 233.131 241.944 233.483 242.136C233.835 242.312 234.315 242.4 234.923 242.4H237.923V242.328C237.923 241.464 237.659 240.768 237.131 240.24C236.619 239.712 235.963 239.448 235.163 239.448C234.539 239.448 234.011 239.616 233.579 239.952C233.163 240.272 232.955 240.688 232.955 241.2ZM240.588 243.12L241.308 242.4H242.004C242.58 242.4 243.052 242.376 243.42 242.328C243.804 242.28 244.108 242.2 244.332 242.088C244.572 241.96 244.732 241.808 244.812 241.632C244.908 241.44 244.956 241.208 244.956 240.936C244.956 240.696 244.932 240.392 244.884 240.024C244.852 239.64 244.78 239.144 244.668 238.536L244.26 236.304L246.876 235.872L247.236 238.104C247.316 238.536 247.38 239.016 247.428 239.544C247.476 240.072 247.5 240.536 247.5 240.936C247.5 242.68 247.068 243.96 246.204 244.776C245.356 245.592 243.956 246 242.004 246H240.588V243.12ZM246.708 251.16C246.292 251.16 245.948 251.032 245.676 250.776C245.42 250.52 245.292 250.112 245.292 249.552C245.292 248.992 245.42 248.584 245.676 248.328C245.948 248.072 246.292 247.944 246.708 247.944H247.188C247.604 247.944 247.94 248.072 248.196 248.328C248.468 248.584 248.604 248.992 248.604 249.552C248.604 250.112 248.468 250.52 248.196 250.776C247.94 251.032 247.604 251.16 247.188 251.16H246.708ZM242.916 251.16C242.5 251.16 242.156 251.032 241.884 250.776C241.628 250.52 241.5 250.112 241.5 249.552C241.5 248.992 241.628 248.584 241.884 248.328C242.156 248.072 242.5 247.944 242.916 247.944H243.396C243.812 247.944 244.148 248.072 244.404 248.328C244.676 248.584 244.812 248.992 244.812 249.552C244.812 250.112 244.676 250.52 244.404 250.776C244.148 251.032 243.812 251.16 243.396 251.16H242.916ZM254.374 242.4L258.502 238.68L252.934 233.448L255.022 231.192L260.782 236.616C261.054 236.312 261.246 235.984 261.358 235.632C261.486 235.264 261.55 234.784 261.55 234.192V228.24H264.43V234.192C264.43 234.608 264.39 234.992 264.31 235.344C264.246 235.696 264.134 236.032 263.974 236.352C263.83 236.672 263.63 236.984 263.374 237.288C263.118 237.576 262.814 237.88 262.462 238.2L263.302 238.968C263.638 239.288 263.926 239.592 264.166 239.88C264.406 240.168 264.598 240.456 264.742 240.744C264.886 241.032 264.99 241.336 265.054 241.656C265.118 241.96 265.15 242.288 265.15 242.64C265.15 243.12 265.062 243.568 264.886 243.984C264.726 244.384 264.494 244.736 264.19 245.04C263.902 245.344 263.558 245.584 263.158 245.76C262.758 245.92 262.318 246 261.838 246H254.374V242.4ZM260.11 240.168L257.566 242.304L257.59 242.4H262.51L260.11 240.168Z" fill="black"/>
<path d="M64.3947 283.192C64 283.192 63.7067 283.091 63.5147 282.888C63.3227 282.675 63.2267 282.413 63.2267 282.104V281.864C63.2267 281.555 63.3227 281.299 63.5147 281.096C63.7067 280.883 64 280.776 64.3947 280.776C64.7894 280.776 65.0827 280.883 65.2747 281.096C65.4667 281.299 65.5627 281.555 65.5627 281.864V282.104C65.5627 282.413 65.4667 282.675 65.2747 282.888C65.0827 283.091 64.7894 283.192 64.3947 283.192ZM74.3313 283.08C73.7553 283.08 73.2433 283 72.7953 282.84C72.358 282.669 72.006 282.387 71.7393 281.992C71.4833 281.587 71.3393 281.027 71.3073 280.312L71.0513 274.744H72.3473L72.6033 280.024C72.6353 280.525 72.726 280.904 72.8753 281.16C73.0247 281.405 73.2327 281.571 73.4993 281.656C73.7767 281.731 74.1073 281.768 74.4913 281.768C74.7153 281.768 74.8753 281.832 74.9713 281.96C75.078 282.077 75.1313 282.221 75.1313 282.392C75.1313 282.563 75.0567 282.723 74.9073 282.872C74.758 283.011 74.566 283.08 74.3313 283.08ZM71.9153 281.32C71.3073 281.512 70.7153 281.608 70.1393 281.608C69.5633 281.608 69.0407 281.523 68.5713 281.352C68.102 281.181 67.7287 280.936 67.4513 280.616C67.174 280.285 67.0353 279.891 67.0353 279.432C67.0353 278.984 67.1473 278.563 67.3713 278.168C67.606 277.773 67.9207 277.421 68.3153 277.112C68.7207 276.803 69.1847 276.547 69.7073 276.344C70.2407 276.131 70.806 275.987 71.4033 275.912L71.6273 277.256C71.094 277.277 70.6193 277.352 70.2033 277.48C69.798 277.597 69.4513 277.752 69.1633 277.944C68.886 278.136 68.6727 278.344 68.5233 278.568C68.374 278.792 68.2993 279.011 68.2993 279.224C68.2993 279.459 68.3847 279.651 68.5553 279.8C68.726 279.949 68.9447 280.067 69.2113 280.152C69.478 280.227 69.7713 280.275 70.0913 280.296C70.4113 280.307 70.7207 280.296 71.0193 280.264C71.318 280.221 71.574 280.163 71.7873 280.088L71.9153 281.32ZM71.5793 272.904C71.3553 272.904 71.1633 272.829 71.0033 272.68C70.854 272.52 70.7793 272.333 70.7793 272.12C70.7793 271.907 70.854 271.72 71.0033 271.56C71.1633 271.4 71.3553 271.32 71.5793 271.32C71.7927 271.32 71.974 271.4 72.1233 271.56C72.2833 271.72 72.3633 271.907 72.3633 272.12C72.3633 272.333 72.2833 272.52 72.1233 272.68C71.974 272.829 71.7927 272.904 71.5793 272.904ZM69.3873 272.904C69.1633 272.904 68.9713 272.829 68.8113 272.68C68.662 272.52 68.5873 272.333 68.5873 272.12C68.5873 271.907 68.662 271.72 68.8113 271.56C68.9713 271.4 69.1633 271.32 69.3873 271.32C69.6007 271.32 69.782 271.4 69.9313 271.56C70.0913 271.72 70.1713 271.907 70.1713 272.12C70.1713 272.333 70.0913 272.52 69.9313 272.68C69.782 272.829 69.6007 272.904 69.3873 272.904ZM74.1766 283.08L74.3366 281.768C74.9659 281.768 75.4566 281.747 75.8086 281.704C76.1606 281.651 76.4112 281.528 76.5606 281.336C76.7099 281.133 76.7846 280.819 76.7846 280.392C76.7846 280.125 76.7419 279.811 76.6566 279.448C76.5712 279.075 76.4592 278.68 76.3206 278.264C76.1819 277.848 76.0326 277.437 75.8726 277.032L77.1686 276.552C77.3072 276.893 77.4352 277.283 77.5526 277.72C77.6806 278.157 77.7872 278.589 77.8726 279.016C77.9579 279.443 78.0006 279.816 78.0006 280.136C78.0006 280.669 77.9259 281.123 77.7766 281.496C77.6379 281.869 77.4139 282.173 77.1046 282.408C76.7952 282.643 76.3952 282.813 75.9046 282.92C75.4246 283.027 74.8486 283.08 74.1766 283.08ZM77.1366 286.104C76.9126 286.104 76.7206 286.024 76.5606 285.864C76.4112 285.715 76.3366 285.533 76.3366 285.32C76.3366 285.107 76.4112 284.92 76.5606 284.76C76.7206 284.6 76.9126 284.52 77.1366 284.52C77.3499 284.52 77.5312 284.6 77.6806 284.76C77.8406 284.92 77.9206 285.107 77.9206 285.32C77.9206 285.533 77.8406 285.715 77.6806 285.864C77.5312 286.024 77.3499 286.104 77.1366 286.104ZM74.9446 286.104C74.7206 286.104 74.5286 286.024 74.3686 285.864C74.2192 285.715 74.1446 285.533 74.1446 285.32C74.1446 285.107 74.2192 284.92 74.3686 284.76C74.5286 284.6 74.7206 284.52 74.9446 284.52C75.1579 284.52 75.3392 284.6 75.4886 284.76C75.6486 284.92 75.7286 285.107 75.7286 285.32C75.7286 285.533 75.6486 285.715 75.4886 285.864C75.3392 286.024 75.1579 286.104 74.9446 286.104ZM78.8618 286.712L78.3978 285.496C79.1765 285.24 79.8218 284.947 80.3338 284.616C80.8565 284.285 81.2672 283.933 81.5658 283.56C81.8752 283.187 82.0938 282.808 82.2218 282.424C82.3498 282.029 82.4138 281.651 82.4138 281.288C82.4138 280.765 82.2965 280.237 82.0618 279.704C81.8378 279.16 81.5872 278.648 81.3098 278.168L82.4778 277.576C82.6805 277.949 82.8565 278.317 83.0058 278.68C83.1658 279.043 83.3045 279.384 83.4218 279.704C83.5498 280.024 83.6512 280.317 83.7258 280.584C83.8752 281.043 84.0672 281.357 84.3018 281.528C84.5472 281.688 84.8778 281.768 85.2938 281.768C85.5178 281.768 85.6778 281.832 85.7738 281.96C85.8805 282.077 85.9338 282.221 85.9338 282.392C85.9338 282.563 85.8592 282.723 85.7098 282.872C85.5605 283.011 85.3685 283.08 85.1338 283.08C84.6645 283.08 84.2805 283 83.9818 282.84C83.6938 282.669 83.4752 282.451 83.3258 282.184C83.1765 281.907 83.0752 281.619 83.0218 281.32L83.5338 281.608C83.5338 282.312 83.3738 282.952 83.0538 283.528C82.7445 284.115 82.3445 284.621 81.8538 285.048C81.3632 285.485 80.8512 285.843 80.3178 286.12C79.7845 286.397 79.2992 286.595 78.8618 286.712ZM84.9816 283.08L85.1416 281.768C85.4829 281.768 85.7602 281.747 85.9736 281.704C86.1869 281.651 86.3629 281.528 86.5016 281.336C86.6509 281.133 86.7896 280.819 86.9176 280.392C87.0456 279.965 87.1949 279.368 87.3656 278.6L88.5656 278.936C88.5016 279.203 88.4269 279.523 88.3416 279.896C88.2562 280.269 88.2136 280.611 88.2136 280.92C88.2136 281.091 88.2562 281.24 88.3416 281.368C88.4269 281.496 88.5709 281.597 88.7736 281.672C88.9869 281.736 89.2696 281.768 89.6216 281.768C89.9416 281.768 90.2029 281.741 90.4056 281.688C90.6082 281.635 90.7736 281.507 90.9016 281.304C91.0402 281.101 91.1629 280.776 91.2696 280.328C91.3762 279.88 91.4882 279.267 91.6056 278.488L92.8216 278.712C92.7896 278.904 92.7522 279.139 92.7096 279.416C92.6669 279.693 92.6242 279.971 92.5816 280.248C92.5496 280.515 92.5336 280.739 92.5336 280.92C92.5336 281.069 92.5656 281.213 92.6296 281.352C92.7042 281.48 92.8429 281.581 93.0456 281.656C93.2589 281.731 93.5736 281.768 93.9896 281.768C94.5229 281.768 94.9069 281.656 95.1416 281.432C95.3869 281.208 95.5096 280.867 95.5096 280.408C95.5096 280.163 95.5042 279.907 95.4936 279.64C95.4829 279.363 95.4616 279.059 95.4296 278.728C95.4082 278.387 95.3709 277.997 95.3176 277.56L96.4856 277.48C96.5496 278.344 96.6189 279.053 96.6936 279.608C96.7789 280.163 96.8962 280.6 97.0456 280.92C97.2056 281.229 97.4189 281.448 97.6856 281.576C97.9522 281.704 98.3042 281.768 98.7416 281.768C98.9656 281.768 99.1256 281.832 99.2216 281.96C99.3282 282.077 99.3816 282.221 99.3816 282.392C99.3816 282.563 99.3069 282.723 99.1576 282.872C99.0082 283.011 98.8162 283.08 98.5816 283.08C98.2189 283.08 97.8936 283.032 97.6056 282.936C97.3282 282.829 97.0829 282.691 96.8696 282.52C96.6669 282.339 96.4962 282.136 96.3576 281.912C96.2296 281.677 96.1389 281.432 96.0856 281.176L96.3736 281.272C96.2562 281.752 96.0696 282.125 95.8136 282.392C95.5682 282.648 95.2749 282.829 94.9336 282.936C94.5922 283.032 94.2296 283.08 93.8456 283.08C93.3762 283.08 92.9922 283.021 92.6936 282.904C92.3949 282.787 92.1602 282.611 91.9896 282.376C91.8296 282.131 91.7229 281.821 91.6696 281.448H92.2136C92.0109 281.907 91.7976 282.253 91.5736 282.488C91.3496 282.723 91.0722 282.883 90.7416 282.968C90.4109 283.043 89.9736 283.08 89.4296 283.08C89.1629 283.08 88.8749 283.037 88.5656 282.952C88.2669 282.867 88.0056 282.701 87.7816 282.456C87.5576 282.2 87.4242 281.821 87.3816 281.32L87.8616 281.224C87.6802 281.768 87.4562 282.173 87.1896 282.44C86.9336 282.696 86.6242 282.867 86.2616 282.952C85.8989 283.037 85.4722 283.08 84.9816 283.08ZM91.8776 274.28C91.6536 274.28 91.4616 274.205 91.3016 274.056C91.1522 273.896 91.0776 273.709 91.0776 273.496C91.0776 273.283 91.1522 273.096 91.3016 272.936C91.4616 272.776 91.6536 272.696 91.8776 272.696C92.0909 272.696 92.2722 272.776 92.4216 272.936C92.5816 273.096 92.6616 273.283 92.6616 273.496C92.6616 273.709 92.5816 273.896 92.4216 274.056C92.2722 274.205 92.0909 274.28 91.8776 274.28ZM90.7896 276.04C90.5656 276.04 90.3736 275.965 90.2136 275.816C90.0642 275.656 89.9896 275.469 89.9896 275.256C89.9896 275.043 90.0642 274.856 90.2136 274.696C90.3736 274.536 90.5656 274.456 90.7896 274.456C91.0029 274.456 91.1842 274.536 91.3336 274.696C91.4936 274.856 91.5736 275.043 91.5736 275.256C91.5736 275.469 91.4936 275.656 91.3336 275.816C91.1842 275.965 91.0029 276.04 90.7896 276.04ZM92.9656 276.04C92.7416 276.04 92.5496 275.965 92.3896 275.816C92.2402 275.656 92.1656 275.469 92.1656 275.256C92.1656 275.043 92.2402 274.856 92.3896 274.696C92.5496 274.536 92.7416 274.456 92.9656 274.456C93.1789 274.456 93.3602 274.536 93.5096 274.696C93.6696 274.856 93.7496 275.043 93.7496 275.256C93.7496 275.469 93.6696 275.656 93.5096 275.816C93.3602 275.965 93.1789 276.04 92.9656 276.04ZM98.4153 283.08L98.5753 281.768C99.0233 281.768 99.3753 281.731 99.6313 281.656C99.8873 281.571 100.079 281.416 100.207 281.192C100.346 280.957 100.463 280.621 100.559 280.184C100.655 279.747 100.773 279.176 100.911 278.472L102.159 278.712C102.117 278.904 102.069 279.117 102.015 279.352C101.962 279.587 101.914 279.821 101.871 280.056C101.839 280.28 101.823 280.477 101.823 280.648C101.823 280.861 101.871 281.053 101.967 281.224C102.063 281.395 102.271 281.528 102.591 281.624C102.911 281.72 103.402 281.768 104.063 281.768C104.287 281.768 104.447 281.832 104.543 281.96C104.65 282.077 104.703 282.221 104.703 282.392C104.703 282.563 104.629 282.723 104.479 282.872C104.33 283.011 104.138 283.08 103.903 283.08C103.21 283.08 102.666 283.021 102.271 282.904C101.877 282.776 101.589 282.589 101.407 282.344C101.226 282.088 101.103 281.779 101.039 281.416L101.519 281.448C101.349 281.789 101.162 282.067 100.959 282.28C100.767 282.493 100.554 282.659 100.319 282.776C100.085 282.893 99.8127 282.973 99.5033 283.016C99.194 283.059 98.8313 283.08 98.4153 283.08ZM101.135 286.056C100.911 286.056 100.719 285.976 100.559 285.816C100.41 285.667 100.335 285.485 100.335 285.272C100.335 285.059 100.41 284.872 100.559 284.712C100.719 284.552 100.911 284.472 101.135 284.472C101.349 284.472 101.53 284.552 101.679 284.712C101.839 284.872 101.919 285.059 101.919 285.272C101.919 285.485 101.839 285.667 101.679 285.816C101.53 285.976 101.349 286.056 101.135 286.056ZM103.74 283.08L103.884 281.768C104.492 281.768 104.918 281.709 105.164 281.592C105.409 281.475 105.548 281.267 105.58 280.968C105.622 280.669 105.633 280.253 105.612 279.72L105.308 271.576H106.604L106.924 279.576C106.945 280.141 106.924 280.643 106.86 281.08C106.806 281.517 106.668 281.885 106.444 282.184C106.23 282.483 105.905 282.707 105.468 282.856C105.041 283.005 104.465 283.08 103.74 283.08ZM109.208 283L108.888 271.576H110.184L110.504 283H109.208ZM115.57 282.28L116.21 281.176C116.423 281.315 116.722 281.448 117.106 281.576C117.49 281.704 117.938 281.768 118.45 281.768C118.983 281.768 119.404 281.715 119.714 281.608C120.034 281.501 120.263 281.347 120.402 281.144C120.551 280.931 120.626 280.685 120.626 280.408C120.626 280.195 120.578 279.933 120.482 279.624C120.396 279.304 120.204 278.877 119.906 278.344C119.607 277.8 119.148 277.091 118.53 276.216L119.634 275.496C120.199 276.275 120.647 276.979 120.978 277.608C121.319 278.237 121.559 278.792 121.698 279.272C121.847 279.741 121.922 280.147 121.922 280.488C121.922 280.915 121.815 281.331 121.602 281.736C121.388 282.131 121.031 282.456 120.53 282.712C120.028 282.968 119.335 283.096 118.45 283.096C118.066 283.096 117.692 283.064 117.33 283C116.978 282.936 116.652 282.845 116.354 282.728C116.055 282.6 115.794 282.451 115.57 282.28ZM122.054 286.68L121.59 285.464C122.668 285.123 123.494 284.712 124.07 284.232C124.657 283.763 125.057 283.272 125.27 282.76C125.494 282.248 125.606 281.757 125.606 281.288C125.606 280.989 125.574 280.701 125.51 280.424C125.446 280.147 125.334 279.832 125.174 279.48C125.014 279.128 124.79 278.691 124.502 278.168L125.67 277.576C126.076 278.269 126.364 278.925 126.534 279.544C126.716 280.163 126.806 280.707 126.806 281.176C126.806 281.848 126.694 282.456 126.47 283C126.257 283.544 125.969 284.024 125.606 284.44C125.254 284.867 124.865 285.229 124.438 285.528C124.022 285.827 123.601 286.072 123.174 286.264C122.758 286.456 122.385 286.595 122.054 286.68ZM129.177 283L128.857 271.576H130.153L130.473 283H129.177ZM132.286 286.68L131.998 285.368C132.638 285.283 133.224 285.16 133.758 285C134.302 284.851 134.766 284.632 135.15 284.344C135.544 284.056 135.848 283.677 136.062 283.208C136.275 282.739 136.382 282.152 136.382 281.448C136.382 280.723 136.248 280.12 135.982 279.64C135.715 279.16 135.368 278.92 134.942 278.92C134.718 278.92 134.51 279.005 134.318 279.176C134.126 279.347 133.966 279.576 133.838 279.864C133.72 280.152 133.662 280.467 133.662 280.808C133.662 281 133.704 281.16 133.79 281.288C133.875 281.405 133.998 281.501 134.158 281.576C134.328 281.64 134.542 281.688 134.798 281.72C135.054 281.752 135.352 281.768 135.694 281.768H139.07C139.294 281.768 139.454 281.832 139.55 281.96C139.656 282.077 139.71 282.221 139.71 282.392C139.71 282.563 139.635 282.723 139.486 282.872C139.336 283.011 139.144 283.08 138.91 283.08H135.086C134.606 283.08 134.158 283.011 133.742 282.872C133.336 282.733 133.006 282.52 132.75 282.232C132.504 281.933 132.382 281.544 132.382 281.064C132.382 280.616 132.451 280.189 132.59 279.784C132.728 279.368 132.915 279 133.15 278.68C133.395 278.349 133.678 278.088 133.998 277.896C134.328 277.704 134.686 277.608 135.07 277.608C135.56 277.608 135.998 277.752 136.382 278.04C136.766 278.328 137.07 278.765 137.294 279.352C137.518 279.928 137.63 280.659 137.63 281.544C137.63 282.536 137.427 283.389 137.022 284.104C136.627 284.829 136.03 285.405 135.23 285.832C134.44 286.259 133.459 286.541 132.286 286.68ZM138.745 283.08L138.905 281.768C139.203 281.768 139.438 281.704 139.609 281.576C139.79 281.448 139.961 281.235 140.121 280.936C140.291 280.637 140.505 280.237 140.761 279.736C141.017 279.224 141.273 278.808 141.529 278.488C141.795 278.157 142.051 277.901 142.297 277.72C142.553 277.528 142.793 277.395 143.017 277.32C143.241 277.245 143.449 277.208 143.641 277.208C143.993 277.208 144.307 277.288 144.585 277.448C144.862 277.597 145.123 277.859 145.369 278.232C145.614 278.595 145.865 279.096 146.121 279.736C146.366 280.323 146.585 280.765 146.777 281.064C146.979 281.352 147.187 281.544 147.401 281.64C147.625 281.725 147.875 281.768 148.153 281.768C148.377 281.768 148.537 281.832 148.633 281.96C148.739 282.077 148.793 282.221 148.793 282.392C148.793 282.563 148.718 282.723 148.569 282.872C148.419 283.011 148.227 283.08 147.993 283.08C147.577 283.08 147.193 283.011 146.841 282.872C146.499 282.733 146.211 282.515 145.977 282.216L146.201 281.88C146.083 282.211 145.923 282.483 145.721 282.696C145.529 282.899 145.31 283.048 145.065 283.144C144.819 283.251 144.558 283.304 144.281 283.304C143.929 283.304 143.566 283.229 143.193 283.08C142.83 282.931 142.478 282.717 142.137 282.44C141.795 282.163 141.497 281.837 141.241 281.464C140.963 281.955 140.697 282.317 140.441 282.552C140.195 282.776 139.939 282.92 139.673 282.984C139.406 283.048 139.097 283.08 138.745 283.08ZM141.849 280.248C142.03 280.547 142.222 280.808 142.425 281.032C142.638 281.256 142.851 281.443 143.065 281.592C143.278 281.731 143.486 281.837 143.689 281.912C143.902 281.976 144.094 282.008 144.265 282.008C144.638 282.008 144.91 281.875 145.081 281.608C145.262 281.341 145.257 280.968 145.065 280.488C144.969 280.243 144.867 280.003 144.761 279.768C144.665 279.533 144.558 279.32 144.441 279.128C144.323 278.925 144.19 278.771 144.041 278.664C143.891 278.547 143.726 278.488 143.545 278.488C143.385 278.488 143.214 278.541 143.033 278.648C142.862 278.755 142.675 278.936 142.473 279.192C142.281 279.448 142.073 279.8 141.849 280.248ZM147.835 283.08L147.979 281.768C148.587 281.768 149.013 281.709 149.259 281.592C149.504 281.475 149.643 281.267 149.675 280.968C149.717 280.669 149.728 280.253 149.707 279.72L149.403 271.576H150.699L151.019 279.576C151.04 280.141 151.019 280.643 150.955 281.08C150.901 281.517 150.763 281.885 150.539 282.184C150.325 282.483 150 282.707 149.563 282.856C149.136 283.005 148.56 283.08 147.835 283.08ZM153.303 283L152.983 271.576H154.279L154.599 283H153.303ZM162.337 283C161.814 283 161.345 282.909 160.929 282.728C160.513 282.547 160.182 282.269 159.937 281.896C159.702 281.523 159.585 281.048 159.585 280.472C159.585 280.013 159.761 279.443 160.113 278.76C160.465 278.067 161.078 277.336 161.953 276.568L162.257 277.432L161.169 276.456L162.001 275.464C162.555 275.901 163.067 276.371 163.537 276.872C164.006 277.373 164.385 277.907 164.673 278.472C164.961 279.037 165.105 279.635 165.105 280.264C165.105 280.509 165.062 280.787 164.977 281.096C164.891 281.405 164.747 281.709 164.545 282.008C164.342 282.296 164.059 282.536 163.697 282.728C163.334 282.909 162.881 283 162.337 283ZM162.337 281.688C162.699 281.688 162.998 281.629 163.233 281.512C163.478 281.384 163.659 281.208 163.777 280.984C163.905 280.76 163.969 280.499 163.969 280.2C163.969 279.933 163.921 279.656 163.825 279.368C163.739 279.069 163.558 278.749 163.281 278.408C163.014 278.056 162.603 277.661 162.049 277.224L162.753 277.192C162.358 277.533 162.017 277.896 161.729 278.28C161.441 278.653 161.222 279.021 161.073 279.384C160.923 279.736 160.849 280.056 160.849 280.344C160.849 280.792 160.987 281.128 161.265 281.352C161.553 281.576 161.91 281.688 162.337 281.688ZM163.553 274.04C163.329 274.04 163.137 273.965 162.977 273.816C162.827 273.656 162.753 273.469 162.753 273.256C162.753 273.043 162.827 272.856 162.977 272.696C163.137 272.536 163.329 272.456 163.553 272.456C163.766 272.456 163.947 272.536 164.097 272.696C164.257 272.856 164.337 273.043 164.337 273.256C164.337 273.469 164.257 273.656 164.097 273.816C163.947 273.965 163.766 274.04 163.553 274.04ZM161.361 274.04C161.137 274.04 160.945 273.965 160.785 273.816C160.635 273.656 160.561 273.469 160.561 273.256C160.561 273.043 160.635 272.856 160.785 272.696C160.945 272.536 161.137 272.456 161.361 272.456C161.574 272.456 161.755 272.536 161.905 272.696C162.065 272.856 162.145 273.043 162.145 273.256C162.145 273.469 162.065 273.656 161.905 273.816C161.755 273.965 161.574 274.04 161.361 274.04ZM164.852 286.68L164.388 285.464C165.466 285.123 166.292 284.712 166.868 284.232C167.455 283.763 167.855 283.272 168.068 282.76C168.292 282.248 168.404 281.757 168.404 281.288C168.404 280.989 168.372 280.701 168.308 280.424C168.244 280.147 168.132 279.832 167.972 279.48C167.812 279.128 167.588 278.691 167.3 278.168L168.468 277.576C168.874 278.269 169.162 278.925 169.332 279.544C169.514 280.163 169.604 280.707 169.604 281.176C169.604 281.848 169.492 282.456 169.268 283C169.055 283.544 168.767 284.024 168.404 284.44C168.052 284.867 167.663 285.229 167.236 285.528C166.82 285.827 166.399 286.072 165.972 286.264C165.556 286.456 165.183 286.595 164.852 286.68ZM171.975 283L171.655 271.576H172.951L173.271 283H171.975ZM174.716 282.28L175.356 281.176C175.569 281.315 175.868 281.448 176.252 281.576C176.636 281.704 177.084 281.768 177.596 281.768C178.129 281.768 178.551 281.715 178.86 281.608C179.18 281.501 179.409 281.347 179.548 281.144C179.697 280.931 179.772 280.685 179.772 280.408C179.772 280.195 179.724 279.933 179.628 279.624C179.543 279.304 179.351 278.877 179.052 278.344C178.753 277.8 178.295 277.091 177.676 276.216L178.78 275.496C179.345 276.275 179.793 276.979 180.124 277.608C180.465 278.237 180.705 278.792 180.844 279.272C180.993 279.741 181.068 280.147 181.068 280.488C181.068 280.915 180.961 281.331 180.748 281.736C180.535 282.131 180.177 282.456 179.676 282.712C179.175 282.968 178.481 283.096 177.596 283.096C177.212 283.096 176.839 283.064 176.476 283C176.124 282.936 175.799 282.845 175.5 282.728C175.201 282.6 174.94 282.451 174.716 282.28ZM187.909 274.424C187.909 274.189 187.893 273.907 187.861 273.576C187.829 273.245 187.792 272.915 187.749 272.584C187.706 272.253 187.664 271.971 187.621 271.736L188.997 271.576C189.029 271.789 189.061 272.072 189.093 272.424C189.136 272.765 189.168 273.107 189.189 273.448C189.21 273.789 189.221 274.072 189.221 274.296C189.221 274.808 189.184 275.309 189.109 275.8C189.045 276.28 188.938 276.755 188.789 277.224C188.64 277.683 188.442 278.131 188.197 278.568L188.005 278.92C187.706 279.421 187.338 279.907 186.901 280.376C186.464 280.835 185.952 281.272 185.365 281.688H187.381C187.744 281.688 188.021 281.645 188.213 281.56C188.405 281.464 188.533 281.341 188.597 281.192C188.672 281.043 188.709 280.883 188.709 280.712C188.709 280.424 188.533 280.067 188.181 279.64C187.84 279.203 187.365 278.723 186.757 278.2C186.149 277.667 185.461 277.107 184.693 276.52C183.925 275.933 183.114 275.336 182.261 274.728L183.013 273.672C183.994 274.397 184.858 275.053 185.605 275.64C186.362 276.227 187.008 276.765 187.541 277.256C188.085 277.736 188.528 278.184 188.869 278.6C189.221 279.005 189.477 279.395 189.637 279.768C189.808 280.131 189.893 280.488 189.893 280.84C189.893 281.075 189.85 281.32 189.765 281.576C189.69 281.821 189.552 282.056 189.349 282.28C189.157 282.493 188.88 282.669 188.517 282.808C188.165 282.936 187.706 283 187.141 283H183.461V281.704C184.56 280.915 185.429 280.147 186.069 279.4C186.72 278.653 187.189 277.875 187.477 277.064C187.765 276.253 187.909 275.373 187.909 274.424ZM183.173 287.848L182.981 286.984C183.258 286.92 183.482 286.867 183.653 286.824C183.824 286.781 184.016 286.733 184.229 286.68L184.149 287.016C183.872 286.931 183.605 286.749 183.349 286.472C183.104 286.195 182.981 285.88 182.981 285.528C182.981 285.208 183.056 284.936 183.205 284.712C183.365 284.499 183.568 284.339 183.813 284.232C184.069 284.125 184.341 284.072 184.629 284.072C184.746 284.072 184.869 284.083 184.997 284.104C185.136 284.125 185.264 284.157 185.381 284.2L185.253 285C185.146 284.979 185.045 284.957 184.949 284.936C184.853 284.915 184.746 284.904 184.629 284.904C184.384 284.904 184.192 284.952 184.053 285.048C183.914 285.155 183.845 285.299 183.845 285.48C183.845 285.704 183.914 285.896 184.053 286.056C184.202 286.216 184.368 286.339 184.549 286.424C184.741 286.52 184.896 286.568 185.013 286.568L184.357 286.632C184.645 286.557 184.912 286.477 185.157 286.392C185.413 286.317 185.642 286.243 185.845 286.168L186.101 286.984C185.845 287.08 185.541 287.181 185.189 287.288C184.848 287.395 184.501 287.496 184.149 287.592C183.797 287.688 183.472 287.773 183.173 287.848ZM195.643 275.96V271.16H197.195V275.96H195.643ZM198.811 275.96V271.16H200.363V275.96H198.811ZM207.693 283.336L208.109 282.024C209.155 282.024 210.019 281.987 210.701 281.912C211.384 281.827 211.912 281.699 212.285 281.528C212.669 281.347 212.936 281.117 213.085 280.84C213.235 280.552 213.299 280.205 213.277 279.8L212.973 271.576H214.269L214.589 279.656C214.611 280.2 214.696 280.627 214.845 280.936C215.005 281.245 215.219 281.464 215.485 281.592C215.752 281.709 216.045 281.768 216.365 281.768C216.589 281.768 216.749 281.832 216.845 281.96C216.952 282.077 217.005 282.221 217.005 282.392C217.005 282.563 216.931 282.723 216.781 282.872C216.632 283.011 216.44 283.08 216.205 283.08C215.704 283.08 215.299 283.005 214.989 282.856C214.68 282.696 214.44 282.499 214.269 282.264C214.109 282.029 214.003 281.784 213.949 281.528L214.285 281.544C214.072 281.875 213.784 282.157 213.421 282.392C213.059 282.616 212.611 282.797 212.077 282.936C211.544 283.075 210.915 283.176 210.189 283.24C209.475 283.304 208.643 283.336 207.693 283.336ZM207.277 279.736L206.973 278.728C207.421 278.611 207.784 278.509 208.061 278.424C208.339 278.339 208.536 278.259 208.653 278.184C208.781 278.099 208.845 278.013 208.845 277.928C208.845 277.811 208.781 277.704 208.653 277.608C208.536 277.501 208.397 277.395 208.237 277.288C208.088 277.171 207.949 277.037 207.821 276.888C207.704 276.739 207.645 276.557 207.645 276.344C207.645 276.152 207.699 275.955 207.805 275.752C207.923 275.539 208.125 275.32 208.413 275.096C208.701 274.861 209.107 274.616 209.629 274.36L210.125 275.272C209.635 275.507 209.272 275.709 209.037 275.88C208.813 276.04 208.701 276.184 208.701 276.312C208.701 276.408 208.76 276.509 208.877 276.616C209.005 276.723 209.144 276.84 209.293 276.968C209.453 277.096 209.592 277.245 209.709 277.416C209.837 277.576 209.901 277.768 209.901 277.992C209.901 278.141 209.869 278.291 209.805 278.44C209.741 278.579 209.613 278.723 209.421 278.872C209.24 279.011 208.979 279.155 208.637 279.304C208.296 279.443 207.843 279.587 207.277 279.736ZM207.693 283.336C206.744 283.336 205.907 283.272 205.181 283.144C204.467 283.027 203.869 282.84 203.389 282.584C202.909 282.328 202.547 281.997 202.301 281.592C202.056 281.176 201.933 280.675 201.933 280.088C201.933 279.821 201.955 279.549 201.997 279.272C202.04 278.984 202.093 278.696 202.157 278.408C202.232 278.12 202.307 277.843 202.381 277.576L203.581 277.88C203.539 278.04 203.491 278.232 203.437 278.456C203.384 278.669 203.336 278.888 203.293 279.112C203.261 279.336 203.245 279.539 203.245 279.72C203.245 280.275 203.384 280.723 203.661 281.064C203.949 281.395 204.445 281.64 205.149 281.8C205.853 281.949 206.84 282.024 208.109 282.024L208.429 282.824L207.693 283.336ZM216.043 283.08L216.203 281.768C216.651 281.768 217.003 281.731 217.259 281.656C217.515 281.571 217.707 281.416 217.835 281.192C217.974 280.957 218.091 280.621 218.187 280.184C218.283 279.747 218.401 279.176 218.539 278.472L219.787 278.712C219.745 278.904 219.697 279.117 219.643 279.352C219.59 279.587 219.542 279.821 219.499 280.056C219.467 280.28 219.451 280.477 219.451 280.648C219.451 280.861 219.499 281.053 219.595 281.224C219.691 281.395 219.899 281.528 220.219 281.624C220.539 281.72 221.03 281.768 221.691 281.768C221.915 281.768 222.075 281.832 222.171 281.96C222.278 282.077 222.331 282.221 222.331 282.392C222.331 282.563 222.257 282.723 222.107 282.872C221.958 283.011 221.766 283.08 221.531 283.08C220.838 283.08 220.294 283.021 219.899 282.904C219.505 282.776 219.217 282.589 219.035 282.344C218.854 282.088 218.731 281.779 218.667 281.416L219.147 281.448C218.977 281.789 218.79 282.067 218.587 282.28C218.395 282.493 218.182 282.659 217.947 282.776C217.713 282.893 217.441 282.973 217.131 283.016C216.822 283.059 216.459 283.08 216.043 283.08ZM218.539 276.824C218.315 276.824 218.123 276.749 217.963 276.6C217.814 276.44 217.739 276.253 217.739 276.04C217.739 275.827 217.814 275.64 217.963 275.48C218.123 275.32 218.315 275.24 218.539 275.24C218.753 275.24 218.934 275.32 219.083 275.48C219.243 275.64 219.323 275.827 219.323 276.04C219.323 276.253 219.243 276.44 219.083 276.6C218.934 276.749 218.753 276.824 218.539 276.824ZM221.368 283.08L221.528 281.768C222.061 281.768 222.477 281.731 222.776 281.656C223.074 281.571 223.298 281.416 223.448 281.192C223.608 280.957 223.736 280.621 223.832 280.184C223.928 279.747 224.045 279.176 224.184 278.472L225.432 278.712C225.389 278.904 225.341 279.117 225.288 279.352C225.234 279.587 225.186 279.821 225.144 280.056C225.112 280.28 225.096 280.477 225.096 280.648C225.096 280.808 225.106 280.957 225.128 281.096C225.149 281.235 225.229 281.352 225.368 281.448C225.506 281.544 225.741 281.624 226.072 281.688C226.402 281.741 226.877 281.768 227.496 281.768C227.72 281.768 227.88 281.832 227.976 281.96C228.082 282.077 228.136 282.221 228.136 282.392C228.136 282.563 228.061 282.723 227.912 282.872C227.762 283.011 227.57 283.08 227.336 283.08C226.685 283.08 226.168 283.048 225.784 282.984C225.4 282.909 225.106 282.803 224.904 282.664C224.712 282.525 224.573 282.355 224.488 282.152C224.413 281.939 224.354 281.693 224.312 281.416L224.792 281.448C224.621 281.789 224.434 282.067 224.232 282.28C224.04 282.493 223.816 282.659 223.56 282.776C223.304 282.893 222.994 282.973 222.632 283.016C222.28 283.059 221.858 283.08 221.368 283.08ZM225.4 286.104C225.176 286.104 224.984 286.024 224.824 285.864C224.674 285.715 224.6 285.533 224.6 285.32C224.6 285.107 224.674 284.92 224.824 284.76C224.984 284.6 225.176 284.52 225.4 284.52C225.613 284.52 225.794 284.6 225.944 284.76C226.104 284.92 226.184 285.107 226.184 285.32C226.184 285.533 226.104 285.715 225.944 285.864C225.794 286.024 225.613 286.104 225.4 286.104ZM223.208 286.104C222.984 286.104 222.792 286.024 222.632 285.864C222.482 285.715 222.408 285.533 222.408 285.32C222.408 285.107 222.482 284.92 222.632 284.76C222.792 284.6 222.984 284.52 223.208 284.52C223.421 284.52 223.602 284.6 223.752 284.76C223.912 284.92 223.992 285.107 223.992 285.32C223.992 285.533 223.912 285.715 223.752 285.864C223.602 286.024 223.421 286.104 223.208 286.104ZM227.177 283.08L227.337 281.768C227.678 281.768 227.955 281.747 228.169 281.704C228.382 281.651 228.558 281.528 228.697 281.336C228.846 281.133 228.985 280.819 229.113 280.392C229.241 279.965 229.39 279.368 229.561 278.6L230.761 278.936C230.718 279.117 230.67 279.325 230.617 279.56C230.563 279.784 230.515 280.019 230.473 280.264C230.43 280.499 230.409 280.717 230.409 280.92C230.409 281.187 230.51 281.395 230.713 281.544C230.915 281.693 231.283 281.768 231.817 281.768C232.137 281.768 232.398 281.741 232.601 281.688C232.803 281.635 232.969 281.507 233.097 281.304C233.235 281.101 233.358 280.776 233.465 280.328C233.571 279.88 233.683 279.267 233.801 278.488L235.017 278.712C234.985 278.904 234.947 279.139 234.905 279.416C234.862 279.693 234.819 279.971 234.777 280.248C234.745 280.515 234.729 280.739 234.729 280.92C234.729 281.069 234.761 281.213 234.825 281.352C234.899 281.48 235.038 281.581 235.241 281.656C235.454 281.731 235.769 281.768 236.185 281.768C236.494 281.768 236.761 281.731 236.985 281.656C237.219 281.581 237.395 281.443 237.513 281.24C237.641 281.037 237.705 280.755 237.705 280.392C237.705 279.987 237.609 279.48 237.417 278.872C237.235 278.253 237.027 277.64 236.793 277.032L238.089 276.552C238.227 276.893 238.355 277.283 238.473 277.72C238.601 278.157 238.707 278.589 238.793 279.016C238.878 279.443 238.921 279.816 238.921 280.136C238.921 280.627 238.857 281.059 238.729 281.432C238.601 281.805 238.419 282.115 238.185 282.36C237.95 282.595 237.662 282.776 237.321 282.904C236.979 283.021 236.595 283.08 236.169 283.08C235.667 283.08 235.257 283.021 234.937 282.904C234.617 282.787 234.371 282.611 234.201 282.376C234.03 282.131 233.918 281.821 233.865 281.448H234.409C234.206 281.907 233.993 282.253 233.769 282.488C233.545 282.723 233.267 282.883 232.937 282.968C232.606 283.043 232.169 283.08 231.625 283.08C231.358 283.08 231.07 283.037 230.761 282.952C230.462 282.867 230.201 282.701 229.977 282.456C229.753 282.2 229.619 281.821 229.577 281.32L230.057 281.224C229.875 281.768 229.651 282.173 229.385 282.44C229.129 282.696 228.819 282.867 228.457 282.952C228.094 283.037 227.667 283.08 227.177 283.08ZM240.811 275.96V271.16H242.363V275.96H240.811ZM243.979 275.96V271.16H245.531V275.96H243.979ZM251.427 289.288C251.246 288.584 251.086 287.896 250.947 287.224C250.819 286.552 250.723 285.933 250.659 285.368C250.595 284.803 250.563 284.339 250.563 283.976C250.563 283.325 250.681 282.787 250.915 282.36C251.15 281.923 251.465 281.587 251.859 281.352C252.254 281.107 252.691 280.941 253.171 280.856C253.662 280.771 254.163 280.744 254.675 280.776C255.198 280.797 255.689 280.861 256.147 280.968C256.179 280.605 256.158 280.259 256.083 279.928C256.019 279.587 255.907 279.288 255.747 279.032C255.598 278.765 255.406 278.557 255.171 278.408C254.937 278.259 254.67 278.184 254.371 278.184C254.105 278.184 253.854 278.243 253.619 278.36C253.385 278.477 253.161 278.659 252.947 278.904C252.745 279.139 252.547 279.432 252.355 279.784L251.363 279.24C251.641 278.664 251.945 278.205 252.275 277.864C252.617 277.523 252.974 277.277 253.347 277.128C253.721 276.968 254.089 276.888 254.451 276.888C254.995 276.888 255.454 277.005 255.827 277.24C256.201 277.464 256.494 277.763 256.707 278.136C256.931 278.499 257.091 278.893 257.187 279.32C257.294 279.736 257.347 280.136 257.347 280.52C257.347 280.787 257.315 281.053 257.251 281.32C257.187 281.587 257.107 281.827 257.011 282.04C256.926 282.253 256.841 282.419 256.755 282.536C256.179 282.365 255.641 282.243 255.139 282.168C254.638 282.093 254.185 282.072 253.779 282.104C253.385 282.125 253.043 282.211 252.755 282.36C252.467 282.509 252.249 282.723 252.099 283C251.95 283.277 251.875 283.629 251.875 284.056C251.875 284.451 251.907 284.92 251.971 285.464C252.035 286.008 252.126 286.579 252.243 287.176C252.361 287.784 252.499 288.381 252.659 288.968L251.427 289.288ZM262.489 283.08C261.636 283.08 260.98 282.984 260.521 282.792C260.073 282.6 259.764 282.301 259.593 281.896C259.423 281.491 259.327 280.968 259.305 280.328L258.985 271.576H260.297L260.617 279.816C260.639 280.339 260.687 280.744 260.761 281.032C260.847 281.309 261.028 281.501 261.305 281.608C261.593 281.715 262.041 281.768 262.649 281.768C262.873 281.768 263.033 281.832 263.129 281.96C263.236 282.077 263.289 282.221 263.289 282.392C263.289 282.563 263.215 282.723 263.065 282.872C262.916 283.011 262.724 283.08 262.489 283.08ZM273.69 283.08C273.412 283.08 273.06 283.053 272.634 283C272.218 282.936 271.791 282.829 271.354 282.68C270.927 282.531 270.564 282.323 270.266 282.056L271.578 281.4C271.951 281.549 272.335 281.651 272.73 281.704C273.135 281.747 273.508 281.768 273.85 281.768C274.074 281.768 274.234 281.832 274.33 281.96C274.436 282.077 274.49 282.221 274.49 282.392C274.49 282.563 274.415 282.723 274.266 282.872C274.116 283.011 273.924 283.08 273.69 283.08ZM262.33 283.08L262.49 281.768H265.834C266.762 281.768 267.562 281.731 268.234 281.656C268.916 281.571 269.476 281.448 269.914 281.288C270.351 281.128 270.676 280.925 270.89 280.68C271.103 280.424 271.21 280.125 271.21 279.784C271.21 279.603 271.151 279.405 271.034 279.192C270.916 278.979 270.735 278.797 270.49 278.648C270.244 278.488 269.919 278.408 269.514 278.408C269.002 278.408 268.49 278.541 267.978 278.808C267.476 279.075 266.996 279.411 266.538 279.816C266.09 280.211 265.69 280.616 265.338 281.032C264.986 281.448 264.703 281.811 264.49 282.12L263.098 282.072C263.439 281.517 263.844 280.952 264.314 280.376C264.794 279.789 265.316 279.251 265.882 278.76C266.458 278.259 267.06 277.859 267.69 277.56C268.319 277.251 268.959 277.096 269.61 277.096C270.196 277.096 270.698 277.219 271.114 277.464C271.54 277.699 271.866 278.019 272.09 278.424C272.324 278.829 272.442 279.288 272.442 279.8C272.442 280.301 272.26 280.808 271.898 281.32C271.535 281.821 270.911 282.216 270.026 282.504C269.578 282.653 269.066 282.771 268.49 282.856C267.914 282.941 267.258 283 266.522 283.032C265.786 283.064 264.948 283.08 264.01 283.08H262.33ZM263.85 281.496L263.53 271.576H264.826L265.146 280.376L263.85 281.496ZM268.826 275.448C268.602 275.448 268.41 275.373 268.25 275.224C268.1 275.064 268.026 274.877 268.026 274.664C268.026 274.451 268.1 274.264 268.25 274.104C268.41 273.944 268.602 273.864 268.826 273.864C269.039 273.864 269.22 273.944 269.37 274.104C269.53 274.264 269.61 274.451 269.61 274.664C269.61 274.877 269.53 275.064 269.37 275.224C269.22 275.373 269.039 275.448 268.826 275.448ZM273.529 283.08L273.689 281.768C274.212 281.768 274.628 281.736 274.937 281.672C275.246 281.608 275.47 281.48 275.609 281.288C275.748 281.085 275.817 280.787 275.817 280.392C275.817 280.125 275.774 279.811 275.689 279.448C275.604 279.075 275.492 278.68 275.353 278.264C275.214 277.848 275.065 277.437 274.905 277.032L276.201 276.552C276.34 276.893 276.468 277.283 276.585 277.72C276.713 278.157 276.82 278.589 276.905 279.016C276.99 279.443 277.033 279.816 277.033 280.136C277.033 280.563 276.985 280.941 276.889 281.272C276.804 281.592 276.67 281.869 276.489 282.104C276.308 282.328 276.073 282.515 275.785 282.664C275.508 282.803 275.182 282.909 274.809 282.984C274.436 283.048 274.009 283.08 273.529 283.08ZM275.577 274.888C275.353 274.888 275.161 274.813 275.001 274.664C274.852 274.504 274.777 274.317 274.777 274.104C274.777 273.891 274.852 273.704 275.001 273.544C275.161 273.384 275.353 273.304 275.577 273.304C275.79 273.304 275.972 273.384 276.121 273.544C276.281 273.704 276.361 273.891 276.361 274.104C276.361 274.317 276.281 274.504 276.121 274.664C275.972 274.813 275.79 274.888 275.577 274.888ZM281.767 283.016C281.767 282.76 281.789 282.488 281.831 282.2C281.885 281.901 281.959 281.587 282.055 281.256C282.162 280.915 282.29 280.557 282.439 280.184L283.591 280.632C283.485 280.931 283.389 281.213 283.303 281.48C283.229 281.747 283.17 281.997 283.127 282.232C283.095 282.467 283.079 282.691 283.079 282.904C283.079 283.352 283.175 283.731 283.367 284.04C283.57 284.36 283.847 284.621 284.199 284.824C284.551 285.027 284.951 285.176 285.399 285.272C285.858 285.368 286.343 285.416 286.855 285.416C287.474 285.416 288.05 285.363 288.583 285.256C289.127 285.149 289.602 284.995 290.007 284.792C290.423 284.6 290.749 284.376 290.983 284.12C291.218 283.875 291.335 283.608 291.335 283.32C291.335 283.181 291.282 283.053 291.175 282.936C291.069 282.819 290.909 282.707 290.695 282.6C290.482 282.493 290.226 282.392 289.927 282.296C289.629 282.189 289.287 282.083 288.903 281.976L289.207 280.648C289.762 280.861 290.253 281.043 290.679 281.192C291.106 281.331 291.479 281.443 291.799 281.528C292.119 281.613 292.397 281.677 292.631 281.72C292.866 281.752 293.063 281.768 293.223 281.768C293.447 281.768 293.607 281.832 293.703 281.96C293.81 282.077 293.863 282.221 293.863 282.392C293.863 282.563 293.789 282.723 293.639 282.872C293.49 283.011 293.298 283.08 293.063 283.08C292.999 283.08 292.935 283.08 292.871 283.08C292.807 283.08 292.738 283.08 292.663 283.08C292.599 283.08 292.535 283.08 292.471 283.08C292.493 283.176 292.509 283.251 292.519 283.304C292.53 283.368 292.535 283.448 292.535 283.544C292.535 283.939 292.397 284.323 292.119 284.696C291.853 285.069 291.458 285.405 290.935 285.704C290.413 286.013 289.778 286.259 289.031 286.44C288.295 286.621 287.453 286.712 286.503 286.712C285.661 286.712 284.877 286.573 284.151 286.296C283.437 286.029 282.861 285.624 282.423 285.08C281.986 284.536 281.767 283.848 281.767 283.016ZM287.655 289.736C287.431 289.736 287.239 289.656 287.079 289.496C286.93 289.347 286.855 289.165 286.855 288.952C286.855 288.739 286.93 288.552 287.079 288.392C287.239 288.232 287.431 288.152 287.655 288.152C287.869 288.152 288.05 288.232 288.199 288.392C288.359 288.552 288.439 288.739 288.439 288.952C288.439 289.165 288.359 289.347 288.199 289.496C288.05 289.656 287.869 289.736 287.655 289.736ZM285.463 289.736C285.239 289.736 285.047 289.656 284.887 289.496C284.738 289.347 284.663 289.165 284.663 288.952C284.663 288.739 284.738 288.552 284.887 288.392C285.047 288.232 285.239 288.152 285.463 288.152C285.677 288.152 285.858 288.232 286.007 288.392C286.167 288.552 286.247 288.739 286.247 288.952C286.247 289.165 286.167 289.347 286.007 289.496C285.858 289.656 285.677 289.736 285.463 289.736ZM292.908 283.08L293.068 281.768C293.335 281.768 293.628 281.768 293.948 281.768C294.279 281.757 294.61 281.747 294.94 281.736C295.282 281.725 295.596 281.704 295.884 281.672C296.172 281.629 296.412 281.576 296.604 281.512C296.988 281.373 297.287 281.203 297.5 281C297.714 280.787 297.863 280.509 297.948 280.168C298.044 279.816 298.092 279.368 298.092 278.824C298.092 278.376 298.034 277.96 297.916 277.576C297.799 277.192 297.634 276.883 297.42 276.648C297.207 276.413 296.951 276.296 296.652 276.296C296.407 276.296 296.183 276.392 295.98 276.584C295.788 276.765 295.634 277 295.516 277.288C295.41 277.576 295.356 277.864 295.356 278.152C295.356 278.376 295.399 278.568 295.484 278.728C295.58 278.888 295.735 279.016 295.948 279.112C296.162 279.197 296.439 279.24 296.78 279.24C297.09 279.24 297.399 279.208 297.708 279.144C298.028 279.08 298.3 278.995 298.524 278.888L298.588 280.008C298.418 280.125 298.226 280.221 298.012 280.296C297.799 280.371 297.575 280.424 297.34 280.456C297.106 280.488 296.871 280.504 296.636 280.504C296.092 280.504 295.628 280.419 295.244 280.248C294.871 280.067 294.583 279.827 294.38 279.528C294.188 279.219 294.092 278.867 294.092 278.472C294.092 278.067 294.156 277.661 294.284 277.256C294.412 276.84 294.594 276.461 294.828 276.12C295.063 275.779 295.346 275.507 295.676 275.304C296.007 275.091 296.375 274.984 296.78 274.984C297.356 274.984 297.831 275.171 298.204 275.544C298.588 275.917 298.871 276.408 299.052 277.016C299.244 277.613 299.34 278.248 299.34 278.92C299.34 279.72 299.202 280.408 298.924 280.984C298.658 281.549 298.21 282.019 297.58 282.392C297.335 282.531 297.036 282.648 296.684 282.744C296.343 282.829 295.964 282.899 295.548 282.952C295.143 283.005 294.716 283.037 294.268 283.048C293.82 283.069 293.367 283.08 292.908 283.08ZM296.476 273.336C296.252 273.336 296.06 273.261 295.9 273.112C295.751 272.952 295.676 272.765 295.676 272.552C295.676 272.339 295.751 272.152 295.9 271.992C296.06 271.832 296.252 271.752 296.476 271.752C296.69 271.752 296.871 271.832 297.02 271.992C297.18 272.152 297.26 272.339 297.26 272.552C297.26 272.765 297.18 272.952 297.02 273.112C296.871 273.261 296.69 273.336 296.476 273.336ZM309.766 283.336L310.182 282.024C311.227 282.024 312.091 281.987 312.774 281.912C313.457 281.827 313.985 281.699 314.358 281.528C314.742 281.347 315.009 281.117 315.158 280.84C315.307 280.552 315.371 280.205 315.35 279.8L315.046 271.576H316.342L316.662 279.656C316.683 280.2 316.769 280.627 316.918 280.936C317.078 281.245 317.291 281.464 317.558 281.592C317.825 281.709 318.118 281.768 318.438 281.768C318.662 281.768 318.822 281.832 318.918 281.96C319.025 282.077 319.078 282.221 319.078 282.392C319.078 282.563 319.003 282.723 318.854 282.872C318.705 283.011 318.513 283.08 318.278 283.08C317.777 283.08 317.371 283.005 317.062 282.856C316.753 282.696 316.513 282.499 316.342 282.264C316.182 282.029 316.075 281.784 316.022 281.528L316.358 281.544C316.145 281.875 315.857 282.157 315.494 282.392C315.131 282.616 314.683 282.797 314.15 282.936C313.617 283.075 312.987 283.176 312.262 283.24C311.547 283.304 310.715 283.336 309.766 283.336ZM309.35 279.736L309.046 278.728C309.494 278.611 309.857 278.509 310.134 278.424C310.411 278.339 310.609 278.259 310.726 278.184C310.854 278.099 310.918 278.013 310.918 277.928C310.918 277.811 310.854 277.704 310.726 277.608C310.609 277.501 310.47 277.395 310.31 277.288C310.161 277.171 310.022 277.037 309.894 276.888C309.777 276.739 309.718 276.557 309.718 276.344C309.718 276.152 309.771 275.955 309.878 275.752C309.995 275.539 310.198 275.32 310.486 275.096C310.774 274.861 311.179 274.616 311.702 274.36L312.198 275.272C311.707 275.507 311.345 275.709 311.11 275.88C310.886 276.04 310.774 276.184 310.774 276.312C310.774 276.408 310.833 276.509 310.95 276.616C311.078 276.723 311.217 276.84 311.366 276.968C311.526 277.096 311.665 277.245 311.782 277.416C311.91 277.576 311.974 277.768 311.974 277.992C311.974 278.141 311.942 278.291 311.878 278.44C311.814 278.579 311.686 278.723 311.494 278.872C311.313 279.011 311.051 279.155 310.71 279.304C310.369 279.443 309.915 279.587 309.35 279.736ZM309.766 283.336C308.817 283.336 307.979 283.272 307.254 283.144C306.539 283.027 305.942 282.84 305.462 282.584C304.982 282.328 304.619 281.997 304.374 281.592C304.129 281.176 304.006 280.675 304.006 280.088C304.006 279.821 304.027 279.549 304.07 279.272C304.113 278.984 304.166 278.696 304.23 278.408C304.305 278.12 304.379 277.843 304.454 277.576L305.654 277.88C305.611 278.04 305.563 278.232 305.51 278.456C305.457 278.669 305.409 278.888 305.366 279.112C305.334 279.336 305.318 279.539 305.318 279.72C305.318 280.275 305.457 280.723 305.734 281.064C306.022 281.395 306.518 281.64 307.222 281.8C307.926 281.949 308.913 282.024 310.182 282.024L310.502 282.824L309.766 283.336ZM318.116 283.08L318.276 281.768C318.799 281.768 319.215 281.736 319.524 281.672C319.833 281.608 320.057 281.48 320.196 281.288C320.335 281.085 320.404 280.787 320.404 280.392C320.404 280.125 320.361 279.811 320.276 279.448C320.191 279.075 320.079 278.68 319.94 278.264C319.801 277.848 319.652 277.437 319.492 277.032L320.788 276.552C320.927 276.893 321.055 277.283 321.172 277.72C321.3 278.157 321.407 278.589 321.492 279.016C321.577 279.443 321.62 279.816 321.62 280.136C321.62 280.563 321.572 280.941 321.476 281.272C321.391 281.592 321.257 281.869 321.076 282.104C320.895 282.328 320.66 282.515 320.372 282.664C320.095 282.803 319.769 282.909 319.396 282.984C319.023 283.048 318.596 283.08 318.116 283.08ZM319.828 286.056C319.604 286.056 319.412 285.976 319.252 285.816C319.103 285.667 319.028 285.485 319.028 285.272C319.028 285.059 319.103 284.872 319.252 284.712C319.412 284.552 319.604 284.472 319.828 284.472C320.041 284.472 320.223 284.552 320.372 284.712C320.532 284.872 320.612 285.059 320.612 285.272C320.612 285.485 320.532 285.667 320.372 285.816C320.223 285.976 320.041 286.056 319.828 286.056ZM330.67 267.688V266.792L334.254 265.736V266.648L330.67 267.688ZM330.67 269.368V268.472L334.254 267.416V268.328L330.67 269.368ZM335.298 283.08C334.658 283.08 334.13 283.027 333.714 282.92C333.309 282.813 332.989 282.648 332.754 282.424C332.53 282.2 332.37 281.917 332.274 281.576C332.189 281.224 332.135 280.808 332.114 280.328L331.794 271.576H333.106L333.426 279.816C333.447 280.339 333.495 280.744 333.57 281.032C333.655 281.309 333.837 281.501 334.114 281.608C334.402 281.715 334.85 281.768 335.458 281.768C335.682 281.768 335.842 281.832 335.938 281.96C336.045 282.077 336.098 282.221 336.098 282.392C336.098 282.563 336.023 282.723 335.874 282.872C335.725 283.011 335.533 283.08 335.298 283.08ZM327.986 283.08C327.698 283.08 327.405 283.053 327.106 283C326.818 282.957 326.615 282.925 326.498 282.904L326.674 281.64C327.41 281.736 328.103 281.752 328.754 281.688C329.405 281.624 329.97 281.443 330.45 281.144C330.941 280.835 331.325 280.371 331.602 279.752C331.879 279.133 332.018 278.328 332.018 277.336L332.786 279.256C332.658 279.928 332.466 280.493 332.21 280.952C331.954 281.4 331.655 281.768 331.314 282.056C330.983 282.333 330.626 282.547 330.242 282.696C329.858 282.845 329.474 282.947 329.09 283C328.706 283.053 328.338 283.08 327.986 283.08ZM331.458 280.888C331.287 280.557 331.047 280.173 330.738 279.736C330.429 279.288 330.055 278.803 329.618 278.28C329.181 277.757 328.685 277.213 328.13 276.648C327.586 276.083 326.994 275.512 326.354 274.936L327.218 274.024C327.922 274.696 328.546 275.325 329.09 275.912C329.645 276.488 330.13 277.032 330.546 277.544C330.962 278.045 331.319 278.504 331.618 278.92C331.917 279.336 332.167 279.715 332.37 280.056L331.458 280.888ZM341.292 283.128C340.855 283.128 340.407 283.069 339.948 282.952C339.49 282.824 339.047 282.648 338.62 282.424C338.204 282.2 337.826 281.928 337.484 281.608C337.154 281.277 336.887 280.909 336.684 280.504C336.492 280.099 336.396 279.661 336.396 279.192C336.396 278.712 336.492 278.269 336.684 277.864C336.887 277.459 337.17 277.133 337.532 276.888C337.906 276.632 338.338 276.504 338.828 276.504C339.308 276.504 339.719 276.637 340.06 276.904C340.402 277.16 340.663 277.496 340.844 277.912C341.036 278.317 341.132 278.744 341.132 279.192C341.132 279.811 340.956 280.365 340.604 280.856C340.263 281.336 339.799 281.741 339.212 282.072C338.626 282.403 337.98 282.653 337.276 282.824C336.572 282.995 335.858 283.08 335.132 283.08L335.292 281.768C335.868 281.768 336.38 281.731 336.828 281.656C337.287 281.571 337.682 281.459 338.012 281.32C338.503 281.128 338.887 280.899 339.164 280.632C339.452 280.355 339.655 280.072 339.772 279.784C339.89 279.496 339.948 279.235 339.948 279C339.948 278.776 339.9 278.563 339.804 278.36C339.719 278.147 339.591 277.976 339.42 277.848C339.26 277.709 339.063 277.64 338.828 277.64C338.594 277.64 338.38 277.709 338.188 277.848C338.007 277.976 337.863 278.147 337.756 278.36C337.65 278.573 337.596 278.797 337.596 279.032C337.596 279.48 337.708 279.88 337.932 280.232C338.167 280.573 338.466 280.867 338.828 281.112C339.202 281.357 339.596 281.544 340.012 281.672C340.439 281.8 340.844 281.864 341.228 281.864C341.591 281.864 341.858 281.805 342.028 281.688C342.199 281.56 342.284 281.352 342.284 281.064C342.284 281.011 342.268 280.915 342.236 280.776C342.215 280.627 342.13 280.424 341.98 280.168C341.842 279.912 341.602 279.597 341.26 279.224C340.919 278.84 340.439 278.387 339.82 277.864C339.202 277.331 338.402 276.712 337.42 276.008L338.172 275.016C339.196 275.763 340.039 276.424 340.7 277C341.372 277.565 341.9 278.061 342.284 278.488C342.679 278.904 342.967 279.272 343.148 279.592C343.34 279.901 343.463 280.179 343.516 280.424C343.57 280.659 343.596 280.883 343.596 281.096C343.596 281.448 343.516 281.779 343.356 282.088C343.207 282.397 342.962 282.648 342.62 282.84C342.29 283.032 341.847 283.128 341.292 283.128ZM345.584 283L345.312 272.696H346.608L346.88 283H345.584ZM344.528 271.736L344.336 270.872C344.613 270.808 344.837 270.755 345.008 270.712C345.178 270.669 345.37 270.621 345.584 270.568L345.504 270.904C345.226 270.819 344.96 270.637 344.704 270.36C344.458 270.083 344.336 269.768 344.336 269.416C344.336 269.096 344.41 268.829 344.56 268.616C344.72 268.392 344.922 268.227 345.168 268.12C345.424 268.013 345.696 267.96 345.984 267.96C346.101 267.96 346.224 267.971 346.352 267.992C346.49 268.013 346.618 268.045 346.736 268.088L346.608 268.888C346.501 268.867 346.4 268.845 346.304 268.824C346.208 268.803 346.101 268.792 345.984 268.792C345.738 268.792 345.546 268.845 345.408 268.952C345.269 269.048 345.2 269.187 345.2 269.368C345.2 269.592 345.269 269.784 345.408 269.944C345.557 270.104 345.722 270.232 345.904 270.328C346.096 270.413 346.25 270.456 346.368 270.456L345.712 270.52C346 270.445 346.266 270.371 346.512 270.296C346.768 270.211 346.997 270.131 347.2 270.056L347.456 270.872C347.2 270.968 346.896 271.069 346.544 271.176C346.202 271.283 345.856 271.384 345.504 271.48C345.152 271.576 344.826 271.661 344.528 271.736Z" fill="#50555C"/>
</svg>
