<svg width="30" height="30" viewBox="0 0 30 30" fill="none" xmlns="http://www.w3.org/2000/svg">
<path d="M10.3341 18.3501C10.1041 18.3501 9.94914 18.3726 9.86914 18.3951V19.8676C9.96414 19.8901 10.0829 19.8963 10.2466 19.8963C10.8454 19.8963 11.2141 19.5938 11.2141 19.0826C11.2141 18.6251 10.8966 18.3501 10.3341 18.3501ZM14.6929 18.3651C14.4429 18.3651 14.2804 18.3876 14.1841 18.4101V21.6726C14.2804 21.6951 14.4354 21.6951 14.5754 21.6951C15.5966 21.7026 16.2616 21.1401 16.2616 19.9501C16.2691 18.9126 15.6629 18.3651 14.6929 18.3651Z" fill="#4F008C"/>
<path d="M7.5 3H17.293L24.5 10.207V25C24.5 25.4642 24.3385 25.9117 24.0469 26.2676L23.9141 26.4141C23.539 26.7891 23.0304 27 22.5 27H7.5C7.03581 27 6.58834 26.8385 6.23242 26.5469L6.08594 26.4141C5.71086 26.039 5.5 25.5304 5.5 25V5L5.50977 4.80273C5.54867 4.41009 5.70303 4.0376 5.95312 3.73242L6.08594 3.58594C6.41422 3.25765 6.84474 3.05515 7.30273 3.00977L7.5 3ZM14.5752 17C14.0413 16.9957 13.5079 17.0325 12.9795 17.1094L12.5508 17.1709V18.0176C12.4705 17.8822 12.3763 17.7577 12.2676 17.6484L12.1104 17.5078C11.6503 17.1409 11.0238 17.0007 10.2793 17H10.2734C9.73916 16.9933 9.20527 17.0298 8.67676 17.1084L8.25 17.1709V23.0225H10.3672V21.2588C11.0149 21.242 11.64 21.0821 12.1162 20.6885L12.2148 20.6025L12.2178 20.5996C12.3523 20.4714 12.4609 20.3238 12.5508 20.165V22.9375L12.9854 22.9961C13.2884 23.0365 13.7242 23.0752 14.3311 23.0752C15.2978 23.0752 16.1807 22.8848 16.8252 22.4141L16.9512 22.3154L16.9541 22.3125C17.2671 22.0476 17.5254 21.7036 17.7021 21.2822V23.0234H19.835V21.0186H21.625V19.1016H19.835V18.9629H21.75V17.0371H17.7021V18.6123C17.5449 18.2619 17.3197 17.9655 17.0352 17.7266L16.9141 17.6309C16.3157 17.1804 15.5796 17.0004 14.5781 17H14.5752ZM15.75 11.75H23.707L15.75 3.79297V11.75Z" stroke="#4F008C"/>
</svg>
